PostNoBills-Light.ufo
<glyph name="ampersand" format="1">
  <advance width="636"/>
  <unicode hex="0026"/>
  <outline>
    <contour>
      <point x="397" y="96" type="line"/>
      <point x="363" y="58"/>
      <point x="313" y="39"/>
      <point x="265" y="39" type="curve" smooth="yes"/>
      <point x="173" y="39"/>
      <point x="80" y="103"/>
      <point x="80" y="213" type="curve" smooth="yes"/>
      <point x="80" y="289"/>
      <point x="127" y="332"/>
      <point x="151" y="351" type="curve"/>
      <point x="123" y="379" type="line"/>
      <point x="68" y="334"/>
      <point x="40" y="276"/>
      <point x="40" y="213" type="curve" smooth="yes"/>
      <point x="40" y="82"/>
      <point x="147" y="-1"/>
      <point x="261" y="-1" type="curve" smooth="yes"/>
      <point x="318" y="-1"/>
      <point x="377" y="20"/>
      <point x="425" y="67" type="curve"/>
    </contour>
    <contour>
      <point x="439" y="549" type="line" smooth="yes"/>
      <point x="432" y="598"/>
      <point x="389" y="658"/>
      <point x="324" y="666" type="curve"/>
      <point x="324" y="706" type="line"/>
      <point x="402" y="696"/>
      <point x="463" y="636"/>
      <point x="478" y="559" type="curve"/>
    </contour>
    <contour>
      <point x="269" y="666" type="line" smooth="yes"/>
      <point x="214" y="661"/>
      <point x="152" y="614"/>
      <point x="152" y="532" type="curve" smooth="yes"/>
      <point x="152" y="476"/>
      <point x="195" y="443"/>
      <point x="212" y="426" type="curve" smooth="yes"/>
      <point x="464" y="164" type="line"/>
      <point x="502" y="202"/>
      <point x="538" y="281"/>
      <point x="538" y="345" type="curve"/>
      <point x="578" y="345" type="line"/>
      <point x="578" y="260"/>
      <point x="533" y="175"/>
      <point x="493" y="134" type="curve"/>
      <point x="596" y="27" type="line"/>
      <point x="552" y="15" type="line"/>
      <point x="178" y="402" type="line" smooth="yes"/>
      <point x="136" y="446"/>
      <point x="112" y="474"/>
      <point x="112" y="532" type="curve" smooth="yes"/>
      <point x="112" y="621"/>
      <point x="178" y="694"/>
      <point x="269" y="706" type="curve"/>
    </contour>
  </outline>
</glyph>
<glyph name="quotesingle" format="1">
  <advance width="120"/>
  <unicode hex="0027"/>
  <outline>
    <contour>
      <point x="40" y="465" type="line"/>
      <point x="40" y="736" type="line"/>
      <point x="80" y="736" type="line"/>
      <point x="80" y="465" type="line"/>
    </contour>
  </outline>
</glyph>
<glyph name="period" format="1">
  <advance width="158"/>
  <unicode hex="002E"/>
  <outline>
    <contour>
      <point x="40" y="35" type="curve" smooth="yes"/>
      <point x="40" y="56"/>
      <point x="58" y="74"/>
      <point x="79" y="74" type="curve" smooth="yes"/>
      <point x="100" y="74"/>
      <point x="118" y="56"/>
      <point x="118" y="35" type="curve" smooth="yes"/>
      <point x="118" y="14"/>
      <point x="100" y="-4"/>
      <point x="79" y="-4" type="curve" smooth="yes"/>
      <point x="58" y="-4"/>
      <point x="40" y="14"/>
    </contour>
  </outline>
</glyph>
<glyph name="two" format="1">
  <advance width="510"/>
  <unicode hex="0032"/>
  <outline>
    <contour>
      <point x="41" y="520" type="line"/>
      <point x="50" y="604"/>
      <point x="111" y="691"/>
      <point x="217" y="700" type="curve"/>
      <point x="217" y="662" type="line" smooth="yes"/>
      <point x="217" y="662"/>
      <point x="102" y="659"/>
      <point x="78" y="512" type="curve"/>
    </contour>
    <contour>
      <point x="60" y="0" type="line"/>
      <point x="60" y="38" type="line"/>
      <point x="464" y="38" type="line"/>
      <point x="464" y="0" type="line"/>
    </contour>
    <contour>
      <point x="60" y="80" type="line"/>
      <point x="60" y="257"/>
      <point x="268" y="328"/>
      <point x="305" y="346" type="curve" smooth="yes"/>
      <point x="361" y="373"/>
      <point x="430" y="408"/>
      <point x="430" y="494" type="curve" smooth="yes"/>
      <point x="430" y="579"/>
      <point x="398" y="662"/>
      <point x="262" y="662" type="curve"/>
      <point x="262" y="700" type="line"/>
      <point x="420" y="700"/>
      <point x="472" y="599"/>
      <point x="470" y="494" type="curve" smooth="yes"/>
      <point x="468" y="410"/>
      <point x="423" y="364"/>
      <point x="355" y="329" type="curve" smooth="yes"/>
      <point x="281" y="291"/>
      <point x="100" y="231"/>
      <point x="100" y="80" type="curve"/>
    </contour>
  </outline>
</glyph>
<glyph name="three" format="1">
  <advance width="509"/>
  <unicode hex="0033"/>
  <outline>
    <contour>
      <point x="272" y="-4" type="curve"/>
      <point x="272" y="34" type="line"/>
      <point x="365" y="34"/>
      <point x="429" y="87"/>
      <point x="429" y="188" type="curve" smooth="yes"/>
      <point x="429" y="248"/>
      <point x="406" y="330"/>
      <point x="267" y="330" type="curve"/>
      <point x="267" y="366" type="line"/>
      <point x="406" y="366"/>
      <point x="429" y="448"/>
      <point x="429" y="508" type="curve" smooth="yes"/>
      <point x="429" y="609"/>
      <point x="365" y="662"/>
      <point x="272" y="662" type="curve"/>
      <point x="272" y="700" type="line"/>
      <point x="402" y="700"/>
      <point x="469" y="615"/>
      <point x="469" y="511" type="curve" smooth="yes"/>
      <point x="469" y="445"/>
      <point x="451" y="390"/>
      <point x="389" y="348" type="curve"/>
      <point x="451" y="305"/>
      <point x="469" y="251"/>
      <point x="469" y="185" type="curve" smooth="yes"/>
      <point x="469" y="81"/>
      <point x="402" y="-4"/>
    </contour>
    <contour>
      <point x="41" y="176" type="curve"/>
      <point x="78" y="184" type="line"/>
      <point x="102" y="37"/>
      <point x="217" y="34"/>
      <point x="217" y="34" type="curve"/>
      <point x="217" y="-4" type="line"/>
      <point x="111" y="5"/>
      <point x="50" y="92"/>
    </contour>
    <contour>
      <point x="41" y="520" type="line"/>
      <point x="50" y="604"/>
      <point x="111" y="691"/>
      <point x="217" y="700" type="curve"/>
      <point x="217" y="662" type="line"/>
      <point x="217" y="662"/>
      <point x="102" y="659"/>
      <point x="78" y="512" type="curve"/>
    </contour>
  </outline>
</glyph>
<glyph name="at" format="1">
  <advance width="769"/>
  <unicode hex="0040"/>
  <outline>
    <contour>
      <point x="40" y="309" type="curve" smooth="yes"/>
      <point x="40" y="519"/>
      <point x="212" y="678"/>
      <point x="432" y="678" type="curve" smooth="yes"/>
      <point x="568" y="678"/>
      <point x="729" y="590"/>
      <point x="729" y="413" type="curve" smooth="yes"/>
      <point x="729" y="182"/>
      <point x="565" y="161"/>
      <point x="529" y="161" type="curve" smooth="yes"/>
      <point x="493" y="161"/>
      <point x="454" y="199"/>
      <point x="448" y="219" type="curve"/>
      <point x="437" y="202"/>
      <point x="402" y="169"/>
      <point x="353" y="169" type="curve" smooth="yes"/>
      <point x="294" y="169"/>
      <point x="245" y="229"/>
      <point x="245" y="304" type="curve" smooth="yes"/>
      <point x="245" y="425"/>
      <point x="340" y="483"/>
      <point x="404" y="483" type="curve" smooth="yes"/>
      <point x="454" y="483"/>
      <point x="471" y="462"/>
      <point x="483" y="450" type="curve"/>
      <point x="489" y="471" type="line"/>
      <point x="528" y="471" type="line"/>
      <point x="487" y="308" type="line" smooth="yes"/>
      <point x="484" y="297"/>
      <point x="480" y="280"/>
      <point x="477" y="266" type="curve" smooth="yes"/>
      <point x="473" y="249"/>
      <point x="494" y="197"/>
      <point x="535" y="197" type="curve" smooth="yes"/>
      <point x="576" y="197"/>
      <point x="691" y="226"/>
      <point x="691" y="412" type="curve" smooth="yes"/>
      <point x="691" y="554"/>
      <point x="553" y="640"/>
      <point x="432" y="640" type="curve" smooth="yes"/>
      <point x="241" y="640"/>
      <point x="80" y="498"/>
      <point x="80" y="309" type="curve" smooth="yes"/>
      <point x="80" y="119"/>
      <point x="221" y="-14"/>
      <point x="405" y="-14" type="curve" smooth="yes"/>
      <point x="508" y="-14"/>
      <point x="587" y="19"/>
      <point x="667" y="75" type="curve"/>
      <point x="685" y="41" type="line"/>
      <point x="614" y="-11"/>
      <point x="520" y="-52"/>
      <point x="405" y="-52" type="curve" smooth="yes"/>
      <point x="177" y="-52"/>
      <point x="40" y="112"/>
    </contour>
  </outline>
</glyph>
<glyph name="F" format="1">
  <advance width="444"/>
  <unicode hex="0046"/>
  <outline>
    <contour>
      <point x="40" y="1" type="line"/>
      <point x="40" y="700" type="line"/>
      <point x="404" y="700" type="line"/>
      <point x="404" y="662" type="line"/>
      <point x="80" y="662" type="line"/>
      <point x="80" y="368" type="line"/>
      <point x="310" y="368" type="line"/>
      <point x="310" y="330" type="line"/>
      <point x="80" y="330" type="line"/>
      <point x="80" y="1" type="line"/>
    </contour>
  </outline>
</glyph>
<glyph name="S" format="1">
  <advance width="501"/>
  <unicode hex="0053"/>
  <outline>
    <contour>
      <point x="30" y="158" type="curve"/>
      <point x="67" y="171" type="line"/>
      <point x="93" y="42"/>
      <point x="218" y="35"/>
      <point x="218" y="35" type="curve"/>
      <point x="218" y="-3" type="line"/>
      <point x="103" y="-3"/>
      <point x="31" y="103"/>
    </contour>
    <contour>
      <point x="38" y="514" type="curve" smooth="yes"/>
      <point x="38" y="649"/>
      <point x="164" y="700"/>
      <point x="218" y="700" type="curve"/>
      <point x="218" y="662" type="line"/>
      <point x="186" y="662"/>
      <point x="78" y="622"/>
      <point x="78" y="508" type="curve" smooth="yes"/>
      <point x="78" y="387"/>
      <point x="263" y="387"/>
      <point x="343" y="365" type="curve" smooth="yes"/>
      <point x="412" y="346"/>
      <point x="471" y="311"/>
      <point x="471" y="203" type="curve" smooth="yes"/>
      <point x="471" y="99"/>
      <point x="378" y="-3"/>
      <point x="263" y="-3" type="curve"/>
      <point x="263" y="35" type="line"/>
      <point x="316" y="35"/>
      <point x="431" y="100"/>
      <point x="431" y="209" type="curve" smooth="yes"/>
      <point x="431" y="348"/>
      <point x="224" y="336"/>
      <point x="161" y="360" type="curve" smooth="yes"/>
      <point x="87" y="388"/>
      <point x="38" y="421"/>
    </contour>
    <contour>
      <point x="263" y="662" type="curve"/>
      <point x="263" y="700" type="line"/>
      <point x="373" y="700"/>
      <point x="435" y="595"/>
      <point x="443" y="553" type="curve"/>
      <point x="405" y="541" type="line"/>
      <point x="373" y="658"/>
      <point x="263" y="662"/>
    </contour>
  </outline>
</glyph>
<glyph name="Y" format="1">
  <advance width="487"/>
  <unicode hex="0059"/>
  <outline>
    <contour>
      <point x="30" y="700" type="line"/>
      <point x="71" y="700" type="line"/>
      <point x="254" y="253" type="line"/>
      <point x="254" y="0" type="line"/>
      <point x="214" y="0" type="line"/>
      <point x="214" y="252" type="line"/>
    </contour>
    <contour>
      <point x="257" y="357" type="line"/>
      <point x="416" y="700" type="line"/>
      <point x="457" y="700" type="line"/>
      <point x="280" y="311" type="line"/>
      <point x="276" y="311" type="line"/>
    </contour>
  </outline>
</glyph>
<glyph name="Z" format="1">
  <advance width="447"/>
  <unicode hex="005A"/>
  <outline>
    <contour>
      <point x="40" y="0" type="line"/>
      <point x="40" y="35" type="line"/>
      <point x="363" y="662" type="line"/>
      <point x="40" y="662" type="line"/>
      <point x="40" y="700" type="line"/>
      <point x="406" y="700" type="line"/>
      <point x="406" y="665" type="line"/>
      <point x="83" y="38" type="line"/>
      <point x="407" y="38" type="line"/>
      <point x="406" y="0" type="line"/>
    </contour>
  </outline>
</glyph>
<glyph name="backslash" format="1">
  <advance width="296"/>
  <unicode hex="005C"/>
  <outline>
    <contour>
      <point x="40" y="716" type="line"/>
      <point x="81" y="716" type="line"/>
      <point x="256" y="-23" type="line"/>
      <point x="214" y="-23" type="line"/>
    </contour>
  </outline>
</glyph>
<glyph name="bracketright" format="1">
  <advance width="180"/>
  <unicode hex="005D"/>
  <outline>
    <contour>
      <point x="50" y="-36" type="line"/>
      <point x="50" y="2" type="line"/>
      <point x="92" y="2" type="line"/>
      <point x="89" y="701" type="line"/>
      <point x="50" y="701" type="line"/>
      <point x="50" y="739" type="line"/>
      <point x="130" y="739" type="line"/>
      <point x="130" y="-36" type="line"/>
    </contour>
  </outline>
</glyph>
<glyph name="d" format="1">
  <advance width="428"/>
  <unicode hex="0064"/>
  <outline>
    <contour>
      <point x="30" y="141" type="curve" smooth="yes"/>
      <point x="30" y="377" type="line"/>
      <point x="30" y="446"/>
      <point x="102" y="516"/>
      <point x="184" y="516" type="curve" smooth="yes"/>
      <point x="303" y="516" type="line"/>
      <point x="303" y="478" type="line"/>
      <point x="185" y="478" type="line" smooth="yes"/>
      <point x="130" y="478"/>
      <point x="70" y="426"/>
      <point x="70" y="373" type="curve"/>
      <point x="70" y="143" type="line"/>
      <point x="70" y="86"/>
      <point x="137" y="38"/>
      <point x="185" y="38" type="curve" smooth="yes"/>
      <point x="303" y="38" type="line"/>
      <point x="303" y="0" type="line"/>
      <point x="187" y="0" type="line" smooth="yes"/>
      <point x="81" y="0"/>
      <point x="30" y="92"/>
    </contour>
    <contour>
      <point x="348" y="0" type="line"/>
      <point x="348" y="699" type="line"/>
      <point x="388" y="699" type="line"/>
      <point x="388" y="0" type="line"/>
    </contour>
  </outline>
</glyph>
<glyph name="n" format="1">
  <advance width="450"/>
  <unicode hex="006E"/>
  <outline>
    <contour>
      <point x="38" y="0" type="line"/>
      <point x="38" y="377" type="line" smooth="yes"/>
      <point x="38" y="428"/>
      <point x="94" y="519"/>
      <point x="204" y="519" type="curve"/>
      <point x="204" y="479" type="line"/>
      <point x="141" y="479"/>
      <point x="78" y="426"/>
      <point x="78" y="372" type="curve" smooth="yes"/>
      <point x="78" y="0" type="line"/>
    </contour>
    <contour>
      <point x="246" y="479" type="curve"/>
      <point x="246" y="519" type="line"/>
      <point x="356" y="519"/>
      <point x="412" y="425"/>
      <point x="412" y="377" type="curve" smooth="yes"/>
      <point x="412" y="0" type="line"/>
      <point x="372" y="0" type="line"/>
      <point x="372" y="372" type="line" smooth="yes"/>
      <point x="372" y="405"/>
      <point x="328" y="479"/>
    </contour>
  </outline>
</glyph>
<glyph name="t" format="1">
  <advance width="252"/>
  <unicode hex="0074"/>
  <outline>
    <contour>
      <point x="20" y="465" type="line"/>
      <point x="20" y="504" type="line"/>
      <point x="83" y="504" type="line"/>
      <point x="83" y="700" type="line"/>
      <point x="123" y="700" type="line"/>
      <point x="123" y="504" type="line"/>
      <point x="186" y="504" type="line"/>
      <point x="186" y="465" type="line"/>
      <point x="123" y="465" type="line"/>
      <point x="123" y="159" type="line" smooth="yes"/>
      <point x="123" y="83"/>
      <point x="148" y="38"/>
      <point x="242" y="38" type="curve" smooth="yes"/>
      <point x="243" y="38" type="line"/>
      <point x="252" y="0" type="line"/>
      <point x="237" y="0" type="line" smooth="yes"/>
      <point x="115" y="1"/>
      <point x="83" y="66"/>
      <point x="83" y="168" type="curve" smooth="yes"/>
      <point x="83" y="465" type="line"/>
    </contour>
  </outline>
</glyph>
<glyph name="y" format="1">
  <advance width="390"/>
  <unicode hex="0079"/>
  <outline>
    <contour>
      <point x="4" y="515" type="line"/>
      <point x="43" y="515" type="line"/>
      <point x="212" y="111" type="line"/>
      <point x="115" y="-182" type="line"/>
      <point x="76" y="-182" type="line"/>
      <point x="173" y="111" type="line"/>
    </contour>
    <contour>
      <point x="213" y="197" type="line"/>
      <point x="347" y="515" type="line"/>
      <point x="386" y="515" type="line"/>
      <point x="235" y="156" type="line"/>
      <point x="230" y="156" type="line"/>
    </contour>
  </outline>
</glyph>
<glyph name="section" format="1">
  <advance width="602"/>
  <unicode hex="00A7"/>
  <outline>
    <contour>
      <point x="54" y="356" type="curve" smooth="yes"/>
      <point x="54" y="427"/>
      <point x="88" y="475"/>
      <point x="129" y="504" type="curve"/>
      <point x="120" y="523"/>
      <point x="115" y="546"/>
      <point x="115" y="576" type="curve" smooth="yes"/>
      <point x="115" y="720"/>
      <point x="235" y="760"/>
      <point x="306" y="760" type="curve" smooth="yes"/>
      <point x="404" y="760" type="line"/>
      <point x="404" y="722" type="line"/>
      <point x="335" y="722" type="line" smooth="yes"/>
      <point x="211" y="721"/>
      <point x="155" y="663"/>
      <point x="155" y="578" type="curve" smooth="yes"/>
      <point x="155" y="510"/>
      <point x="213" y="478"/>
      <point x="278" y="459" type="curve"/>
      <point x="278" y="412" type="line"/>
      <point x="262" y="415"/>
      <point x="248" y="418"/>
      <point x="238" y="422" type="curve" smooth="yes"/>
      <point x="203" y="435"/>
      <point x="174" y="449"/>
      <point x="153" y="470" type="curve"/>
      <point x="122" y="446"/>
      <point x="94" y="408"/>
      <point x="94" y="350" type="curve" smooth="yes"/>
      <point x="94" y="261"/>
      <point x="193" y="238"/>
      <point x="278" y="223" type="curve"/>
      <point x="278" y="183" type="line"/>
      <point x="237" y="190"/>
      <point x="199" y="194"/>
      <point x="177" y="202" type="curve" smooth="yes"/>
      <point x="103" y="230"/>
      <point x="54" y="263"/>
    </contour>
    <contour>
      <point x="197" y="-98" type="line"/>
      <point x="262" y="-98" type="line" smooth="yes"/>
      <point x="373" y="-99"/>
      <point x="447" y="-47"/>
      <point x="447" y="51" type="curve" smooth="yes"/>
      <point x="447" y="125"/>
      <point x="388" y="156"/>
      <point x="323" y="173" type="curve"/>
      <point x="323" y="215" type="line"/>
      <point x="336" y="213"/>
      <point x="349" y="210"/>
      <point x="359" y="207" type="curve" smooth="yes"/>
      <point x="396" y="197"/>
      <point x="431" y="182"/>
      <point x="455" y="153" type="curve"/>
      <point x="485" y="182"/>
      <point x="508" y="222"/>
      <point x="508" y="271" type="curve" smooth="yes"/>
      <point x="508" y="369"/>
      <point x="406" y="392"/>
      <point x="323" y="405" type="curve"/>
      <point x="323" y="447" type="line"/>
      <point x="360" y="439"/>
      <point x="395" y="434"/>
      <point x="420" y="427" type="curve" smooth="yes"/>
      <point x="489" y="408"/>
      <point x="548" y="373"/>
      <point x="548" y="265" type="curve" smooth="yes"/>
      <point x="548" y="208"/>
      <point x="521" y="152"/>
      <point x="477" y="113" type="curve"/>
      <point x="484" y="94"/>
      <point x="487" y="72"/>
      <point x="487" y="45" type="curve" smooth="yes"/>
      <point x="487" y="-44"/>
      <point x="420" y="-137"/>
      <point x="292" y="-137" type="curve" smooth="yes"/>
      <point x="197" y="-137" type="line"/>
    </contour>
  </outline>
</glyph>
<glyph name="threesuperior" format="1">
  <advance width="225"/>
  <unicode hex="00B3"/>
  <outline>
    <contour>
      <point x="117" y="387" type="curve"/>
      <point x="117" y="413" type="line"/>
      <point x="143" y="413"/>
      <point x="178" y="432"/>
      <point x="178" y="474" type="curve" smooth="yes"/>
      <point x="178" y="499"/>
      <point x="158" y="531"/>
      <point x="115" y="531" type="curve"/>
      <point x="115" y="556" type="line"/>
      <point x="158" y="556"/>
      <point x="178" y="589"/>
      <point x="178" y="614" type="curve" smooth="yes"/>
      <point x="178" y="657"/>
      <point x="143" y="674"/>
      <point x="117" y="674" type="curve"/>
      <point x="117" y="700" type="line"/>
      <point x="172" y="700"/>
      <point x="205" y="659"/>
      <point x="205" y="615" type="curve" smooth="yes"/>
      <point x="205" y="588"/>
      <point x="197" y="561"/>
      <point x="171" y="543" type="curve"/>
      <point x="197" y="526"/>
      <point x="205" y="501"/>
      <point x="205" y="473" type="curve" smooth="yes"/>
      <point x="205" y="429"/>
      <point x="172" y="387"/>
    </contour>
    <contour>
      <point x="20" y="463" type="curve"/>
      <point x="45" y="468" type="line"/>
      <point x="53" y="415"/>
      <point x="94" y="413"/>
      <point x="94" y="413" type="curve"/>
      <point x="94" y="387" type="line"/>
      <point x="49" y="391"/>
      <point x="24" y="428"/>
    </contour>
    <contour>
      <point x="20" y="624" type="line"/>
      <point x="24" y="660"/>
      <point x="49" y="696"/>
      <point x="94" y="700" type="curve"/>
      <point x="94" y="674" type="line"/>
      <point x="94" y="674"/>
      <point x="53" y="672"/>
      <point x="45" y="619" type="curve"/>
    </contour>
  </outline>
</glyph>
<glyph name="acute" format="1">
  <advance width="308"/>
  <unicode hex="00B4"/>
  <outline>
    <contour>
      <point x="115" y="605" type="line"/>
      <point x="152" y="757" type="line"/>
      <point x="192" y="757" type="line"/>
      <point x="143" y="605" type="line"/>
    </contour>
  </outline>
</glyph>
<glyph name="tml_Anusvara" format="1">
  <advance width="228"/>
  <unicode hex="0B82"/>
  <outline>
    <contour>
      <point x="66" y="851" type="curve" smooth="yes"/>
      <point x="66" y="828"/>
      <point x="85" y="809"/>
      <point x="108" y="809" type="curve" smooth="yes"/>
      <point x="131" y="809"/>
      <point x="150" y="828"/>
      <point x="150" y="851" type="curve" smooth="yes"/>
      <point x="150" y="874"/>
      <point x="131" y="893"/>
      <point x="108" y="893" type="curve" smooth="yes"/>
      <point x="85" y="893"/>
      <point x="66" y="874"/>
    </contour>
    <contour>
      <point x="38" y="851" type="curve" smooth="yes"/>
      <point x="38" y="890"/>
      <point x="69" y="921"/>
      <point x="108" y="921" type="curve" smooth="yes"/>
      <point x="147" y="921"/>
      <point x="178" y="890"/>
      <point x="178" y="851" type="curve" smooth="yes"/>
      <point x="178" y="812"/>
      <point x="147" y="781"/>
      <point x="108" y="781" type="curve" smooth="yes"/>
      <point x="69" y="781"/>
      <point x="38" y="812"/>
    </contour>
  </outline>
</glyph>
<glyph name="tml_Nna" format="1">
  <advance width="1260"/>
  <unicode hex="0BA3"/>
  <outline>
    <contour>
      <point x="40" y="156" type="line"/>
      <point x="40" y="71"/>
      <point x="74" y="-12"/>
      <point x="143" y="-12" type="curve" smooth="yes"/>
      <point x="143" y="28" type="line"/>
      <point x="114" y="28"/>
      <point x="80" y="62"/>
      <point x="81" y="157" type="curve" smooth="yes"/>
      <point x="80" y="290" type="line" smooth="yes"/>
      <point x="79" y="403"/>
      <point x="114" y="565"/>
      <point x="293" y="566" type="curve"/>
      <point x="293" y="606" type="line"/>
      <point x="218" y="606"/>
      <point x="40" y="570"/>
      <point x="40" y="290" type="curve" smooth="yes"/>
    </contour>
    <contour>
      <point x="173" y="400" type="curve"/>
      <point x="260" y="400"/>
      <point x="262" y="348"/>
      <point x="262" y="292" type="curve" smooth="yes"/>
      <point x="262" y="156" type="line" smooth="yes"/>
      <point x="262" y="62"/>
      <point x="231" y="28"/>
      <point x="199" y="28" type="curve" smooth="yes"/>
      <point x="199" y="-12" type="line"/>
      <point x="266" y="-12"/>
      <point x="302" y="60"/>
      <point x="302" y="156" type="curve" smooth="yes"/>
      <point x="302" y="292" type="line" smooth="yes"/>
      <point x="302" y="370"/>
      <point x="281" y="429"/>
      <point x="212" y="429" type="curve"/>
      <point x="193" y="429"/>
      <point x="170" y="413"/>
    </contour>
    <contour>
      <point x="384" y="157" type="line"/>
      <point x="384" y="72"/>
      <point x="419" y="-11"/>
      <point x="489" y="-11" type="curve" smooth="yes"/>
      <point x="489" y="29" type="line"/>
      <point x="451" y="29"/>
      <point x="424" y="77"/>
      <point x="424" y="158" type="curve" smooth="yes"/>
      <point x="424" y="290" type="line" smooth="yes"/>
      <point x="424" y="477"/>
      <point x="524" y="565"/>
      <point x="675" y="565" type="curve"/>
      <point x="675" y="605" type="line"/>
      <point x="618" y="606"/>
      <point x="384" y="584"/>
      <point x="384" y="288" type="curve" smooth="yes"/>
    </contour>
    <contour>
      <point x="347" y="566" type="line"/>
      <point x="546" y="566"/>
      <point x="607" y="440"/>
      <point x="607" y="306" type="curve" smooth="yes"/>
      <point x="607" y="157" type="line" smooth="yes"/>
      <point x="607" y="75"/>
      <point x="583" y="29"/>
      <point x="542" y="29" type="curve" smooth="yes"/>
      <point x="542" y="-11" type="line"/>
      <point x="613" y="-11"/>
      <point x="647" y="65"/>
      <point x="647" y="157" type="curve" smooth="yes"/>
      <point x="647" y="301" type="line" smooth="yes"/>
      <point x="647" y="594"/>
      <point x="407" y="606"/>
      <point x="347" y="606" type="curve"/>
    </contour>
    <contour>
      <point x="729" y="565" type="line"/>
      <point x="921" y="564"/>
      <point x="951" y="415"/>
      <point x="951" y="305" type="curve" smooth="yes"/>
      <point x="951" y="157" type="line" smooth="yes"/>
      <point x="951" y="78"/>
      <point x="923" y="30"/>
      <point x="886" y="30" type="curve" smooth="yes"/>
      <point x="886" y="-10" type="line"/>
      <point x="952" y="-10"/>
      <point x="991" y="65"/>
      <point x="991" y="157" type="curve" smooth="yes"/>
      <point x="991" y="300" type="line" smooth="yes"/>
      <point x="991" y="593"/>
      <point x="787" y="605"/>
      <point x="729" y="605" type="curve"/>
    </contour>
    <contour>
      <point x="728" y="157" type="line"/>
      <point x="728" y="72"/>
      <point x="764" y="-10"/>
      <point x="832" y="-10" type="curve" smooth="yes"/>
      <point x="832" y="30" type="line"/>
      <point x="799" y="30"/>
      <point x="768" y="72"/>
      <point x="768" y="158" type="curve" smooth="yes"/>
      <point x="768" y="289" type="line" smooth="yes"/>
      <point x="768" y="479"/>
      <point x="875" y="566"/>
      <point x="1019" y="566" type="curve"/>
      <point x="1019" y="606" type="line"/>
      <point x="966" y="607"/>
      <point x="728" y="587"/>
      <point x="728" y="287" type="curve" smooth="yes"/>
    </contour>
    <contour>
      <point x="1083" y="1" type="line"/>
      <point x="1123" y="1" type="line"/>
      <point x="1123" y="575" type="line"/>
      <point x="1083" y="575" type="line"/>
    </contour>
    <contour>
      <point x="1074" y="566" type="line"/>
      <point x="1220" y="566" type="line"/>
      <point x="1220" y="606" type="line"/>
      <point x="1074" y="606" type="line"/>
    </contour>
    <contour>
      <point x="781" y="0" type="move" name="tml_virama"/>
    </contour>
  </outline>
</glyph>
<glyph name="tml_Nnna" format="1">
  <advance width="914"/>
  <unicode hex="0BA9"/>
  <outline>
    <contour>
      <point x="384" y="155" type="line" smooth="yes"/>
      <point x="384" y="70"/>
      <point x="420" y="-13"/>
      <point x="489" y="-13" type="curve" smooth="yes"/>
      <point x="489" y="27" type="line"/>
      <point x="452" y="27"/>
      <point x="424" y="75"/>
      <point x="424" y="156" type="curve" smooth="yes"/>
      <point x="424" y="300" type="line" smooth="yes"/>
      <point x="424" y="487"/>
      <point x="534" y="565"/>
      <point x="667" y="565" type="curve"/>
      <point x="667" y="605" type="line"/>
      <point x="624" y="606"/>
      <point x="384" y="594"/>
      <point x="384" y="298" type="curve" smooth="yes"/>
    </contour>
    <contour>
      <point x="350" y="565" type="line"/>
      <point x="547" y="564"/>
      <point x="607" y="450"/>
      <point x="607" y="316" type="curve" smooth="yes"/>
      <point x="607" y="155" type="line" smooth="yes"/>
      <point x="607" y="73"/>
      <point x="584" y="27"/>
      <point x="543" y="27" type="curve" smooth="yes"/>
      <point x="543" y="-13" type="line"/>
      <point x="615" y="-13"/>
      <point x="647" y="63"/>
      <point x="647" y="155" type="curve" smooth="yes"/>
      <point x="647" y="311" type="line" smooth="yes"/>
      <point x="647" y="604"/>
      <point x="410" y="605"/>
      <point x="350" y="605" type="curve"/>
    </contour>
    <contour>
      <point x="40" y="154" type="line"/>
      <point x="40" y="69"/>
      <point x="76" y="-14"/>
      <point x="147" y="-14" type="curve" smooth="yes"/>
      <point x="147" y="26" type="line"/>
      <point x="117" y="26"/>
      <point x="80" y="60"/>
      <point x="81" y="155" type="curve" smooth="yes"/>
      <point x="80" y="300" type="line" smooth="yes"/>
      <point x="79" y="413"/>
      <point x="115" y="564"/>
      <point x="296" y="565" type="curve"/>
      <point x="296" y="605" type="line"/>
      <point x="221" y="605"/>
      <point x="40" y="580"/>
      <point x="40" y="300" type="curve" smooth="yes"/>
    </contour>
    <contour>
      <point x="177" y="408" type="curve"/>
      <point x="264" y="408"/>
      <point x="267" y="356"/>
      <point x="267" y="300" type="curve" smooth="yes"/>
      <point x="267" y="154" type="line" smooth="yes"/>
      <point x="267" y="60"/>
      <point x="234" y="26"/>
      <point x="200" y="26" type="curve" smooth="yes"/>
      <point x="200" y="-14" type="line"/>
      <point x="270" y="-14"/>
      <point x="307" y="58"/>
      <point x="307" y="154" type="curve" smooth="yes"/>
      <point x="307" y="300" type="line" smooth="yes"/>
      <point x="307" y="378"/>
      <point x="285" y="437"/>
      <point x="216" y="437" type="curve"/>
      <point x="197" y="437"/>
      <point x="174" y="421"/>
    </contour>
    <contour>
      <point x="720" y="566" type="line"/>
      <point x="874" y="565" type="line"/>
      <point x="874" y="605" type="line"/>
      <point x="720" y="605" type="line"/>
    </contour>
    <contour>
      <point x="738" y="0" type="line"/>
      <point x="778" y="0" type="line"/>
      <point x="778" y="573" type="line"/>
      <point x="738" y="573" type="line"/>
    </contour>
    <contour>
      <point x="522" y="0" type="move" name="tml_virama"/>
    </contour>
  </outline>
</glyph>
<glyph name="tml_Virama" format="1">
  <advance width="0"/>
  <unicode hex="0BCD"/>
  <outline>
    <contour>
      <point x="-34" y="725" type="curve" smooth="yes"/>
      <point x="-34" y="705"/>
      <point x="-19" y="689"/>
      <point x="1" y="689" type="curve" smooth="yes"/>
      <point x="20" y="689"/>
      <point x="36" y="705"/>
      <point x="36" y="725" type="curve" smooth="yes"/>
      <point x="36" y="745"/>
      <point x="20" y="761"/>
      <point x="1" y="761" type="curve" smooth="yes"/>
      <point x="-19" y="761"/>
      <point x="-34" y="745"/>
    </contour>
    <contour>
      <point x="0" y="0" type="move" name="_tml_virama"/>
    </contour>
  </outline>
</glyph>
<glyph name="tml_Ten" format="1">
  <advance width="630"/>
  <unicode hex="0BF0"/>
  <outline>
    <contour>
      <point x="440" y="729" type="line"/>
      <point x="550" y="580" type="line"/>
      <point x="590" y="595" type="line"/>
      <point x="489" y="729" type="line"/>
    </contour>
    <contour>
      <point x="469" y="0" type="line"/>
      <point x="567" y="0"/>
      <point x="590" y="97"/>
      <point x="590" y="145" type="curve" smooth="yes"/>
      <point x="590" y="595" type="line"/>
      <point x="550" y="595" type="line"/>
      <point x="550" y="155" type="line" smooth="yes"/>
      <point x="550" y="92"/>
      <point x="525" y="40"/>
      <point x="469" y="40" type="curve"/>
    </contour>
    <contour>
      <point x="40" y="146" type="line" smooth="yes"/>
      <point x="40" y="51"/>
      <point x="97" y="0"/>
      <point x="155" y="0" type="curve"/>
      <point x="155" y="40" type="line"/>
      <point x="136" y="40"/>
      <point x="80" y="53"/>
      <point x="80" y="146" type="curve" smooth="yes"/>
      <point x="80" y="595" type="line"/>
      <point x="40" y="595" type="line"/>
    </contour>
    <contour>
      <point x="209" y="0" type="line"/>
      <point x="249" y="0"/>
      <point x="279" y="0"/>
      <point x="313" y="42" type="curve"/>
      <point x="345" y="0"/>
      <point x="382" y="0"/>
      <point x="415" y="0" type="curve"/>
      <point x="415" y="40" type="line"/>
      <point x="392" y="40"/>
      <point x="334" y="37"/>
      <point x="334" y="151" type="curve" smooth="yes"/>
      <point x="334" y="595" type="line"/>
      <point x="294" y="595" type="line"/>
      <point x="294" y="151" type="line" smooth="yes"/>
      <point x="294" y="37"/>
      <point x="234" y="40"/>
      <point x="209" y="40" type="curve"/>
    </contour>
  </outline>
</glyph>
<glyph name="tml_Hundred" format="1">
  <advance width="765"/>
  <unicode hex="0BF1"/>
  <outline>
    <contour>
      <point x="582" y="0" type="line"/>
      <point x="622" y="0" type="line" smooth="yes"/>
      <point x="622" y="570" type="line" smooth="yes"/>
      <point x="582" y="570" type="line"/>
    </contour>
    <contour>
      <point x="459" y="566" type="line"/>
      <point x="725" y="566" type="line"/>
      <point x="725" y="606" type="line"/>
      <point x="459" y="606" type="line"/>
    </contour>
    <contour>
      <point x="40" y="0" type="line"/>
      <point x="82" y="0" type="line"/>
      <point x="79" y="478" type="line" smooth="yes"/>
      <point x="79" y="557"/>
      <point x="128" y="566"/>
      <point x="151" y="566" type="curve"/>
      <point x="151" y="606" type="line"/>
      <point x="77" y="606"/>
      <point x="40" y="551"/>
      <point x="40" y="479" type="curve" smooth="yes"/>
    </contour>
    <contour>
      <point x="206" y="566" type="line"/>
      <point x="255" y="566"/>
      <point x="284" y="541"/>
      <point x="284" y="482" type="curve" smooth="yes"/>
      <point x="287" y="0" type="line"/>
      <point x="327" y="0" type="line"/>
      <point x="325" y="483" type="line" smooth="yes"/>
      <point x="325" y="555"/>
      <point x="358" y="566"/>
      <point x="405" y="566" type="curve"/>
      <point x="405" y="606" type="line"/>
      <point x="366" y="606"/>
      <point x="334" y="607"/>
      <point x="306" y="566" type="curve"/>
      <point x="277" y="597"/>
      <point x="252" y="606"/>
      <point x="206" y="606" type="curve"/>
    </contour>
  </outline>
</glyph>
<glyph name="tml_Credit" format="1">
  <advance width="1026"/>
  <unicode hex="0BF7"/>
  <outline>
    <contour>
      <point x="750" y="306" type="line"/>
      <point x="818" y="306"/>
      <point x="830" y="235"/>
      <point x="831" y="197" type="curve"/>
      <point x="831" y="43" type="line" smooth="yes"/>
      <point x="831" y="33"/>
      <point x="799" y="32"/>
      <point x="795" y="31" type="curve"/>
      <point x="795" y="1" type="line"/>
      <point x="927" y="1" type="line"/>
      <point x="927" y="31" type="line"/>
      <point x="861" y="31" type="line"/>
      <point x="861" y="197" type="line"/>
      <point x="860" y="259"/>
      <point x="835" y="336"/>
      <point x="750" y="336" type="curve"/>
    </contour>
    <contour>
      <point x="40" y="172" type="line" smooth="yes"/>
      <point x="40" y="88"/>
      <point x="104" y="0"/>
      <point x="192" y="0" type="curve" smooth="yes"/>
      <point x="192" y="40" type="line"/>
      <point x="142" y="40"/>
      <point x="79" y="91"/>
      <point x="79" y="181" type="curve" smooth="yes"/>
      <point x="79" y="295"/>
      <point x="155" y="319"/>
      <point x="192" y="319" type="curve" smooth="yes"/>
      <point x="192" y="359" type="line"/>
      <point x="116" y="359"/>
      <point x="40" y="300"/>
      <point x="40" y="196" type="curve" smooth="yes"/>
    </contour>
    <contour>
      <point x="247" y="0" type="line"/>
      <point x="319" y="0"/>
      <point x="384" y="75"/>
      <point x="383" y="173" type="curve" smooth="yes"/>
      <point x="383" y="196" type="line" smooth="yes"/>
      <point x="383" y="292"/>
      <point x="320" y="359"/>
      <point x="247" y="359" type="curve" smooth="yes"/>
      <point x="247" y="319" type="line"/>
      <point x="289" y="319"/>
      <point x="341" y="282"/>
      <point x="341" y="183" type="curve" smooth="yes"/>
      <point x="341" y="88"/>
      <point x="291" y="40"/>
      <point x="247" y="40" type="curve"/>
    </contour>
    <contour>
      <point x="592" y="84" type="line" smooth="yes"/>
      <point x="592" y="51"/>
      <point x="625" y="0"/>
      <point x="672" y="0" type="curve" smooth="yes"/>
      <point x="672" y="30" type="line"/>
      <point x="658" y="30"/>
      <point x="622" y="43"/>
      <point x="622" y="100" type="curve" smooth="yes"/>
      <point x="622" y="158"/>
      <point x="660" y="170"/>
      <point x="672" y="170" type="curve" smooth="yes"/>
      <point x="672" y="200" type="line"/>
      <point x="648" y="200"/>
      <point x="592" y="180"/>
      <point x="592" y="122" type="curve" smooth="yes"/>
    </contour>
    <contour>
      <point x="703" y="0" type="line"/>
      <point x="755" y="0"/>
      <point x="784" y="51"/>
      <point x="784" y="92" type="curve" smooth="yes"/>
      <point x="784" y="110" type="line" smooth="yes"/>
      <point x="784" y="153"/>
      <point x="749" y="200"/>
      <point x="703" y="200" type="curve" smooth="yes"/>
      <point x="703" y="170" type="line"/>
      <point x="717" y="170"/>
      <point x="754" y="156"/>
      <point x="754" y="100" type="curve" smooth="yes"/>
      <point x="754" y="41"/>
      <point x="718" y="30"/>
      <point x="703" y="30" type="curve"/>
    </contour>
    <contour>
      <point x="40" y="204" type="line"/>
      <point x="80" y="306" type="line" smooth="yes"/>
      <point x="82" y="439"/>
      <point x="150" y="557"/>
      <point x="267" y="557" type="curve"/>
      <point x="267" y="597" type="line"/>
      <point x="127" y="597"/>
      <point x="40" y="464"/>
      <point x="40" y="302" type="curve"/>
    </contour>
    <contour>
      <point x="592" y="125" type="line"/>
      <point x="623" y="176" type="line" smooth="yes"/>
      <point x="624" y="285"/>
      <point x="688" y="306"/>
      <point x="721" y="306" type="curve"/>
      <point x="721" y="336" type="line"/>
      <point x="617" y="336"/>
      <point x="592" y="240"/>
      <point x="592" y="169" type="curve"/>
    </contour>
    <contour>
      <point x="486" y="0" type="line"/>
      <point x="526" y="0" type="line"/>
      <point x="526" y="577" type="line"/>
      <point x="486" y="577" type="line"/>
    </contour>
    <contour>
      <point x="322" y="555" type="line"/>
      <point x="627" y="555" type="line"/>
      <point x="627" y="595" type="line"/>
      <point x="322" y="595" type="line"/>
    </contour>
    <contour>
      <point x="521" y="150" type="line"/>
      <point x="622" y="150" type="line"/>
      <point x="622" y="180" type="line"/>
      <point x="521" y="180" type="line"/>
    </contour>
    <contour>
      <point x="957" y="1" type="line"/>
      <point x="986" y="1" type="line"/>
      <point x="986" y="330" type="line"/>
      <point x="957" y="330" type="line"/>
    </contour>
  </outline>
</glyph>
<glyph name="anusvara" format="1">
  <advance width="449"/>
  <unicode hex="0D82"/>
  <outline>
    <contour>
      <point x="249" y="45" type="line"/>
      <point x="249" y="85" type="line"/>
      <point x="359" y="85"/>
      <point x="379" y="151"/>
      <point x="379" y="248" type="curve" smooth="yes"/>
      <point x="379" y="311" type="line" smooth="yes"/>
      <point x="379" y="408"/>
      <point x="357" y="474"/>
      <point x="249" y="474" type="curve"/>
      <point x="249" y="514" type="line"/>
      <point x="270" y="514" type="line" smooth="yes"/>
      <point x="416" y="514"/>
      <point x="419" y="369"/>
      <point x="419" y="311" type="curve" smooth="yes"/>
      <point x="419" y="248" type="line" smooth="yes"/>
      <point x="419" y="190"/>
      <point x="416" y="45"/>
      <point x="270" y="45" type="curve" smooth="yes"/>
    </contour>
    <contour>
      <point x="178" y="45" type="line" smooth="yes"/>
      <point x="33" y="45"/>
      <point x="30" y="190"/>
      <point x="30" y="248" type="curve" smooth="yes"/>
      <point x="30" y="311" type="line" smooth="yes"/>
      <point x="30" y="369"/>
      <point x="33" y="514"/>
      <point x="178" y="514" type="curve" smooth="yes"/>
      <point x="199" y="514" type="line"/>
      <point x="199" y="474" type="line"/>
      <point x="92" y="474"/>
      <point x="70" y="408"/>
      <point x="70" y="311" type="curve" smooth="yes"/>
      <point x="70" y="248" type="line" smooth="yes"/>
      <point x="70" y="151"/>
      <point x="90" y="85"/>
      <point x="199" y="85" type="curve"/>
      <point x="199" y="45" type="line"/>
    </contour>
  </outline>
</glyph>
<glyph name="visarga" format="1">
  <advance width="384"/>
  <unicode hex="0D83"/>
  <outline>
    <contour>
      <point x="217" y="-7" type="line"/>
      <point x="217" y="33" type="line"/>
      <point x="277" y="33"/>
      <point x="308" y="80"/>
      <point x="308" y="128" type="curve" smooth="yes"/>
      <point x="308" y="175"/>
      <point x="277" y="223"/>
      <point x="217" y="223" type="curve"/>
      <point x="217" y="263" type="line"/>
      <point x="231" y="263" type="line" smooth="yes"/>
      <point x="312" y="263"/>
      <point x="353" y="195"/>
      <point x="353" y="128" type="curve" smooth="yes"/>
      <point x="353" y="60"/>
      <point x="312" y="-7"/>
      <point x="231" y="-7" type="curve" smooth="yes"/>
    </contour>
    <contour>
      <point x="153" y="-7" type="line" smooth="yes"/>
      <point x="72" y="-7"/>
      <point x="31" y="60"/>
      <point x="31" y="128" type="curve" smooth="yes"/>
      <point x="31" y="195"/>
      <point x="72" y="263"/>
      <point x="153" y="263" type="curve" smooth="yes"/>
      <point x="167" y="263" type="line"/>
      <point x="167" y="223" type="line"/>
      <point x="107" y="223"/>
      <point x="76" y="175"/>
      <point x="76" y="128" type="curve" smooth="yes"/>
      <point x="76" y="80"/>
      <point x="107" y="33"/>
      <point x="167" y="33" type="curve"/>
      <point x="167" y="-7" type="line"/>
    </contour>
    <contour>
      <point x="217" y="298" type="line"/>
      <point x="217" y="338" type="line"/>
      <point x="277" y="338"/>
      <point x="308" y="385"/>
      <point x="308" y="433" type="curve" smooth="yes"/>
      <point x="308" y="480"/>
      <point x="277" y="528"/>
      <point x="217" y="528" type="curve"/>
      <point x="217" y="568" type="line"/>
      <point x="231" y="568" type="line" smooth="yes"/>
      <point x="312" y="568"/>
      <point x="353" y="500"/>
      <point x="353" y="433" type="curve" smooth="yes"/>
      <point x="353" y="365"/>
      <point x="312" y="298"/>
      <point x="231" y="298" type="curve" smooth="yes"/>
    </contour>
    <contour>
      <point x="153" y="298" type="line" smooth="yes"/>
      <point x="72" y="298"/>
      <point x="31" y="365"/>
      <point x="31" y="433" type="curve" smooth="yes"/>
      <point x="31" y="500"/>
      <point x="72" y="568"/>
      <point x="153" y="568" type="curve" smooth="yes"/>
      <point x="167" y="568" type="line"/>
      <point x="167" y="528" type="line"/>
      <point x="107" y="528"/>
      <point x="76" y="480"/>
      <point x="76" y="433" type="curve" smooth="yes"/>
      <point x="76" y="385"/>
      <point x="107" y="338"/>
      <point x="167" y="338" type="curve"/>
      <point x="167" y="298" type="line"/>
    </contour>
  </outline>
</glyph>
<glyph name="si_A" format="1">
  <advance width="541"/>
  <unicode hex="0D85"/>
  <outline>
    <contour>
      <point x="392" y="-169" type="line"/>
      <point x="392" y="433" type="line" smooth="yes"/>
      <point x="392" y="519"/>
      <point x="446" y="570"/>
      <point x="503" y="583" type="curve"/>
      <point x="511" y="545" type="line"/>
      <point x="453" y="532"/>
      <point x="432" y="474"/>
      <point x="432" y="433" type="curve" smooth="yes"/>
      <point x="432" y="41" type="line"/>
      <point x="494" y="41" type="line"/>
      <point x="494" y="0" type="line"/>
      <point x="432" y="0" type="line"/>
      <point x="432" y="-169" type="line"/>
    </contour>
    <contour>
      <point x="30" y="199" type="curve" smooth="yes"/>
      <point x="30" y="335"/>
      <point x="125" y="402"/>
      <point x="256" y="402" type="curve" smooth="yes"/>
      <point x="392" y="402" type="line"/>
      <point x="392" y="493"/>
      <point x="320" y="538"/>
      <point x="243" y="538" type="curve" smooth="yes"/>
      <point x="182" y="538"/>
      <point x="124" y="505"/>
      <point x="107" y="443" type="curve"/>
      <point x="68" y="456" type="line"/>
      <point x="89" y="536"/>
      <point x="163" y="579"/>
      <point x="241" y="579" type="curve" smooth="yes"/>
      <point x="339" y="579"/>
      <point x="432" y="519"/>
      <point x="432" y="389" type="curve" smooth="yes"/>
      <point x="432" y="362" type="line"/>
      <point x="246" y="362" type="line" smooth="yes"/>
      <point x="130" y="362"/>
      <point x="72" y="293"/>
      <point x="72" y="199" type="curve" smooth="yes"/>
      <point x="72" y="108"/>
      <point x="133" y="40"/>
      <point x="257" y="40" type="curve"/>
      <point x="337" y="40" type="line"/>
      <point x="337" y="0" type="line"/>
      <point x="257" y="0" type="line" smooth="yes"/>
      <point x="137" y="0"/>
      <point x="30" y="60"/>
    </contour>
  </outline>
</glyph>
<glyph name="si_I" format="1">
  <advance width="555"/>
  <unicode hex="0D89"/>
  <outline>
    <contour>
      <point x="192" y="0" type="line"/>
      <point x="192" y="40" type="line"/>
      <point x="202" y="40"/>
      <point x="243" y="40"/>
      <point x="253" y="40" type="curve" smooth="yes"/>
      <point x="338" y="40"/>
      <point x="485" y="93"/>
      <point x="485" y="259" type="curve" smooth="yes"/>
      <point x="485" y="380" type="line" smooth="yes"/>
      <point x="485" y="500"/>
      <point x="362" y="529"/>
      <point x="308" y="529" type="curve" smooth="yes"/>
      <point x="308" y="569" type="line" smooth="yes"/>
      <point x="324" y="569" type="line"/>
      <point x="428" y="569"/>
      <point x="525" y="496"/>
      <point x="525" y="380" type="curve" smooth="yes"/>
      <point x="525" y="259" type="line" smooth="yes"/>
      <point x="525" y="106"/>
      <point x="418" y="0"/>
      <point x="253" y="0" type="curve" smooth="yes"/>
    </contour>
    <contour>
      <point x="71" y="-76" type="curve"/>
      <point x="110" y="-66" type="line"/>
      <point x="126" y="-134"/>
      <point x="182" y="-164"/>
      <point x="238" y="-164" type="curve" smooth="yes"/>
      <point x="304" y="-164"/>
      <point x="370" y="-121"/>
      <point x="370" y="-45" type="curve"/>
      <point x="410" y="-45" type="line"/>
      <point x="410" y="-151"/>
      <point x="327" y="-204"/>
      <point x="242" y="-204" type="curve" smooth="yes"/>
      <point x="166" y="-204"/>
      <point x="89" y="-161"/>
    </contour>
    <contour>
      <point x="30" y="292" type="curve" smooth="yes"/>
      <point x="30" y="387" type="line" smooth="yes"/>
      <point x="30" y="492"/>
      <point x="133" y="569"/>
      <point x="237" y="569" type="curve"/>
      <point x="253" y="569" type="line" smooth="yes"/>
      <point x="253" y="529" type="line"/>
      <point x="237" y="529" type="line"/>
      <point x="195" y="529"/>
      <point x="72" y="489"/>
      <point x="72" y="388" type="curve" smooth="yes"/>
      <point x="72" y="292" type="line" smooth="yes"/>
      <point x="72" y="242"/>
      <point x="119" y="217"/>
      <point x="166" y="217" type="curve" smooth="yes"/>
      <point x="213" y="217"/>
      <point x="260" y="242"/>
      <point x="260" y="292" type="curve" smooth="yes"/>
      <point x="260" y="365" type="line"/>
      <point x="300" y="365" type="line"/>
      <point x="300" y="292" type="line" smooth="yes"/>
      <point x="300" y="214"/>
      <point x="233" y="174"/>
      <point x="165" y="174" type="curve" smooth="yes"/>
      <point x="98" y="174"/>
      <point x="30" y="214"/>
    </contour>
  </outline>
</glyph>
<glyph name="si_Ii" format="1">
  <advance width="526"/>
  <unicode hex="0D8A"/>
  <outline>
    <contour>
      <point x="350" y="667" type="curve" smooth="yes"/>
      <point x="350" y="707"/>
      <point x="383" y="740"/>
      <point x="423" y="740" type="curve" smooth="yes"/>
      <point x="463" y="740"/>
      <point x="496" y="707"/>
      <point x="496" y="667" type="curve" smooth="yes"/>
      <point x="496" y="628"/>
      <point x="463" y="595"/>
      <point x="423" y="595" type="curve" smooth="yes"/>
      <point x="383" y="595"/>
      <point x="350" y="628"/>
    </contour>
    <contour>
      <point x="50" y="769" type="curve" smooth="yes"/>
      <point x="50" y="809"/>
      <point x="83" y="842"/>
      <point x="123" y="842" type="curve" smooth="yes"/>
      <point x="163" y="842"/>
      <point x="196" y="809"/>
      <point x="196" y="769" type="curve" smooth="yes"/>
      <point x="196" y="730"/>
      <point x="163" y="697"/>
      <point x="123" y="697" type="curve" smooth="yes"/>
      <point x="83" y="697"/>
      <point x="50" y="730"/>
    </contour>
    <component base="si_Ra"/>
  </outline>
</glyph>
<glyph name="si_vocalicR" format="1">
  <advance width="965"/>
  <unicode hex="0D8D"/>
  <outline>
    <contour>
      <point x="30" y="140" type="curve" smooth="yes"/>
      <point x="30" y="192" type="line"/>
      <point x="70" y="192" type="line"/>
      <point x="70" y="141" type="line" smooth="yes"/>
      <point x="70" y="74"/>
      <point x="119" y="40"/>
      <point x="182" y="40" type="curve" smooth="yes"/>
      <point x="246" y="40"/>
      <point x="295" y="74"/>
      <point x="295" y="141" type="curve" smooth="yes"/>
      <point x="295" y="192" type="line"/>
      <point x="335" y="192" type="line"/>
      <point x="335" y="141" type="line" smooth="yes"/>
      <point x="335" y="74"/>
      <point x="384" y="40"/>
      <point x="448" y="40" type="curve" smooth="yes"/>
      <point x="511" y="40"/>
      <point x="560" y="74"/>
      <point x="560" y="141" type="curve" smooth="yes"/>
      <point x="560" y="192" type="line"/>
      <point x="600" y="192" type="line"/>
      <point x="600" y="140" type="line" smooth="yes"/>
      <point x="600" y="56"/>
      <point x="532" y="0"/>
      <point x="448" y="0" type="curve" smooth="yes"/>
      <point x="391" y="0"/>
      <point x="341" y="25"/>
      <point x="315" y="67" type="curve"/>
      <point x="289" y="25"/>
      <point x="239" y="0"/>
      <point x="182" y="0" type="curve" smooth="yes"/>
      <point x="98" y="0"/>
      <point x="30" y="56"/>
    </contour>
    <contour>
      <point x="36" y="477" type="line"/>
      <point x="62" y="542"/>
      <point x="122" y="564"/>
      <point x="186" y="564" type="curve" smooth="yes"/>
      <point x="223" y="564"/>
      <point x="284" y="551"/>
      <point x="315" y="498" type="curve"/>
      <point x="346" y="551"/>
      <point x="407" y="564"/>
      <point x="444" y="564" type="curve" smooth="yes"/>
      <point x="508" y="564"/>
      <point x="568" y="542"/>
      <point x="594" y="477" type="curve"/>
      <point x="555" y="464" type="line"/>
      <point x="542" y="500"/>
      <point x="507" y="524"/>
      <point x="444" y="524" type="curve" smooth="yes"/>
      <point x="366" y="524"/>
      <point x="335" y="469"/>
      <point x="335" y="415" type="curve" smooth="yes"/>
      <point x="335" y="379" type="line"/>
      <point x="295" y="379" type="line"/>
      <point x="295" y="415" type="line" smooth="yes"/>
      <point x="295" y="469"/>
      <point x="264" y="524"/>
      <point x="186" y="524" type="curve" smooth="yes"/>
      <point x="123" y="524"/>
      <point x="88" y="500"/>
      <point x="75" y="464" type="curve"/>
    </contour>
    <contour>
      <point x="30" y="241" type="line"/>
      <point x="30" y="288" type="line" smooth="yes"/>
      <point x="30" y="337"/>
      <point x="35" y="402"/>
      <point x="146" y="402" type="curve"/>
      <point x="484" y="402" type="line"/>
      <point x="595" y="402"/>
      <point x="600" y="337"/>
      <point x="600" y="288" type="curve" smooth="yes"/>
      <point x="600" y="241" type="line"/>
      <point x="560" y="241" type="line"/>
      <point x="560" y="288" type="line" smooth="yes"/>
      <point x="560" y="355"/>
      <point x="521" y="362"/>
      <point x="485" y="362" type="curve"/>
      <point x="145" y="362" type="line"/>
      <point x="109" y="362"/>
      <point x="70" y="355"/>
      <point x="70" y="288" type="curve" smooth="yes"/>
      <point x="70" y="241" type="line"/>
    </contour>
    <component base="si_MatraR" xOffset="651"/>
  </outline>
</glyph>
<glyph name="si_vocalicL" format="1">
  <advance width="884"/>
  <unicode hex="0D8F"/>
  <outline>
    <contour>
      <point x="54" y="69" type="curve" smooth="yes"/>
      <point x="54" y="111"/>
      <point x="87" y="144"/>
      <point x="129" y="144" type="curve" smooth="yes"/>
      <point x="171" y="144"/>
      <point x="204" y="111"/>
      <point x="204" y="69" type="curve" smooth="yes"/>
      <point x="204" y="27"/>
      <point x="171" y="-6"/>
      <point x="129" y="-6" type="curve" smooth="yes"/>
      <point x="87" y="-6"/>
      <point x="54" y="27"/>
    </contour>
    <contour>
      <point x="680" y="69" type="curve" smooth="yes"/>
      <point x="680" y="111"/>
      <point x="713" y="144"/>
      <point x="755" y="144" type="curve" smooth="yes"/>
      <point x="797" y="144"/>
      <point x="830" y="111"/>
      <point x="830" y="69" type="curve" smooth="yes"/>
      <point x="830" y="27"/>
      <point x="797" y="-6"/>
      <point x="755" y="-6" type="curve" smooth="yes"/>
      <point x="713" y="-6"/>
      <point x="680" y="27"/>
    </contour>
    <contour>
      <point x="30" y="202" type="curve"/>
      <point x="70" y="202" type="line"/>
      <point x="70" y="155"/>
      <point x="82" y="95"/>
      <point x="96" y="69" type="curve"/>
      <point x="63" y="33" type="line"/>
      <point x="41" y="74"/>
      <point x="30" y="139"/>
    </contour>
    <contour>
      <point x="814" y="202" type="curve"/>
      <point x="854" y="202" type="line"/>
      <point x="854" y="139"/>
      <point x="843" y="74"/>
      <point x="821" y="33" type="curve"/>
      <point x="788" y="69" type="line"/>
      <point x="802" y="95"/>
      <point x="814" y="155"/>
    </contour>
    <contour>
      <point x="202" y="507" type="curve"/>
      <point x="202" y="464" type="line"/>
      <point x="178" y="472" type="line" smooth="yes"/>
      <point x="168" y="475"/>
      <point x="157" y="477"/>
      <point x="146" y="477" type="curve" smooth="yes"/>
      <point x="110" y="477"/>
      <point x="70" y="455"/>
      <point x="70" y="373" type="curve" smooth="yes"/>
      <point x="70" y="251" type="line"/>
      <point x="30" y="251" type="line"/>
      <point x="30" y="371" type="line" smooth="yes"/>
      <point x="30" y="465"/>
      <point x="75" y="518"/>
      <point x="144" y="518" type="curve" smooth="yes"/>
      <point x="162" y="518"/>
      <point x="181" y="514"/>
    </contour>
    <contour>
      <point x="682" y="507" type="line"/>
      <point x="703" y="514"/>
      <point x="722" y="518"/>
      <point x="740" y="518" type="curve" smooth="yes"/>
      <point x="809" y="518"/>
      <point x="854" y="465"/>
      <point x="854" y="371" type="curve" smooth="yes"/>
      <point x="854" y="251" type="line"/>
      <point x="814" y="251" type="line"/>
      <point x="814" y="373" type="line" smooth="yes"/>
      <point x="814" y="455"/>
      <point x="774" y="477"/>
      <point x="738" y="477" type="curve" smooth="yes"/>
      <point x="727" y="477"/>
      <point x="716" y="475"/>
      <point x="706" y="472" type="curve" smooth="yes"/>
      <point x="682" y="464" type="line"/>
    </contour>
    <component base="si_Pa" xOffset="132"/>
  </outline>
</glyph>
<glyph name="si_Ee" format="1">
  <advance width="589"/>
  <unicode hex="0D92"/>
  <outline>
    <contour>
      <point x="30" y="309" type="line"/>
      <point x="30" y="349" type="line"/>
      <point x="209" y="349" type="line"/>
      <point x="295" y="349" type="line"/>
      <point x="295" y="408"/>
      <point x="246" y="438"/>
      <point x="198" y="438" type="curve" smooth="yes"/>
      <point x="164" y="438"/>
      <point x="130" y="422"/>
      <point x="116" y="389" type="curve"/>
      <point x="77" y="399" type="line"/>
      <point x="91" y="452"/>
      <point x="144" y="479"/>
      <point x="199" y="479" type="curve" smooth="yes"/>
      <point x="232" y="479"/>
      <point x="266" y="469"/>
      <point x="292" y="448" type="curve" smooth="yes"/>
      <point x="318" y="427"/>
      <point x="335" y="396"/>
      <point x="335" y="354" type="curve" smooth="yes"/>
      <point x="335" y="309" type="line"/>
      <point x="209" y="309" type="line" smooth="yes"/>
      <point x="150" y="309"/>
      <point x="115" y="252"/>
      <point x="115" y="191" type="curve" smooth="yes"/>
      <point x="115" y="119"/>
      <point x="164" y="40"/>
      <point x="279" y="40" type="curve"/>
      <point x="279" y="0" type="line"/>
      <point x="136" y="0"/>
      <point x="73" y="99"/>
      <point x="73" y="191" type="curve" smooth="yes"/>
      <point x="73" y="236"/>
      <point x="88" y="279"/>
      <point x="115" y="309" type="curve"/>
    </contour>
    <contour>
      <point x="292" y="637" type="curve" smooth="yes"/>
      <point x="292" y="755" type="line"/>
      <point x="332" y="755" type="line"/>
      <point x="462" y="755"/>
      <point x="559" y="700"/>
      <point x="559" y="517" type="curve" smooth="yes"/>
      <point x="559" y="241" type="line"/>
      <point x="517" y="241" type="line"/>
      <point x="517" y="498" type="line" smooth="yes"/>
      <point x="517" y="643"/>
      <point x="469" y="715"/>
      <point x="332" y="715" type="curve"/>
      <point x="332" y="637" type="line" smooth="yes"/>
      <point x="332" y="537"/>
      <point x="399" y="504"/>
      <point x="462" y="504" type="curve"/>
      <point x="462" y="464" type="line"/>
      <point x="345" y="464"/>
      <point x="292" y="541"/>
    </contour>
    <contour>
      <point x="334" y="0" type="curve"/>
      <point x="334" y="40" type="line"/>
      <point x="447" y="40"/>
      <point x="517" y="95"/>
      <point x="517" y="241" type="curve" smooth="yes"/>
      <point x="559" y="241" type="line" smooth="yes"/>
      <point x="559" y="84"/>
      <point x="493" y="0"/>
    </contour>
    <contour>
      <point x="517" y="518" type="line"/>
      <point x="517" y="819" type="line"/>
      <point x="559" y="819" type="line"/>
      <point x="559" y="518" type="line"/>
    </contour>
  </outline>
</glyph>
<glyph name="si_Os" format="1">
  <advance width="580"/>
  <unicode hex="0D94"/>
  <outline>
    <contour>
      <point x="171" y="0" type="curve" smooth="yes"/>
      <point x="88" y="0"/>
      <point x="30" y="52"/>
      <point x="30" y="133" type="curve" smooth="yes"/>
      <point x="30" y="366" type="line" smooth="yes"/>
      <point x="30" y="441"/>
      <point x="86" y="480"/>
      <point x="142" y="480" type="curve" smooth="yes"/>
      <point x="194" y="480"/>
      <point x="246" y="444"/>
      <point x="246" y="370" type="curve" smooth="yes"/>
      <point x="246" y="315" type="line" smooth="yes"/>
      <point x="246" y="289"/>
      <point x="267" y="276"/>
      <point x="287" y="276" type="curve" smooth="yes"/>
      <point x="308" y="276"/>
      <point x="329" y="289"/>
      <point x="329" y="315" type="curve" smooth="yes"/>
      <point x="329" y="469" type="line"/>
      <point x="369" y="469" type="line"/>
      <point x="369" y="310" type="line" smooth="yes"/>
      <point x="369" y="257"/>
      <point x="328" y="230"/>
      <point x="287" y="230" type="curve" smooth="yes"/>
      <point x="247" y="230"/>
      <point x="206" y="257"/>
      <point x="206" y="310" type="curve" smooth="yes"/>
      <point x="206" y="370" type="line" smooth="yes"/>
      <point x="206" y="416"/>
      <point x="173" y="439"/>
      <point x="140" y="439" type="curve" smooth="yes"/>
      <point x="106" y="439"/>
      <point x="72" y="415"/>
      <point x="72" y="366" type="curve" smooth="yes"/>
      <point x="72" y="139" type="line" smooth="yes"/>
      <point x="72" y="104"/>
      <point x="95" y="40"/>
      <point x="171" y="40" type="curve" smooth="yes"/>
      <point x="246" y="40"/>
      <point x="269" y="104"/>
      <point x="269" y="139" type="curve" smooth="yes"/>
      <point x="269" y="192" type="line"/>
      <point x="311" y="192" type="line"/>
      <point x="311" y="139" type="line" smooth="yes"/>
      <point x="311" y="104"/>
      <point x="334" y="40"/>
      <point x="409" y="40" type="curve" smooth="yes"/>
      <point x="485" y="40"/>
      <point x="508" y="104"/>
      <point x="508" y="139" type="curve" smooth="yes"/>
      <point x="508" y="201" type="line"/>
      <point x="550" y="201" type="line"/>
      <point x="550" y="133" type="line" smooth="yes"/>
      <point x="550" y="52"/>
      <point x="492" y="0"/>
      <point x="409" y="0" type="curve" smooth="yes"/>
      <point x="357" y="0"/>
      <point x="314" y="21"/>
      <point x="290" y="58" type="curve"/>
      <point x="266" y="21"/>
      <point x="223" y="0"/>
    </contour>
    <contour>
      <point x="508" y="201" type="line" smooth="yes"/>
      <point x="508" y="514" type="line" smooth="yes"/>
      <point x="508" y="668"/>
      <point x="435" y="715"/>
      <point x="314" y="715" type="curve"/>
      <point x="314" y="755" type="line"/>
      <point x="481" y="755"/>
      <point x="550" y="678"/>
      <point x="550" y="514" type="curve" smooth="yes"/>
      <point x="550" y="201" type="line" smooth="yes"/>
    </contour>
    <contour>
      <point x="74" y="553" type="curve"/>
      <point x="35" y="563" type="line"/>
      <point x="35" y="681"/>
      <point x="153" y="755"/>
      <point x="257" y="755" type="curve"/>
      <point x="257" y="715" type="line"/>
      <point x="164" y="715"/>
      <point x="74" y="651"/>
    </contour>
  </outline>
</glyph>
<glyph name="si_Oo" format="1">
  <advance width="580"/>
  <unicode hex="0D95"/>
  <outline>
    <contour>
      <point x="171" y="0" type="curve" smooth="yes"/>
      <point x="88" y="0"/>
      <point x="30" y="52"/>
      <point x="30" y="133" type="curve" smooth="yes"/>
      <point x="30" y="366" type="line" smooth="yes"/>
      <point x="30" y="441"/>
      <point x="86" y="480"/>
      <point x="141" y="480" type="curve" smooth="yes"/>
      <point x="194" y="480"/>
      <point x="246" y="444"/>
      <point x="246" y="370" type="curve" smooth="yes"/>
      <point x="246" y="315" type="line" smooth="yes"/>
      <point x="246" y="289"/>
      <point x="267" y="276"/>
      <point x="287" y="276" type="curve" smooth="yes"/>
      <point x="308" y="276"/>
      <point x="329" y="289"/>
      <point x="329" y="315" type="curve" smooth="yes"/>
      <point x="329" y="469" type="line"/>
      <point x="369" y="469" type="line"/>
      <point x="369" y="310" type="line" smooth="yes"/>
      <point x="369" y="257"/>
      <point x="328" y="230"/>
      <point x="287" y="230" type="curve" smooth="yes"/>
      <point x="247" y="230"/>
      <point x="206" y="257"/>
      <point x="206" y="310" type="curve" smooth="yes"/>
      <point x="206" y="370" type="line" smooth="yes"/>
      <point x="206" y="416"/>
      <point x="173" y="439"/>
      <point x="140" y="439" type="curve" smooth="yes"/>
      <point x="106" y="439"/>
      <point x="72" y="415"/>
      <point x="72" y="366" type="curve" smooth="yes"/>
      <point x="72" y="139" type="line" smooth="yes"/>
      <point x="72" y="104"/>
      <point x="95" y="40"/>
      <point x="171" y="40" type="curve" smooth="yes"/>
      <point x="246" y="40"/>
      <point x="269" y="104"/>
      <point x="269" y="139" type="curve" smooth="yes"/>
      <point x="269" y="192" type="line"/>
      <point x="311" y="192" type="line"/>
      <point x="311" y="139" type="line" smooth="yes"/>
      <point x="311" y="104"/>
      <point x="334" y="40"/>
      <point x="409" y="40" type="curve" smooth="yes"/>
      <point x="485" y="40"/>
      <point x="508" y="104"/>
      <point x="508" y="139" type="curve" smooth="yes"/>
      <point x="508" y="197" type="line"/>
      <point x="550" y="197" type="line"/>
      <point x="550" y="133" type="line" smooth="yes"/>
      <point x="550" y="52"/>
      <point x="492" y="0"/>
      <point x="409" y="0" type="curve" smooth="yes"/>
      <point x="357" y="0"/>
      <point x="314" y="21"/>
      <point x="290" y="58" type="curve"/>
      <point x="266" y="21"/>
      <point x="223" y="0"/>
    </contour>
    <contour>
      <point x="59" y="612" type="line"/>
      <point x="59" y="652" type="line"/>
      <point x="94" y="652" type="line"/>
      <point x="73" y="672"/>
      <point x="67" y="695"/>
      <point x="67" y="718" type="curve" smooth="yes"/>
      <point x="67" y="770"/>
      <point x="115" y="819"/>
      <point x="184" y="819" type="curve" smooth="yes"/>
      <point x="270" y="819" type="line"/>
      <point x="270" y="779" type="line"/>
      <point x="180" y="779" type="line" smooth="yes"/>
      <point x="132" y="779"/>
      <point x="109" y="747"/>
      <point x="109" y="716" type="curve" smooth="yes"/>
      <point x="109" y="684"/>
      <point x="132" y="652"/>
      <point x="180" y="652" type="curve" smooth="yes"/>
      <point x="348" y="652" type="line"/>
      <point x="348" y="612" type="line"/>
    </contour>
    <contour>
      <point x="508" y="197" type="line" smooth="yes"/>
      <point x="508" y="465" type="line" smooth="yes"/>
      <point x="508" y="584"/>
      <point x="464" y="612"/>
      <point x="348" y="612" type="curve"/>
      <point x="348" y="652" type="line"/>
      <point x="508" y="652"/>
      <point x="550" y="590"/>
      <point x="550" y="474" type="curve" smooth="yes"/>
      <point x="550" y="197" type="line" smooth="yes"/>
    </contour>
    <contour>
      <point x="506" y="673" type="line"/>
      <point x="506" y="778"/>
      <point x="452" y="779"/>
      <point x="391" y="779" type="curve" smooth="yes"/>
      <point x="326" y="779" type="line"/>
      <point x="326" y="819" type="line"/>
      <point x="391" y="819" type="line" smooth="yes"/>
      <point x="539" y="819"/>
      <point x="546" y="742"/>
      <point x="546" y="673" type="curve"/>
    </contour>
  </outline>
</glyph>
<glyph name="si_Ga" format="1">
  <advance width="703"/>
  <unicode hex="0D9C"/>
  <outline>
    <contour>
      <point x="269" y="271" type="line"/>
      <point x="269" y="311" type="line"/>
      <point x="306" y="311" type="line" smooth="yes"/>
      <point x="408" y="311"/>
      <point x="439" y="233"/>
      <point x="439" y="164" type="curve" smooth="yes"/>
      <point x="439" y="145" type="line" smooth="yes"/>
      <point x="439" y="43"/>
      <point x="372" y="-8"/>
      <point x="272" y="-8" type="curve"/>
      <point x="272" y="32" type="line"/>
      <point x="352" y="32"/>
      <point x="399" y="66"/>
      <point x="399" y="152" type="curve" smooth="yes"/>
      <point x="399" y="200"/>
      <point x="391" y="271"/>
      <point x="306" y="271" type="curve" smooth="yes"/>
    </contour>
    <contour>
      <point x="216" y="-8" type="line"/>
      <point x="97" y="-8"/>
      <point x="30" y="80"/>
      <point x="30" y="216" type="curve" smooth="yes"/>
      <point x="30" y="340" type="line" smooth="yes"/>
      <point x="30" y="476"/>
      <point x="97" y="564"/>
      <point x="216" y="564" type="curve"/>
      <point x="216" y="524" type="line"/>
      <point x="121" y="524"/>
      <point x="70" y="458"/>
      <point x="70" y="340" type="curve" smooth="yes"/>
      <point x="70" y="216" type="line" smooth="yes"/>
      <point x="70" y="98"/>
      <point x="124" y="32"/>
      <point x="216" y="32" type="curve"/>
    </contour>
    <contour>
      <point x="487" y="-8" type="curve"/>
      <point x="487" y="32" type="line"/>
      <point x="579" y="32"/>
      <point x="633" y="98"/>
      <point x="633" y="216" type="curve" smooth="yes"/>
      <point x="633" y="340" type="line" smooth="yes"/>
      <point x="633" y="458"/>
      <point x="582" y="524"/>
      <point x="487" y="524" type="curve"/>
      <point x="487" y="564" type="line"/>
      <point x="606" y="564"/>
      <point x="673" y="476"/>
      <point x="673" y="340" type="curve" smooth="yes"/>
      <point x="673" y="216" type="line" smooth="yes"/>
      <point x="673" y="80"/>
      <point x="606" y="-8"/>
    </contour>
    <contour>
      <point x="252" y="271" type="line" smooth="yes"/>
      <point x="252" y="360" type="line" smooth="yes"/>
      <point x="252" y="478"/>
      <point x="309" y="564"/>
      <point x="431" y="564" type="curve"/>
      <point x="431" y="524" type="line"/>
      <point x="324" y="524"/>
      <point x="293" y="443"/>
      <point x="293" y="361" type="curve" smooth="yes"/>
      <point x="293" y="271" type="line"/>
    </contour>
  </outline>
</glyph>
<glyph name="si_Gha" format="1">
  <advance width="677"/>
  <unicode hex="0D9D"/>
  <outline>
    <contour>
      <point x="205" y="0" type="curve" smooth="yes"/>
      <point x="141" y="0"/>
      <point x="77" y="47"/>
      <point x="77" y="139" type="curve" smooth="yes"/>
      <point x="77" y="192" type="line"/>
      <point x="117" y="192" type="line"/>
      <point x="117" y="139" type="line" smooth="yes"/>
      <point x="117" y="71"/>
      <point x="161" y="37"/>
      <point x="205" y="37" type="curve" smooth="yes"/>
      <point x="268" y="37"/>
      <point x="292" y="71"/>
      <point x="292" y="141" type="curve" smooth="yes"/>
      <point x="292" y="183"/>
      <point x="307" y="204"/>
      <point x="363" y="204" type="curve" smooth="yes"/>
      <point x="363" y="204"/>
      <point x="363" y="204"/>
      <point x="363" y="204" type="curve" smooth="yes"/>
      <point x="417" y="204"/>
      <point x="432" y="183"/>
      <point x="432" y="142" type="curve" smooth="yes"/>
      <point x="432" y="71"/>
      <point x="455" y="37"/>
      <point x="519" y="37" type="curve" smooth="yes"/>
      <point x="563" y="37"/>
      <point x="607" y="72"/>
      <point x="607" y="139" type="curve" smooth="yes"/>
      <point x="607" y="192" type="line"/>
      <point x="647" y="192" type="line"/>
      <point x="647" y="139" type="line" smooth="yes"/>
      <point x="647" y="47"/>
      <point x="583" y="0"/>
      <point x="519" y="0" type="curve" smooth="yes"/>
      <point x="436" y="0"/>
      <point x="392" y="47"/>
      <point x="392" y="142" type="curve" smooth="yes"/>
      <point x="392" y="159"/>
      <point x="387" y="167"/>
      <point x="362" y="167" type="curve" smooth="yes"/>
      <point x="337" y="167"/>
      <point x="332" y="159"/>
      <point x="332" y="141" type="curve" smooth="yes"/>
      <point x="332" y="47"/>
      <point x="289" y="0"/>
    </contour>
    <contour>
      <point x="84" y="477" type="line"/>
      <point x="110" y="542"/>
      <point x="170" y="564"/>
      <point x="234" y="564" type="curve" smooth="yes"/>
      <point x="271" y="564"/>
      <point x="332" y="551"/>
      <point x="363" y="498" type="curve"/>
      <point x="394" y="551"/>
      <point x="455" y="564"/>
      <point x="492" y="564" type="curve" smooth="yes"/>
      <point x="556" y="564"/>
      <point x="616" y="542"/>
      <point x="642" y="477" type="curve"/>
      <point x="603" y="464" type="line"/>
      <point x="590" y="500"/>
      <point x="555" y="524"/>
      <point x="492" y="524" type="curve" smooth="yes"/>
      <point x="414" y="524"/>
      <point x="383" y="469"/>
      <point x="383" y="415" type="curve" smooth="yes"/>
      <point x="383" y="379" type="line"/>
      <point x="343" y="379" type="line"/>
      <point x="343" y="415" type="line" smooth="yes"/>
      <point x="343" y="469"/>
      <point x="312" y="524"/>
      <point x="234" y="524" type="curve" smooth="yes"/>
      <point x="171" y="524"/>
      <point x="136" y="500"/>
      <point x="123" y="464" type="curve"/>
    </contour>
    <contour>
      <point x="30" y="362" type="line"/>
      <point x="30" y="402" type="line"/>
      <point x="531" y="402" type="line"/>
      <point x="642" y="402"/>
      <point x="647" y="337"/>
      <point x="647" y="288" type="curve" smooth="yes"/>
      <point x="647" y="241" type="line"/>
      <point x="607" y="241" type="line"/>
      <point x="607" y="288" type="line" smooth="yes"/>
      <point x="607" y="355"/>
      <point x="568" y="362"/>
      <point x="532" y="362" type="curve"/>
      <point x="192" y="362" type="line"/>
      <point x="156" y="362"/>
      <point x="117" y="355"/>
      <point x="117" y="288" type="curve" smooth="yes"/>
      <point x="117" y="241" type="line"/>
      <point x="77" y="241" type="line"/>
      <point x="77" y="288" type="line" smooth="yes"/>
      <point x="77" y="320"/>
      <point x="84" y="351"/>
      <point x="105" y="362" type="curve"/>
    </contour>
  </outline>
</glyph>
<glyph name="si_Nga" format="1">
  <advance width="580"/>
  <unicode hex="0D9E"/>
  <outline>
    <contour>
      <point x="171" y="0" type="curve" smooth="yes"/>
      <point x="88" y="0"/>
      <point x="30" y="52"/>
      <point x="30" y="133" type="curve" smooth="yes"/>
      <point x="30" y="227" type="line" smooth="yes"/>
      <point x="30" y="308"/>
      <point x="70" y="350"/>
      <point x="161" y="350" type="curve" smooth="yes"/>
      <point x="250" y="350" type="line"/>
      <point x="250" y="310" type="line"/>
      <point x="211" y="310" type="line" smooth="yes"/>
      <point x="85" y="310"/>
      <point x="72" y="280"/>
      <point x="72" y="228" type="curve" smooth="yes"/>
      <point x="72" y="139" type="line" smooth="yes"/>
      <point x="72" y="104"/>
      <point x="95" y="40"/>
      <point x="171" y="40" type="curve" smooth="yes"/>
      <point x="246" y="40"/>
      <point x="269" y="104"/>
      <point x="269" y="139" type="curve" smooth="yes"/>
      <point x="269" y="192" type="line"/>
      <point x="311" y="192" type="line"/>
      <point x="311" y="139" type="line" smooth="yes"/>
      <point x="311" y="104"/>
      <point x="334" y="40"/>
      <point x="409" y="40" type="curve" smooth="yes"/>
      <point x="485" y="40"/>
      <point x="508" y="104"/>
      <point x="508" y="139" type="curve" smooth="yes"/>
      <point x="508" y="242" type="line"/>
      <point x="550" y="242" type="line"/>
      <point x="550" y="133" type="line" smooth="yes"/>
      <point x="550" y="52"/>
      <point x="492" y="0"/>
      <point x="409" y="0" type="curve" smooth="yes"/>
      <point x="357" y="0"/>
      <point x="314" y="21"/>
      <point x="290" y="58" type="curve"/>
      <point x="266" y="21"/>
      <point x="223" y="0"/>
    </contour>
    <contour>
      <point x="53" y="403" type="line" smooth="yes"/>
      <point x="53" y="464"/>
      <point x="93" y="496"/>
      <point x="173" y="496" type="curve"/>
      <point x="258" y="496" type="line" smooth="yes"/>
      <point x="323" y="496"/>
      <point x="355" y="450"/>
      <point x="355" y="404" type="curve" smooth="yes"/>
      <point x="355" y="357"/>
      <point x="322" y="310"/>
      <point x="258" y="310" type="curve" smooth="yes"/>
      <point x="214" y="310" type="line"/>
      <point x="214" y="350" type="line"/>
      <point x="259" y="350" type="line" smooth="yes"/>
      <point x="297" y="350"/>
      <point x="317" y="378"/>
      <point x="317" y="405" type="curve" smooth="yes"/>
      <point x="317" y="430"/>
      <point x="299" y="456"/>
      <point x="262" y="456" type="curve" smooth="yes"/>
      <point x="174" y="456" type="line"/>
      <point x="96" y="456"/>
      <point x="93" y="414"/>
      <point x="93" y="403" type="curve" smooth="yes"/>
    </contour>
    <contour>
      <point x="508" y="241" type="line" smooth="yes"/>
      <point x="508" y="514" type="line" smooth="yes"/>
      <point x="508" y="668"/>
      <point x="435" y="715"/>
      <point x="314" y="715" type="curve"/>
      <point x="314" y="755" type="line"/>
      <point x="481" y="755"/>
      <point x="550" y="678"/>
      <point x="550" y="514" type="curve" smooth="yes"/>
      <point x="550" y="241" type="line" smooth="yes"/>
    </contour>
    <contour>
      <point x="35" y="563" type="line"/>
      <point x="35" y="681"/>
      <point x="153" y="755"/>
      <point x="257" y="755" type="curve"/>
      <point x="257" y="715" type="line"/>
      <point x="164" y="715"/>
      <point x="74" y="651"/>
      <point x="74" y="553" type="curve"/>
    </contour>
  </outline>
</glyph>
<glyph name="si_Nnga" format="1">
  <advance width="843"/>
  <unicode hex="0D9F"/>
  <outline>
    <contour>
      <point x="30" y="209" type="curve" smooth="yes"/>
      <point x="30" y="287" type="line" smooth="yes"/>
      <point x="30" y="452"/>
      <point x="61" y="564"/>
      <point x="265" y="564" type="curve" smooth="yes"/>
      <point x="316" y="564"/>
      <point x="305" y="564"/>
      <point x="356" y="564" type="curve"/>
      <point x="356" y="524" type="line"/>
      <point x="238" y="524" type="line" smooth="yes"/>
      <point x="68" y="524"/>
      <point x="70" y="376"/>
      <point x="70" y="287" type="curve" smooth="yes"/>
      <point x="70" y="209" type="line" smooth="yes"/>
      <point x="70" y="128"/>
      <point x="72" y="85"/>
      <point x="136" y="8" type="curve"/>
      <point x="94" y="-8" type="line"/>
      <point x="34" y="69"/>
      <point x="30" y="118"/>
    </contour>
    <contour>
      <point x="409" y="271" type="line"/>
      <point x="409" y="311" type="line"/>
      <point x="446" y="311" type="line" smooth="yes"/>
      <point x="548" y="311"/>
      <point x="579" y="233"/>
      <point x="579" y="164" type="curve" smooth="yes"/>
      <point x="579" y="145" type="line" smooth="yes"/>
      <point x="579" y="43"/>
      <point x="512" y="-8"/>
      <point x="412" y="-8" type="curve"/>
      <point x="412" y="32" type="line"/>
      <point x="492" y="32"/>
      <point x="539" y="66"/>
      <point x="539" y="152" type="curve" smooth="yes"/>
      <point x="539" y="200"/>
      <point x="531" y="271"/>
      <point x="446" y="271" type="curve" smooth="yes"/>
    </contour>
    <contour>
      <point x="356" y="-8" type="line"/>
      <point x="237" y="-8"/>
      <point x="170" y="80"/>
      <point x="170" y="216" type="curve" smooth="yes"/>
      <point x="170" y="340" type="line" smooth="yes"/>
      <point x="170" y="476"/>
      <point x="237" y="564"/>
      <point x="356" y="564" type="curve"/>
      <point x="356" y="524" type="line"/>
      <point x="261" y="524"/>
      <point x="210" y="458"/>
      <point x="210" y="340" type="curve" smooth="yes"/>
      <point x="210" y="216" type="line" smooth="yes"/>
      <point x="210" y="98"/>
      <point x="264" y="32"/>
      <point x="356" y="32" type="curve"/>
    </contour>
    <contour>
      <point x="627" y="-8" type="curve"/>
      <point x="627" y="32" type="line"/>
      <point x="719" y="32"/>
      <point x="773" y="98"/>
      <point x="773" y="216" type="curve" smooth="yes"/>
      <point x="773" y="340" type="line" smooth="yes"/>
      <point x="773" y="458"/>
      <point x="722" y="524"/>
      <point x="627" y="524" type="curve"/>
      <point x="627" y="564" type="line"/>
      <point x="746" y="564"/>
      <point x="813" y="476"/>
      <point x="813" y="340" type="curve" smooth="yes"/>
      <point x="813" y="216" type="line" smooth="yes"/>
      <point x="813" y="80"/>
      <point x="746" y="-8"/>
    </contour>
    <contour>
      <point x="392" y="271" type="line" smooth="yes"/>
      <point x="392" y="360" type="line" smooth="yes"/>
      <point x="392" y="478"/>
      <point x="449" y="564"/>
      <point x="571" y="564" type="curve"/>
      <point x="571" y="524" type="line"/>
      <point x="464" y="524"/>
      <point x="433" y="443"/>
      <point x="433" y="361" type="curve" smooth="yes"/>
      <point x="433" y="271" type="line"/>
    </contour>
  </outline>
</glyph>
<glyph name="si_Ca" format="1">
  <advance width="590"/>
  <unicode hex="0DA0"/>
  <outline>
    <contour>
      <point x="279" y="0" type="line"/>
      <point x="136" y="0"/>
      <point x="73" y="99"/>
      <point x="73" y="191" type="curve" smooth="yes"/>
      <point x="73" y="236"/>
      <point x="88" y="279"/>
      <point x="115" y="309" type="curve"/>
      <point x="30" y="309" type="line"/>
      <point x="30" y="349" type="line"/>
      <point x="209" y="349" type="line"/>
      <point x="295" y="349" type="line"/>
      <point x="295" y="408"/>
      <point x="246" y="438"/>
      <point x="198" y="438" type="curve" smooth="yes"/>
      <point x="164" y="438"/>
      <point x="130" y="422"/>
      <point x="116" y="389" type="curve"/>
      <point x="77" y="399" type="line"/>
      <point x="91" y="452"/>
      <point x="144" y="479"/>
      <point x="199" y="479" type="curve" smooth="yes"/>
      <point x="232" y="479"/>
      <point x="266" y="469"/>
      <point x="292" y="448" type="curve" smooth="yes"/>
      <point x="318" y="427"/>
      <point x="335" y="396"/>
      <point x="335" y="354" type="curve" smooth="yes"/>
      <point x="335" y="309" type="line"/>
      <point x="209" y="309" type="line" smooth="yes"/>
      <point x="150" y="309"/>
      <point x="115" y="252"/>
      <point x="115" y="191" type="curve" smooth="yes"/>
      <point x="115" y="119"/>
      <point x="164" y="40"/>
      <point x="279" y="40" type="curve"/>
    </contour>
    <contour>
      <point x="335" y="0" type="curve"/>
      <point x="335" y="40" type="line"/>
      <point x="448" y="40"/>
      <point x="519" y="95"/>
      <point x="519" y="241" type="curve" smooth="yes"/>
      <point x="519" y="514" type="line" smooth="yes"/>
      <point x="519" y="662"/>
      <point x="448" y="715"/>
      <point x="335" y="715" type="curve"/>
      <point x="335" y="755" type="line"/>
      <point x="494" y="755"/>
      <point x="560" y="671"/>
      <point x="560" y="514" type="curve" smooth="yes"/>
      <point x="560" y="241" type="line" smooth="yes"/>
      <point x="560" y="84"/>
      <point x="494" y="0"/>
    </contour>
    <contour>
      <point x="108" y="553" type="curve"/>
      <point x="69" y="563" type="line"/>
      <point x="69" y="674"/>
      <point x="183" y="755"/>
      <point x="279" y="755" type="curve"/>
      <point x="279" y="715" type="line"/>
      <point x="195" y="715"/>
      <point x="108" y="644"/>
    </contour>
  </outline>
</glyph>
<glyph name="si_Cha" format="1">
  <advance width="620"/>
  <unicode hex="0DA1"/>
  <outline>
    <contour>
      <point x="281" y="-6" type="line" smooth="yes"/>
      <point x="104" y="-6"/>
      <point x="32" y="50"/>
      <point x="32" y="193" type="curve"/>
      <point x="72" y="193" type="line"/>
      <point x="72" y="61"/>
      <point x="148" y="34"/>
      <point x="281" y="34" type="curve" smooth="yes"/>
      <point x="343" y="34" type="line" smooth="yes"/>
      <point x="476" y="34"/>
      <point x="552" y="62"/>
      <point x="552" y="193" type="curve"/>
      <point x="552" y="264" type="line"/>
      <point x="443" y="264" type="line" smooth="yes"/>
      <point x="360" y="264"/>
      <point x="289" y="332"/>
      <point x="289" y="415" type="curve" smooth="yes"/>
      <point x="289" y="498"/>
      <point x="360" y="566"/>
      <point x="443" y="566" type="curve" smooth="yes"/>
      <point x="505" y="566"/>
      <point x="559" y="528"/>
      <point x="582" y="474" type="curve"/>
      <point x="546" y="462" type="line"/>
      <point x="528" y="501"/>
      <point x="489" y="528"/>
      <point x="443" y="528" type="curve" smooth="yes"/>
      <point x="381" y="528"/>
      <point x="330" y="477"/>
      <point x="330" y="415" type="curve" smooth="yes"/>
      <point x="330" y="353"/>
      <point x="381" y="302"/>
      <point x="443" y="302" type="curve" smooth="yes"/>
      <point x="551" y="302" type="line"/>
      <point x="583" y="302"/>
      <point x="592" y="288"/>
      <point x="592" y="265" type="curve"/>
      <point x="592" y="193" type="line"/>
      <point x="592" y="50"/>
      <point x="520" y="-6"/>
      <point x="343" y="-6" type="curve" smooth="yes"/>
    </contour>
    <contour>
      <point x="32" y="242" type="line"/>
      <point x="32" y="364"/>
      <point x="99" y="402"/>
      <point x="196" y="402" type="curve" smooth="yes"/>
      <point x="289" y="402" type="line"/>
      <point x="289" y="469"/>
      <point x="258" y="524"/>
      <point x="180" y="524" type="curve" smooth="yes"/>
      <point x="117" y="524"/>
      <point x="82" y="500"/>
      <point x="69" y="464" type="curve"/>
      <point x="30" y="477" type="line"/>
      <point x="56" y="542"/>
      <point x="116" y="564"/>
      <point x="180" y="564" type="curve" smooth="yes"/>
      <point x="231" y="564"/>
      <point x="329" y="539"/>
      <point x="329" y="415" type="curve"/>
      <point x="329" y="362" type="line"/>
      <point x="197" y="362" type="line" smooth="yes"/>
      <point x="88" y="362"/>
      <point x="72" y="308"/>
      <point x="72" y="242" type="curve"/>
    </contour>
    <contour>
      <point x="362" y="498" type="line"/>
      <point x="312" y="494" type="line"/>
      <point x="533" y="785" type="line"/>
      <point x="572" y="774" type="line"/>
    </contour>
  </outline>
</glyph>
<glyph name="si_Jnya" format="1">
  <advance width="1051"/>
  <unicode hex="0DA5"/>
  <outline>
    <contour>
      <point x="776" y="0" type="line" smooth="yes"/>
      <point x="656" y="0"/>
      <point x="549" y="60"/>
      <point x="549" y="199" type="curve" smooth="yes"/>
      <point x="549" y="335"/>
      <point x="644" y="389"/>
      <point x="775" y="389" type="curve" smooth="yes"/>
      <point x="911" y="389" type="line"/>
      <point x="911" y="516"/>
      <point x="770" y="533"/>
      <point x="692" y="533" type="curve" smooth="yes"/>
      <point x="692" y="574" type="line" smooth="yes"/>
      <point x="790" y="574"/>
      <point x="951" y="556"/>
      <point x="951" y="376" type="curve" smooth="yes"/>
      <point x="951" y="349" type="line"/>
      <point x="765" y="349" type="line" smooth="yes"/>
      <point x="649" y="349"/>
      <point x="591" y="293"/>
      <point x="591" y="199" type="curve" smooth="yes"/>
      <point x="591" y="108"/>
      <point x="652" y="40"/>
      <point x="776" y="40" type="curve"/>
      <point x="815" y="40" type="line"/>
      <point x="886" y="40"/>
      <point x="946" y="75"/>
      <point x="980" y="148" type="curve"/>
      <point x="1017" y="138" type="line"/>
      <point x="975" y="22"/>
      <point x="872" y="0"/>
      <point x="815" y="0" type="curve"/>
    </contour>
    <contour>
      <point x="30" y="208" type="curve" smooth="yes"/>
      <point x="30" y="287" type="line" smooth="yes"/>
      <point x="30" y="452"/>
      <point x="61" y="564"/>
      <point x="265" y="564" type="curve" smooth="yes"/>
      <point x="316" y="564"/>
      <point x="305" y="564"/>
      <point x="356" y="564" type="curve"/>
      <point x="356" y="524" type="line"/>
      <point x="238" y="524" type="line" smooth="yes"/>
      <point x="68" y="524"/>
      <point x="70" y="376"/>
      <point x="70" y="287" type="curve" smooth="yes"/>
      <point x="70" y="208" type="line" smooth="yes"/>
      <point x="70" y="127"/>
      <point x="72" y="84"/>
      <point x="136" y="7" type="curve"/>
      <point x="94" y="-9" type="line"/>
      <point x="34" y="68"/>
      <point x="30" y="117"/>
    </contour>
    <contour>
      <point x="409" y="271" type="line"/>
      <point x="409" y="311" type="line"/>
      <point x="446" y="311" type="line" smooth="yes"/>
      <point x="548" y="311"/>
      <point x="579" y="233"/>
      <point x="579" y="164" type="curve" smooth="yes"/>
      <point x="579" y="145" type="line" smooth="yes"/>
      <point x="579" y="43"/>
      <point x="512" y="-8"/>
      <point x="412" y="-8" type="curve"/>
      <point x="412" y="32" type="line"/>
      <point x="492" y="32"/>
      <point x="539" y="66"/>
      <point x="539" y="152" type="curve" smooth="yes"/>
      <point x="539" y="200"/>
      <point x="531" y="271"/>
      <point x="446" y="271" type="curve" smooth="yes"/>
    </contour>
    <contour>
      <point x="356" y="-8" type="line"/>
      <point x="237" y="-8"/>
      <point x="170" y="80"/>
      <point x="170" y="216" type="curve" smooth="yes"/>
      <point x="170" y="340" type="line" smooth="yes"/>
      <point x="170" y="476"/>
      <point x="237" y="564"/>
      <point x="356" y="564" type="curve"/>
      <point x="356" y="524" type="line"/>
      <point x="261" y="524"/>
      <point x="210" y="458"/>
      <point x="210" y="340" type="curve" smooth="yes"/>
      <point x="210" y="216" type="line" smooth="yes"/>
      <point x="210" y="98"/>
      <point x="264" y="32"/>
      <point x="356" y="32" type="curve"/>
    </contour>
    <contour>
      <point x="392" y="271" type="line" smooth="yes"/>
      <point x="392" y="360" type="line" smooth="yes"/>
      <point x="392" y="516"/>
      <point x="510" y="572"/>
      <point x="631" y="574" type="curve" smooth="yes"/>
      <point x="632" y="574"/>
      <point x="634" y="574"/>
      <point x="636" y="574" type="curve"/>
      <point x="636" y="534" type="line"/>
      <point x="634" y="534"/>
      <point x="633" y="534"/>
      <point x="631" y="534" type="curve" smooth="yes"/>
      <point x="526" y="532"/>
      <point x="433" y="481"/>
      <point x="433" y="361" type="curve" smooth="yes"/>
      <point x="433" y="271" type="line"/>
    </contour>
    <contour>
      <point x="880" y="-204" type="curve" smooth="yes"/>
      <point x="795" y="-204"/>
      <point x="712" y="-151"/>
      <point x="712" y="-45" type="curve"/>
      <point x="752" y="-45" type="line"/>
      <point x="752" y="-121"/>
      <point x="818" y="-164"/>
      <point x="884" y="-164" type="curve" smooth="yes"/>
      <point x="940" y="-164"/>
      <point x="996" y="-134"/>
      <point x="1012" y="-66" type="curve"/>
      <point x="1051" y="-76" type="line"/>
      <point x="1033" y="-161"/>
      <point x="956" y="-204"/>
    </contour>
  </outline>
</glyph>
<glyph name="si_Ndja" format="1">
  <advance width="765"/>
  <unicode hex="0DA6"/>
  <outline>
    <contour>
      <point x="94" y="-8" type="line"/>
      <point x="34" y="69"/>
      <point x="30" y="118"/>
      <point x="30" y="209" type="curve" smooth="yes"/>
      <point x="30" y="349" type="line" smooth="yes"/>
      <point x="30" y="477"/>
      <point x="90" y="518"/>
      <point x="155" y="518" type="curve" smooth="yes"/>
      <point x="173" y="518"/>
      <point x="192" y="515"/>
      <point x="210" y="509" type="curve" smooth="yes"/>
      <point x="210" y="466" type="line"/>
      <point x="189" y="474"/>
      <point x="171" y="478"/>
      <point x="155" y="478" type="curve" smooth="yes"/>
      <point x="92" y="478"/>
      <point x="70" y="420"/>
      <point x="70" y="349" type="curve" smooth="yes"/>
      <point x="70" y="209" type="line" smooth="yes"/>
      <point x="70" y="128"/>
      <point x="72" y="85"/>
      <point x="136" y="8" type="curve"/>
    </contour>
    <component base="si_Ja" xOffset="145"/>
  </outline>
</glyph>
<glyph name="si_Tta" format="1">
  <advance width="551"/>
  <unicode hex="0DA7"/>
  <outline>
    <contour>
      <point x="37" y="270" type="line" smooth="yes"/>
      <point x="37" y="355"/>
      <point x="80" y="470"/>
      <point x="240" y="470" type="curve"/>
      <point x="240" y="430" type="line"/>
      <point x="128" y="430"/>
      <point x="78" y="357"/>
      <point x="78" y="270" type="curve" smooth="yes"/>
      <point x="78" y="200" type="line" smooth="yes"/>
      <point x="78" y="112"/>
      <point x="139" y="40"/>
      <point x="240" y="40" type="curve"/>
      <point x="240" y="0" type="line"/>
      <point x="90" y="0"/>
      <point x="37" y="116"/>
      <point x="37" y="200" type="curve" smooth="yes"/>
    </contour>
    <contour>
      <point x="296" y="0" type="curve"/>
      <point x="296" y="40" type="line"/>
      <point x="409" y="40"/>
      <point x="480" y="95"/>
      <point x="480" y="241" type="curve" smooth="yes"/>
      <point x="480" y="514" type="line" smooth="yes"/>
      <point x="480" y="662"/>
      <point x="409" y="715"/>
      <point x="296" y="715" type="curve"/>
      <point x="296" y="755" type="line"/>
      <point x="455" y="755"/>
      <point x="521" y="671"/>
      <point x="521" y="514" type="curve" smooth="yes"/>
      <point x="521" y="241" type="line" smooth="yes"/>
      <point x="521" y="84"/>
      <point x="455" y="0"/>
    </contour>
    <contour>
      <point x="30" y="563" type="line"/>
      <point x="30" y="674"/>
      <point x="144" y="755"/>
      <point x="240" y="755" type="curve"/>
      <point x="240" y="715" type="line"/>
      <point x="156" y="715"/>
      <point x="69" y="644"/>
      <point x="69" y="553" type="curve"/>
    </contour>
  </outline>
</glyph>
<glyph name="si_Ttha" format="1">
  <advance width="593"/>
  <unicode hex="0DA8"/>
  <outline>
    <contour>
      <point x="184" y="0" type="curve" smooth="yes"/>
      <point x="101" y="0"/>
      <point x="43" y="52"/>
      <point x="43" y="133" type="curve" smooth="yes"/>
      <point x="43" y="307" type="line" smooth="yes"/>
      <point x="43" y="388"/>
      <point x="91" y="480"/>
      <point x="224" y="480" type="curve" smooth="yes"/>
      <point x="263" y="480" type="line"/>
      <point x="263" y="440" type="line"/>
      <point x="224" y="440" type="line" smooth="yes"/>
      <point x="98" y="440"/>
      <point x="85" y="336"/>
      <point x="85" y="301" type="curve" smooth="yes"/>
      <point x="85" y="139" type="line" smooth="yes"/>
      <point x="85" y="104"/>
      <point x="108" y="40"/>
      <point x="184" y="40" type="curve" smooth="yes"/>
      <point x="259" y="40"/>
      <point x="282" y="104"/>
      <point x="282" y="139" type="curve" smooth="yes"/>
      <point x="282" y="192" type="line"/>
      <point x="324" y="192" type="line"/>
      <point x="324" y="139" type="line" smooth="yes"/>
      <point x="324" y="104"/>
      <point x="347" y="40"/>
      <point x="422" y="40" type="curve" smooth="yes"/>
      <point x="498" y="40"/>
      <point x="521" y="104"/>
      <point x="521" y="139" type="curve" smooth="yes"/>
      <point x="521" y="200" type="line"/>
      <point x="563" y="200" type="line"/>
      <point x="563" y="133" type="line" smooth="yes"/>
      <point x="563" y="52"/>
      <point x="505" y="0"/>
      <point x="422" y="0" type="curve" smooth="yes"/>
      <point x="370" y="0"/>
      <point x="327" y="21"/>
      <point x="303" y="58" type="curve"/>
      <point x="279" y="21"/>
      <point x="236" y="0"/>
    </contour>
    <contour>
      <point x="521" y="200" type="line"/>
      <point x="521" y="498" type="line" smooth="yes"/>
      <point x="521" y="643"/>
      <point x="473" y="715"/>
      <point x="336" y="715" type="curve"/>
      <point x="336" y="637" type="line" smooth="yes"/>
      <point x="336" y="537"/>
      <point x="403" y="504"/>
      <point x="466" y="504" type="curve"/>
      <point x="466" y="464" type="line"/>
      <point x="349" y="464"/>
      <point x="296" y="541"/>
      <point x="296" y="637" type="curve" smooth="yes"/>
      <point x="296" y="755" type="line"/>
      <point x="336" y="755" type="line"/>
      <point x="466" y="755"/>
      <point x="563" y="700"/>
      <point x="563" y="517" type="curve" smooth="yes"/>
      <point x="563" y="200" type="line"/>
    </contour>
  </outline>
</glyph>
<glyph name="si_Dda" format="1">
  <advance width="624"/>
  <unicode hex="0DA9"/>
  <outline>
    <contour>
      <point x="215" y="0" type="curve" smooth="yes"/>
      <point x="132" y="0"/>
      <point x="74" y="52"/>
      <point x="74" y="133" type="curve" smooth="yes"/>
      <point x="74" y="235" type="line" smooth="yes"/>
      <point x="74" y="267"/>
      <point x="81" y="298"/>
      <point x="102" y="309" type="curve"/>
      <point x="30" y="309" type="line"/>
      <point x="30" y="349" type="line"/>
      <point x="315" y="349" type="line"/>
      <point x="315" y="408"/>
      <point x="266" y="438"/>
      <point x="218" y="438" type="curve" smooth="yes"/>
      <point x="184" y="438"/>
      <point x="150" y="422"/>
      <point x="136" y="389" type="curve"/>
      <point x="97" y="399" type="line"/>
      <point x="111" y="452"/>
      <point x="164" y="479"/>
      <point x="219" y="479" type="curve" smooth="yes"/>
      <point x="252" y="479"/>
      <point x="286" y="469"/>
      <point x="312" y="448" type="curve" smooth="yes"/>
      <point x="338" y="427"/>
      <point x="355" y="396"/>
      <point x="355" y="354" type="curve" smooth="yes"/>
      <point x="355" y="309" type="line"/>
      <point x="191" y="309" type="line" smooth="yes"/>
      <point x="155" y="309"/>
      <point x="116" y="302"/>
      <point x="116" y="235" type="curve" smooth="yes"/>
      <point x="116" y="139" type="line" smooth="yes"/>
      <point x="116" y="104"/>
      <point x="139" y="40"/>
      <point x="215" y="40" type="curve" smooth="yes"/>
      <point x="290" y="40"/>
      <point x="313" y="104"/>
      <point x="313" y="139" type="curve" smooth="yes"/>
      <point x="313" y="192" type="line"/>
      <point x="355" y="192" type="line"/>
      <point x="355" y="139" type="line" smooth="yes"/>
      <point x="355" y="104"/>
      <point x="378" y="40"/>
      <point x="453" y="40" type="curve" smooth="yes"/>
      <point x="529" y="40"/>
      <point x="552" y="104"/>
      <point x="552" y="139" type="curve" smooth="yes"/>
      <point x="552" y="197" type="line"/>
      <point x="594" y="197" type="line"/>
      <point x="594" y="133" type="line" smooth="yes"/>
      <point x="594" y="52"/>
      <point x="536" y="0"/>
      <point x="453" y="0" type="curve" smooth="yes"/>
      <point x="401" y="0"/>
      <point x="358" y="21"/>
      <point x="334" y="58" type="curve"/>
      <point x="310" y="21"/>
      <point x="267" y="0"/>
    </contour>
    <contour>
      <point x="552" y="197" type="line" smooth="yes"/>
      <point x="552" y="514" type="line" smooth="yes"/>
      <point x="552" y="666"/>
      <point x="480" y="715"/>
      <point x="362" y="715" type="curve"/>
      <point x="362" y="755" type="line"/>
      <point x="526" y="755"/>
      <point x="594" y="675"/>
      <point x="594" y="514" type="curve" smooth="yes"/>
      <point x="594" y="197" type="line" smooth="yes"/>
    </contour>
    <contour>
      <point x="84" y="563" type="line"/>
      <point x="84" y="681"/>
      <point x="202" y="755"/>
      <point x="306" y="755" type="curve"/>
      <point x="306" y="715" type="line"/>
      <point x="213" y="715"/>
      <point x="123" y="651"/>
      <point x="123" y="553" type="curve"/>
    </contour>
  </outline>
</glyph>
<glyph name="si_Ddha" format="1">
  <advance width="624"/>
  <unicode hex="0DAA"/>
  <outline>
    <contour>
      <point x="215" y="0" type="curve" smooth="yes"/>
      <point x="132" y="0"/>
      <point x="74" y="52"/>
      <point x="74" y="133" type="curve" smooth="yes"/>
      <point x="74" y="235" type="line" smooth="yes"/>
      <point x="74" y="267"/>
      <point x="81" y="298"/>
      <point x="102" y="309" type="curve"/>
      <point x="30" y="309" type="line"/>
      <point x="30" y="349" type="line"/>
      <point x="315" y="349" type="line"/>
      <point x="315" y="408"/>
      <point x="266" y="438"/>
      <point x="218" y="438" type="curve" smooth="yes"/>
      <point x="184" y="438"/>
      <point x="150" y="422"/>
      <point x="136" y="389" type="curve"/>
      <point x="97" y="399" type="line"/>
      <point x="111" y="452"/>
      <point x="164" y="479"/>
      <point x="219" y="479" type="curve" smooth="yes"/>
      <point x="252" y="479"/>
      <point x="286" y="469"/>
      <point x="312" y="448" type="curve" smooth="yes"/>
      <point x="338" y="427"/>
      <point x="355" y="396"/>
      <point x="355" y="354" type="curve" smooth="yes"/>
      <point x="355" y="309" type="line"/>
      <point x="191" y="309" type="line" smooth="yes"/>
      <point x="155" y="309"/>
      <point x="116" y="302"/>
      <point x="116" y="235" type="curve" smooth="yes"/>
      <point x="116" y="139" type="line" smooth="yes"/>
      <point x="116" y="104"/>
      <point x="139" y="40"/>
      <point x="215" y="40" type="curve" smooth="yes"/>
      <point x="290" y="40"/>
      <point x="313" y="104"/>
      <point x="313" y="139" type="curve" smooth="yes"/>
      <point x="313" y="192" type="line"/>
      <point x="355" y="192" type="line"/>
      <point x="355" y="139" type="line" smooth="yes"/>
      <point x="355" y="104"/>
      <point x="378" y="40"/>
      <point x="453" y="40" type="curve" smooth="yes"/>
      <point x="529" y="40"/>
      <point x="552" y="104"/>
      <point x="552" y="139" type="curve" smooth="yes"/>
      <point x="552" y="198" type="line"/>
      <point x="594" y="198" type="line"/>
      <point x="594" y="133" type="line" smooth="yes"/>
      <point x="594" y="52"/>
      <point x="536" y="0"/>
      <point x="453" y="0" type="curve" smooth="yes"/>
      <point x="401" y="0"/>
      <point x="358" y="21"/>
      <point x="334" y="58" type="curve"/>
      <point x="310" y="21"/>
      <point x="267" y="0"/>
    </contour>
    <contour>
      <point x="327" y="637" type="curve" smooth="yes"/>
      <point x="327" y="755" type="line"/>
      <point x="367" y="755" type="line"/>
      <point x="497" y="755"/>
      <point x="594" y="700"/>
      <point x="594" y="517" type="curve" smooth="yes"/>
      <point x="594" y="198" type="line"/>
      <point x="552" y="198" type="line"/>
      <point x="552" y="498" type="line" smooth="yes"/>
      <point x="552" y="643"/>
      <point x="504" y="715"/>
      <point x="367" y="715" type="curve"/>
      <point x="367" y="637" type="line" smooth="yes"/>
      <point x="367" y="537"/>
      <point x="434" y="504"/>
      <point x="497" y="504" type="curve"/>
      <point x="497" y="464" type="line"/>
      <point x="380" y="464"/>
      <point x="327" y="541"/>
    </contour>
  </outline>
</glyph>
<glyph name="si_Nndda" format="1">
  <advance width="728"/>
  <unicode hex="0DAC"/>
  <outline>
    <contour>
      <point x="319" y="0" type="curve" smooth="yes"/>
      <point x="236" y="0"/>
      <point x="178" y="52"/>
      <point x="178" y="133" type="curve" smooth="yes"/>
      <point x="178" y="235" type="line" smooth="yes"/>
      <point x="178" y="267"/>
      <point x="185" y="298"/>
      <point x="206" y="309" type="curve"/>
      <point x="134" y="309" type="line"/>
      <point x="134" y="349" type="line"/>
      <point x="419" y="349" type="line"/>
      <point x="419" y="408"/>
      <point x="370" y="438"/>
      <point x="322" y="438" type="curve" smooth="yes"/>
      <point x="288" y="438"/>
      <point x="254" y="422"/>
      <point x="240" y="389" type="curve"/>
      <point x="201" y="399" type="line"/>
      <point x="215" y="452"/>
      <point x="268" y="479"/>
      <point x="323" y="479" type="curve" smooth="yes"/>
      <point x="390" y="479"/>
      <point x="459" y="438"/>
      <point x="459" y="354" type="curve" smooth="yes"/>
      <point x="459" y="309" type="line"/>
      <point x="295" y="309" type="line" smooth="yes"/>
      <point x="259" y="309"/>
      <point x="220" y="302"/>
      <point x="220" y="235" type="curve" smooth="yes"/>
      <point x="220" y="139" type="line" smooth="yes"/>
      <point x="220" y="104"/>
      <point x="243" y="40"/>
      <point x="319" y="40" type="curve" smooth="yes"/>
      <point x="394" y="40"/>
      <point x="417" y="104"/>
      <point x="417" y="139" type="curve" smooth="yes"/>
      <point x="417" y="192" type="line"/>
      <point x="459" y="192" type="line"/>
      <point x="459" y="139" type="line" smooth="yes"/>
      <point x="459" y="104"/>
      <point x="482" y="40"/>
      <point x="557" y="40" type="curve" smooth="yes"/>
      <point x="633" y="40"/>
      <point x="656" y="104"/>
      <point x="656" y="139" type="curve" smooth="yes"/>
      <point x="656" y="282" type="line"/>
      <point x="698" y="282" type="line"/>
      <point x="698" y="133" type="line" smooth="yes"/>
      <point x="698" y="52"/>
      <point x="640" y="0"/>
      <point x="557" y="0" type="curve" smooth="yes"/>
      <point x="505" y="0"/>
      <point x="462" y="21"/>
      <point x="438" y="58" type="curve"/>
      <point x="414" y="21"/>
      <point x="371" y="0"/>
    </contour>
    <contour>
      <point x="83" y="-8" type="line"/>
      <point x="34" y="55"/>
      <point x="30" y="100"/>
      <point x="30" y="163" type="curve" smooth="yes"/>
      <point x="30" y="177"/>
      <point x="30" y="193"/>
      <point x="30" y="290" type="curve" smooth="yes"/>
      <point x="30" y="393"/>
      <point x="87" y="445"/>
      <point x="166" y="445" type="curve" smooth="yes"/>
      <point x="191" y="445"/>
      <point x="218" y="440"/>
      <point x="246" y="429" type="curve" smooth="yes"/>
      <point x="229" y="392" type="line"/>
      <point x="205" y="399"/>
      <point x="185" y="403"/>
      <point x="167" y="403" type="curve" smooth="yes"/>
      <point x="89" y="403"/>
      <point x="70" y="338"/>
      <point x="70" y="290" type="curve" smooth="yes"/>
      <point x="70" y="191"/>
      <point x="70" y="174"/>
      <point x="70" y="159" type="curve" smooth="yes"/>
      <point x="70" y="107"/>
      <point x="75" y="67"/>
      <point x="125" y="8" type="curve"/>
    </contour>
    <contour>
      <point x="656" y="241" type="line" smooth="yes"/>
      <point x="656" y="514" type="line" smooth="yes"/>
      <point x="656" y="666"/>
      <point x="584" y="715"/>
      <point x="466" y="715" type="curve"/>
      <point x="466" y="755" type="line"/>
      <point x="630" y="755"/>
      <point x="698" y="675"/>
      <point x="698" y="514" type="curve" smooth="yes"/>
      <point x="698" y="241" type="line" smooth="yes"/>
    </contour>
    <contour>
      <point x="188" y="563" type="line"/>
      <point x="188" y="681"/>
      <point x="306" y="755"/>
      <point x="410" y="755" type="curve"/>
      <point x="410" y="715" type="line"/>
      <point x="317" y="715"/>
      <point x="227" y="651"/>
      <point x="227" y="553" type="curve"/>
    </contour>
  </outline>
</glyph>
<glyph name="si_Ta" format="1">
  <advance width="760"/>
  <unicode hex="0DAD"/>
  <outline>
    <contour>
      <point x="30" y="196" type="line"/>
      <point x="30" y="246" type="line"/>
      <point x="320" y="494" type="line"/>
      <point x="375" y="537"/>
      <point x="443" y="560"/>
      <point x="508" y="560" type="curve" smooth="yes"/>
      <point x="624" y="560"/>
      <point x="730" y="485"/>
      <point x="730" y="314" type="curve" smooth="yes"/>
      <point x="730" y="192" type="line" smooth="yes"/>
      <point x="730" y="66"/>
      <point x="693" y="-1"/>
      <point x="554" y="-1" type="curve"/>
      <point x="554" y="39" type="line"/>
      <point x="616" y="39"/>
      <point x="690" y="48"/>
      <point x="690" y="192" type="curve" smooth="yes"/>
      <point x="690" y="314" type="line" smooth="yes"/>
      <point x="690" y="454"/>
      <point x="598" y="521"/>
      <point x="499" y="521" type="curve" smooth="yes"/>
      <point x="447" y="521"/>
      <point x="392" y="502"/>
      <point x="349" y="466" type="curve"/>
      <point x="69" y="225" type="line"/>
    </contour>
    <contour>
      <point x="30" y="196" type="curve"/>
      <point x="50" y="234" type="line"/>
      <point x="54" y="235"/>
      <point x="58" y="235"/>
      <point x="61" y="235" type="curve" smooth="yes"/>
      <point x="149" y="235"/>
      <point x="100" y="36"/>
      <point x="314" y="36" type="curve" smooth="yes"/>
      <point x="417" y="36"/>
      <point x="468" y="105"/>
      <point x="468" y="189" type="curve" smooth="yes"/>
      <point x="468" y="275"/>
      <point x="460" y="342"/>
      <point x="325" y="371" type="curve"/>
      <point x="362" y="403" type="line"/>
      <point x="494" y="373"/>
      <point x="508" y="280"/>
      <point x="508" y="189" type="curve" smooth="yes"/>
      <point x="508" y="81"/>
      <point x="446" y="-4"/>
      <point x="314" y="-4" type="curve" smooth="yes"/>
      <point x="193" y="-4"/>
      <point x="144" y="46"/>
      <point x="116" y="97" type="curve" smooth="yes"/>
      <point x="87" y="147"/>
      <point x="80" y="198"/>
      <point x="43" y="198" type="curve" smooth="yes"/>
      <point x="38" y="198"/>
      <point x="34" y="197"/>
    </contour>
    <contour>
      <point x="65" y="452" type="line"/>
      <point x="96" y="533"/>
      <point x="156" y="565"/>
      <point x="214" y="565" type="curve" smooth="yes"/>
      <point x="277" y="565"/>
      <point x="337" y="527"/>
      <point x="352" y="473" type="curve"/>
      <point x="321" y="445" type="line"/>
      <point x="308" y="491"/>
      <point x="262" y="521"/>
      <point x="213" y="521" type="curve" smooth="yes"/>
      <point x="171" y="521"/>
      <point x="127" y="498"/>
      <point x="104" y="440" type="curve"/>
    </contour>
  </outline>
</glyph>
<glyph name="si_Tha" format="1">
  <advance width="544"/>
  <unicode hex="0DAE"/>
  <outline>
    <contour>
      <point x="247" y="637" type="curve" smooth="yes"/>
      <point x="247" y="755" type="line"/>
      <point x="287" y="755" type="line"/>
      <point x="417" y="755"/>
      <point x="514" y="700"/>
      <point x="514" y="517" type="curve" smooth="yes"/>
      <point x="514" y="241" type="line"/>
      <point x="472" y="241" type="line"/>
      <point x="472" y="498" type="line" smooth="yes"/>
      <point x="472" y="643"/>
      <point x="424" y="715"/>
      <point x="287" y="715" type="curve"/>
      <point x="287" y="637" type="line" smooth="yes"/>
      <point x="287" y="537"/>
      <point x="354" y="504"/>
      <point x="417" y="504" type="curve"/>
      <point x="417" y="464" type="line"/>
      <point x="300" y="464"/>
      <point x="247" y="541"/>
    </contour>
    <contour>
      <point x="30" y="270" type="line" smooth="yes"/>
      <point x="30" y="355"/>
      <point x="73" y="470"/>
      <point x="233" y="470" type="curve"/>
      <point x="233" y="430" type="line"/>
      <point x="121" y="430"/>
      <point x="71" y="357"/>
      <point x="71" y="270" type="curve" smooth="yes"/>
      <point x="71" y="200" type="line" smooth="yes"/>
      <point x="71" y="112"/>
      <point x="132" y="40"/>
      <point x="233" y="40" type="curve"/>
      <point x="233" y="0" type="line"/>
      <point x="84" y="0"/>
      <point x="30" y="116"/>
      <point x="30" y="200" type="curve" smooth="yes"/>
    </contour>
    <contour>
      <point x="289" y="0" type="curve"/>
      <point x="289" y="40" type="line"/>
      <point x="402" y="40"/>
      <point x="472" y="95"/>
      <point x="472" y="241" type="curve" smooth="yes"/>
      <point x="514" y="241" type="line" smooth="yes"/>
      <point x="514" y="84"/>
      <point x="448" y="0"/>
    </contour>
  </outline>
</glyph>
<glyph name="si_Da" format="1">
  <advance width="532"/>
  <unicode hex="0DAF"/>
  <outline>
    <contour>
      <point x="361" y="-204" type="curve" smooth="yes"/>
      <point x="276" y="-204"/>
      <point x="193" y="-151"/>
      <point x="193" y="-45" type="curve"/>
      <point x="233" y="-45" type="line"/>
      <point x="233" y="-121"/>
      <point x="299" y="-164"/>
      <point x="365" y="-164" type="curve" smooth="yes"/>
      <point x="421" y="-164"/>
      <point x="477" y="-134"/>
      <point x="493" y="-66" type="curve"/>
      <point x="532" y="-76" type="line"/>
      <point x="514" y="-161"/>
      <point x="437" y="-204"/>
    </contour>
    <contour>
      <point x="30" y="199" type="curve" smooth="yes"/>
      <point x="30" y="335"/>
      <point x="125" y="402"/>
      <point x="256" y="402" type="curve" smooth="yes"/>
      <point x="392" y="402" type="line"/>
      <point x="392" y="493"/>
      <point x="320" y="538"/>
      <point x="243" y="538" type="curve" smooth="yes"/>
      <point x="182" y="538"/>
      <point x="124" y="505"/>
      <point x="107" y="443" type="curve"/>
      <point x="68" y="456" type="line"/>
      <point x="89" y="536"/>
      <point x="163" y="579"/>
      <point x="241" y="579" type="curve" smooth="yes"/>
      <point x="339" y="579"/>
      <point x="432" y="519"/>
      <point x="432" y="389" type="curve" smooth="yes"/>
      <point x="432" y="362" type="line"/>
      <point x="246" y="362" type="line" smooth="yes"/>
      <point x="130" y="362"/>
      <point x="72" y="293"/>
      <point x="72" y="199" type="curve" smooth="yes"/>
      <point x="72" y="108"/>
      <point x="133" y="40"/>
      <point x="257" y="40" type="curve"/>
      <point x="296" y="40" type="line"/>
      <point x="367" y="40"/>
      <point x="427" y="75"/>
      <point x="461" y="148" type="curve"/>
      <point x="498" y="138" type="line"/>
      <point x="456" y="22"/>
      <point x="353" y="0"/>
      <point x="296" y="0" type="curve"/>
      <point x="257" y="0" type="line" smooth="yes"/>
      <point x="137" y="0"/>
      <point x="30" y="60"/>
    </contour>
  </outline>
</glyph>
<glyph name="si_Dha" format="1">
  <advance width="580"/>
  <unicode hex="0DB0"/>
  <outline>
    <contour>
      <point x="171" y="0" type="curve" smooth="yes"/>
      <point x="88" y="0"/>
      <point x="30" y="52"/>
      <point x="30" y="133" type="curve" smooth="yes"/>
      <point x="30" y="307" type="line" smooth="yes"/>
      <point x="30" y="388"/>
      <point x="78" y="480"/>
      <point x="211" y="480" type="curve" smooth="yes"/>
      <point x="250" y="480" type="line"/>
      <point x="250" y="440" type="line"/>
      <point x="211" y="440" type="line" smooth="yes"/>
      <point x="85" y="440"/>
      <point x="72" y="336"/>
      <point x="72" y="301" type="curve" smooth="yes"/>
      <point x="72" y="139" type="line" smooth="yes"/>
      <point x="72" y="104"/>
      <point x="95" y="40"/>
      <point x="171" y="40" type="curve" smooth="yes"/>
      <point x="246" y="40"/>
      <point x="269" y="104"/>
      <point x="269" y="139" type="curve" smooth="yes"/>
      <point x="269" y="192" type="line"/>
      <point x="311" y="192" type="line"/>
      <point x="311" y="139" type="line" smooth="yes"/>
      <point x="311" y="104"/>
      <point x="334" y="40"/>
      <point x="409" y="40" type="curve" smooth="yes"/>
      <point x="485" y="40"/>
      <point x="508" y="104"/>
      <point x="508" y="139" type="curve" smooth="yes"/>
      <point x="508" y="200" type="line"/>
      <point x="550" y="200" type="line"/>
      <point x="550" y="133" type="line" smooth="yes"/>
      <point x="550" y="52"/>
      <point x="492" y="0"/>
      <point x="409" y="0" type="curve" smooth="yes"/>
      <point x="357" y="0"/>
      <point x="314" y="21"/>
      <point x="290" y="58" type="curve"/>
      <point x="266" y="21"/>
      <point x="223" y="0"/>
    </contour>
    <contour>
      <point x="508" y="200" type="line" smooth="yes"/>
      <point x="508" y="514" type="line" smooth="yes"/>
      <point x="508" y="666"/>
      <point x="436" y="715"/>
      <point x="318" y="715" type="curve"/>
      <point x="318" y="755" type="line"/>
      <point x="482" y="755"/>
      <point x="550" y="675"/>
      <point x="550" y="514" type="curve" smooth="yes"/>
      <point x="550" y="200" type="line" smooth="yes"/>
    </contour>
    <contour>
      <point x="40" y="563" type="line"/>
      <point x="40" y="681"/>
      <point x="158" y="755"/>
      <point x="262" y="755" type="curve"/>
      <point x="262" y="715" type="line"/>
      <point x="169" y="715"/>
      <point x="79" y="651"/>
      <point x="79" y="553" type="curve"/>
    </contour>
  </outline>
</glyph>
<glyph name="si_Nda" format="1">
  <advance width="672"/>
  <unicode hex="0DB3"/>
  <outline>
    <contour>
      <point x="397" y="0" type="line" smooth="yes"/>
      <point x="277" y="0"/>
      <point x="170" y="60"/>
      <point x="170" y="199" type="curve" smooth="yes"/>
      <point x="170" y="335"/>
      <point x="265" y="402"/>
      <point x="396" y="402" type="curve" smooth="yes"/>
      <point x="532" y="402" type="line"/>
      <point x="532" y="493"/>
      <point x="460" y="538"/>
      <point x="383" y="538" type="curve" smooth="yes"/>
      <point x="322" y="538"/>
      <point x="264" y="505"/>
      <point x="247" y="443" type="curve"/>
      <point x="208" y="456" type="line"/>
      <point x="229" y="536"/>
      <point x="303" y="579"/>
      <point x="381" y="579" type="curve" smooth="yes"/>
      <point x="479" y="579"/>
      <point x="572" y="519"/>
      <point x="572" y="389" type="curve" smooth="yes"/>
      <point x="572" y="362" type="line"/>
      <point x="386" y="362" type="line" smooth="yes"/>
      <point x="270" y="362"/>
      <point x="212" y="293"/>
      <point x="212" y="199" type="curve" smooth="yes"/>
      <point x="212" y="108"/>
      <point x="273" y="40"/>
      <point x="397" y="40" type="curve"/>
      <point x="436" y="40" type="line"/>
      <point x="507" y="40"/>
      <point x="567" y="75"/>
      <point x="601" y="148" type="curve"/>
      <point x="638" y="138" type="line"/>
      <point x="596" y="22"/>
      <point x="493" y="0"/>
      <point x="436" y="0" type="curve"/>
    </contour>
    <contour>
      <point x="94" y="-8" type="line"/>
      <point x="34" y="69"/>
      <point x="30" y="118"/>
      <point x="30" y="209" type="curve" smooth="yes"/>
      <point x="30" y="297" type="line" smooth="yes"/>
      <point x="30" y="434"/>
      <point x="110" y="497"/>
      <point x="190" y="497" type="curve" smooth="yes"/>
      <point x="206" y="497"/>
      <point x="222" y="494"/>
      <point x="238" y="489" type="curve" smooth="yes"/>
      <point x="238" y="446" type="line"/>
      <point x="220" y="452"/>
      <point x="204" y="455"/>
      <point x="189" y="455" type="curve" smooth="yes"/>
      <point x="108" y="455"/>
      <point x="70" y="372"/>
      <point x="70" y="297" type="curve" smooth="yes"/>
      <point x="70" y="209" type="line" smooth="yes"/>
      <point x="70" y="128"/>
      <point x="72" y="85"/>
      <point x="136" y="8" type="curve"/>
    </contour>
    <contour>
      <point x="501" y="-204" type="curve" smooth="yes"/>
      <point x="416" y="-204"/>
      <point x="333" y="-151"/>
      <point x="333" y="-45" type="curve"/>
      <point x="373" y="-45" type="line"/>
      <point x="373" y="-121"/>
      <point x="439" y="-164"/>
      <point x="505" y="-164" type="curve" smooth="yes"/>
      <point x="561" y="-164"/>
      <point x="617" y="-134"/>
      <point x="633" y="-66" type="curve"/>
      <point x="672" y="-76" type="line"/>
      <point x="654" y="-161"/>
      <point x="577" y="-204"/>
    </contour>
  </outline>
</glyph>
<glyph name="si_Pha" format="1">
  <advance width="548"/>
  <unicode hex="0DB5"/>
  <outline>
    <contour>
      <point x="237" y="0" type="line"/>
      <point x="118" y="0"/>
      <point x="30" y="86"/>
      <point x="30" y="181" type="curve" smooth="yes"/>
      <point x="30" y="231"/>
      <point x="41" y="268"/>
      <point x="67" y="296" type="curve" smooth="yes"/>
      <point x="110" y="342"/>
      <point x="176" y="349"/>
      <point x="271" y="349" type="curve"/>
      <point x="271" y="408"/>
      <point x="222" y="438"/>
      <point x="174" y="438" type="curve" smooth="yes"/>
      <point x="140" y="438"/>
      <point x="106" y="422"/>
      <point x="92" y="389" type="curve"/>
      <point x="53" y="399" type="line"/>
      <point x="67" y="452"/>
      <point x="120" y="479"/>
      <point x="175" y="479" type="curve" smooth="yes"/>
      <point x="242" y="479"/>
      <point x="311" y="438"/>
      <point x="311" y="354" type="curve" smooth="yes"/>
      <point x="311" y="309" type="line"/>
      <point x="262" y="309" type="line" smooth="yes"/>
      <point x="124" y="309"/>
      <point x="70" y="286"/>
      <point x="70" y="181" type="curve" smooth="yes"/>
      <point x="70" y="112"/>
      <point x="130" y="40"/>
      <point x="237" y="40" type="curve"/>
    </contour>
    <contour>
      <point x="251" y="637" type="curve" smooth="yes"/>
      <point x="251" y="755" type="line"/>
      <point x="291" y="755" type="line"/>
      <point x="421" y="755"/>
      <point x="518" y="700"/>
      <point x="518" y="517" type="curve" smooth="yes"/>
      <point x="518" y="241" type="line"/>
      <point x="476" y="241" type="line"/>
      <point x="476" y="498" type="line" smooth="yes"/>
      <point x="476" y="643"/>
      <point x="428" y="715"/>
      <point x="291" y="715" type="curve"/>
      <point x="291" y="637" type="line" smooth="yes"/>
      <point x="291" y="537"/>
      <point x="358" y="504"/>
      <point x="421" y="504" type="curve"/>
      <point x="421" y="464" type="line"/>
      <point x="304" y="464"/>
      <point x="251" y="541"/>
    </contour>
    <contour>
      <point x="293" y="0" type="curve"/>
      <point x="293" y="40" type="line"/>
      <point x="406" y="40"/>
      <point x="476" y="95"/>
      <point x="476" y="241" type="curve" smooth="yes"/>
      <point x="518" y="241" type="line" smooth="yes"/>
      <point x="518" y="84"/>
      <point x="452" y="0"/>
    </contour>
  </outline>
</glyph>
<glyph name="si_Ba" format="1">
  <advance width="586"/>
  <unicode hex="0DB6"/>
  <outline>
    <contour>
      <point x="30" y="177" type="curve" smooth="yes"/>
      <point x="30" y="284" type="line" smooth="yes"/>
      <point x="30" y="390"/>
      <point x="100" y="443"/>
      <point x="170" y="443" type="curve" smooth="yes"/>
      <point x="240" y="443"/>
      <point x="309" y="391"/>
      <point x="309" y="284" type="curve" smooth="yes"/>
      <point x="309" y="141" type="line" smooth="yes"/>
      <point x="309" y="74"/>
      <point x="361" y="41"/>
      <point x="412" y="41" type="curve" smooth="yes"/>
      <point x="463" y="41"/>
      <point x="514" y="74"/>
      <point x="514" y="141" type="curve"/>
      <point x="514" y="264" type="line"/>
      <point x="556" y="264" type="line"/>
      <point x="556" y="144" type="line"/>
      <point x="556" y="46"/>
      <point x="483" y="-4"/>
      <point x="411" y="-4" type="curve" smooth="yes"/>
      <point x="339" y="-4"/>
      <point x="268" y="44"/>
      <point x="268" y="141" type="curve" smooth="yes"/>
      <point x="268" y="284" type="line" smooth="yes"/>
      <point x="268" y="360"/>
      <point x="219" y="398"/>
      <point x="170" y="398" type="curve" smooth="yes"/>
      <point x="120" y="398"/>
      <point x="71" y="360"/>
      <point x="71" y="284" type="curve" smooth="yes"/>
      <point x="71" y="177" type="line" smooth="yes"/>
      <point x="71" y="65"/>
      <point x="123" y="40"/>
      <point x="211" y="40" type="curve"/>
      <point x="211" y="0" type="line"/>
      <point x="91" y="0"/>
      <point x="30" y="45"/>
    </contour>
    <contour>
      <point x="514" y="264" type="line" smooth="yes"/>
      <point x="514" y="514" type="line" smooth="yes"/>
      <point x="514" y="662"/>
      <point x="444" y="715"/>
      <point x="331" y="715" type="curve"/>
      <point x="320" y="715" type="line"/>
      <point x="320" y="755" type="line"/>
      <point x="331" y="755" type="line"/>
      <point x="490" y="755"/>
      <point x="556" y="671"/>
      <point x="556" y="514" type="curve" smooth="yes"/>
      <point x="556" y="264" type="line" smooth="yes"/>
    </contour>
    <contour>
      <point x="41" y="563" type="line"/>
      <point x="41" y="681"/>
      <point x="159" y="755"/>
      <point x="263" y="755" type="curve"/>
      <point x="263" y="715" type="line"/>
      <point x="170" y="715"/>
      <point x="80" y="651"/>
      <point x="80" y="553" type="curve"/>
    </contour>
  </outline>
</glyph>
<glyph name="si_Bha" format="1">
  <advance width="743"/>
  <unicode hex="0DB7"/>
  <outline>
    <contour>
      <point x="333" y="311" type="line"/>
      <point x="448" y="311"/>
      <point x="479" y="233"/>
      <point x="479" y="164" type="curve" smooth="yes"/>
      <point x="479" y="145" type="line" smooth="yes"/>
      <point x="479" y="43"/>
      <point x="412" y="-8"/>
      <point x="312" y="-8" type="curve"/>
      <point x="312" y="32" type="line"/>
      <point x="392" y="32"/>
      <point x="439" y="66"/>
      <point x="439" y="152" type="curve" smooth="yes"/>
      <point x="439" y="200"/>
      <point x="431" y="271"/>
      <point x="346" y="271" type="curve" smooth="yes"/>
      <point x="292" y="271" type="line"/>
      <point x="292" y="360" type="line" smooth="yes"/>
      <point x="292" y="478"/>
      <point x="349" y="564"/>
      <point x="471" y="564" type="curve"/>
      <point x="471" y="524" type="line"/>
      <point x="364" y="524"/>
      <point x="333" y="443"/>
      <point x="333" y="361" type="curve" smooth="yes"/>
    </contour>
    <contour>
      <point x="527" y="-8" type="curve"/>
      <point x="527" y="32" type="line"/>
      <point x="619" y="32"/>
      <point x="673" y="98"/>
      <point x="673" y="216" type="curve" smooth="yes"/>
      <point x="673" y="340" type="line" smooth="yes"/>
      <point x="673" y="458"/>
      <point x="622" y="524"/>
      <point x="527" y="524" type="curve"/>
      <point x="527" y="564" type="line"/>
      <point x="646" y="564"/>
      <point x="713" y="476"/>
      <point x="713" y="340" type="curve" smooth="yes"/>
      <point x="713" y="216" type="line" smooth="yes"/>
      <point x="713" y="80"/>
      <point x="646" y="-8"/>
    </contour>
    <contour>
      <point x="256" y="-8" type="line"/>
      <point x="137" y="-8"/>
      <point x="70" y="80"/>
      <point x="70" y="196" type="curve" smooth="yes"/>
      <point x="70" y="250" type="line" smooth="yes"/>
      <point x="70" y="316"/>
      <point x="89" y="364"/>
      <point x="124" y="394" type="curve"/>
      <point x="30" y="394" type="line"/>
      <point x="30" y="434" type="line"/>
      <point x="295" y="434" type="line"/>
      <point x="295" y="493"/>
      <point x="246" y="523"/>
      <point x="198" y="523" type="curve" smooth="yes"/>
      <point x="164" y="523"/>
      <point x="130" y="507"/>
      <point x="116" y="474" type="curve"/>
      <point x="77" y="484" type="line"/>
      <point x="91" y="537"/>
      <point x="144" y="564"/>
      <point x="199" y="564" type="curve" smooth="yes"/>
      <point x="266" y="564"/>
      <point x="335" y="523"/>
      <point x="335" y="439" type="curve" smooth="yes"/>
      <point x="325" y="394" type="line"/>
      <point x="256" y="394" type="line" smooth="yes"/>
      <point x="161" y="394"/>
      <point x="110" y="358"/>
      <point x="110" y="250" type="curve" smooth="yes"/>
      <point x="110" y="196" type="line" smooth="yes"/>
      <point x="110" y="98"/>
      <point x="164" y="32"/>
      <point x="256" y="32" type="curve"/>
    </contour>
  </outline>
</glyph>
<glyph name="si_Ma" format="1">
  <advance width="570"/>
  <unicode hex="0DB8"/>
  <outline>
    <contour>
      <point x="30" y="252" type="curve" smooth="yes"/>
      <point x="30" y="336" type="line" smooth="yes"/>
      <point x="30" y="434"/>
      <point x="88" y="479"/>
      <point x="142" y="479" type="curve" smooth="yes"/>
      <point x="189" y="479"/>
      <point x="234" y="444"/>
      <point x="234" y="380" type="curve" smooth="yes"/>
      <point x="234" y="315" type="line" smooth="yes"/>
      <point x="234" y="289"/>
      <point x="255" y="276"/>
      <point x="275" y="276" type="curve" smooth="yes"/>
      <point x="296" y="276"/>
      <point x="317" y="289"/>
      <point x="317" y="315" type="curve" smooth="yes"/>
      <point x="317" y="469" type="line"/>
      <point x="357" y="469" type="line"/>
      <point x="357" y="310" type="line" smooth="yes"/>
      <point x="357" y="257"/>
      <point x="316" y="230"/>
      <point x="275" y="230" type="curve" smooth="yes"/>
      <point x="235" y="230"/>
      <point x="194" y="257"/>
      <point x="194" y="310" type="curve" smooth="yes"/>
      <point x="194" y="380" type="line" smooth="yes"/>
      <point x="194" y="415"/>
      <point x="167" y="438"/>
      <point x="138" y="438" type="curve" smooth="yes"/>
      <point x="105" y="438"/>
      <point x="70" y="409"/>
      <point x="70" y="336" type="curve" smooth="yes"/>
      <point x="70" y="252" type="line" smooth="yes"/>
      <point x="70" y="54"/>
      <point x="203" y="40"/>
      <point x="243" y="40" type="curve"/>
      <point x="243" y="0" type="line"/>
      <point x="67" y="0"/>
      <point x="30" y="143"/>
    </contour>
    <contour>
      <point x="299" y="0" type="curve"/>
      <point x="299" y="40" type="line"/>
      <point x="412" y="40"/>
      <point x="499" y="95"/>
      <point x="499" y="241" type="curve" smooth="yes"/>
      <point x="499" y="514" type="line" smooth="yes"/>
      <point x="499" y="662"/>
      <point x="412" y="715"/>
      <point x="299" y="715" type="curve"/>
      <point x="299" y="755" type="line"/>
      <point x="458" y="755"/>
      <point x="540" y="671"/>
      <point x="540" y="514" type="curve" smooth="yes"/>
      <point x="540" y="241" type="line" smooth="yes"/>
      <point x="540" y="84"/>
      <point x="458" y="0"/>
    </contour>
    <contour>
      <point x="30" y="563" type="line"/>
      <point x="30" y="674"/>
      <point x="147" y="755"/>
      <point x="243" y="755" type="curve"/>
      <point x="243" y="715" type="line"/>
      <point x="159" y="715"/>
      <point x="69" y="644"/>
      <point x="69" y="553" type="curve"/>
    </contour>
    <contour>
      <point x="320" y="-3" type="move" name="si_rakar"/>
    </contour>
  </outline>
</glyph>
<glyph name="si_Mba" format="1">
  <advance width="583"/>
  <unicode hex="0DB9"/>
  <outline>
    <contour>
      <point x="185" y="-11" type="curve" smooth="yes"/>
      <point x="90" y="-11"/>
      <point x="30" y="65"/>
      <point x="30" y="167" type="curve" smooth="yes"/>
      <point x="30" y="366" type="line" smooth="yes"/>
      <point x="30" y="441"/>
      <point x="86" y="480"/>
      <point x="142" y="480" type="curve" smooth="yes"/>
      <point x="194" y="480"/>
      <point x="246" y="444"/>
      <point x="246" y="370" type="curve" smooth="yes"/>
      <point x="246" y="315" type="line" smooth="yes"/>
      <point x="246" y="289"/>
      <point x="267" y="276"/>
      <point x="287" y="276" type="curve" smooth="yes"/>
      <point x="308" y="276"/>
      <point x="329" y="289"/>
      <point x="329" y="315" type="curve" smooth="yes"/>
      <point x="329" y="469" type="line"/>
      <point x="369" y="469" type="line"/>
      <point x="369" y="310" type="line" smooth="yes"/>
      <point x="369" y="257"/>
      <point x="328" y="230"/>
      <point x="287" y="230" type="curve" smooth="yes"/>
      <point x="247" y="230"/>
      <point x="206" y="257"/>
      <point x="206" y="310" type="curve" smooth="yes"/>
      <point x="206" y="370" type="line" smooth="yes"/>
      <point x="206" y="416"/>
      <point x="173" y="439"/>
      <point x="139" y="439" type="curve" smooth="yes"/>
      <point x="105" y="439"/>
      <point x="71" y="415"/>
      <point x="71" y="366" type="curve" smooth="yes"/>
      <point x="71" y="167" type="line" smooth="yes"/>
      <point x="71" y="102"/>
      <point x="113" y="29"/>
      <point x="185" y="29" type="curve" smooth="yes"/>
      <point x="216" y="29"/>
      <point x="223" y="42"/>
      <point x="223" y="69" type="curve" smooth="yes"/>
      <point x="223" y="100"/>
      <point x="190" y="204"/>
      <point x="272" y="204" type="curve" smooth="yes"/>
      <point x="311" y="204" type="line" smooth="yes"/>
      <point x="394" y="204"/>
      <point x="360" y="100"/>
      <point x="360" y="69" type="curve" smooth="yes"/>
      <point x="360" y="42"/>
      <point x="367" y="29"/>
      <point x="398" y="29" type="curve" smooth="yes"/>
      <point x="470" y="29"/>
      <point x="513" y="102"/>
      <point x="513" y="167" type="curve" smooth="yes"/>
      <point x="513" y="514" type="line" smooth="yes"/>
      <point x="513" y="662"/>
      <point x="425" y="715"/>
      <point x="312" y="715" type="curve"/>
      <point x="312" y="755" type="line"/>
      <point x="471" y="755"/>
      <point x="553" y="671"/>
      <point x="553" y="514" type="curve" smooth="yes"/>
      <point x="553" y="167" type="line" smooth="yes"/>
      <point x="553" y="65"/>
      <point x="493" y="-11"/>
      <point x="398" y="-11" type="curve" smooth="yes"/>
      <point x="343" y="-11"/>
      <point x="321" y="17"/>
      <point x="321" y="58" type="curve" smooth="yes"/>
      <point x="321" y="78"/>
      <point x="328" y="119"/>
      <point x="328" y="138" type="curve" smooth="yes"/>
      <point x="328" y="171"/>
      <point x="309" y="171"/>
      <point x="291" y="171" type="curve" smooth="yes"/>
      <point x="273" y="171"/>
      <point x="255" y="170"/>
      <point x="255" y="138" type="curve" smooth="yes"/>
      <point x="255" y="119"/>
      <point x="262" y="78"/>
      <point x="262" y="58" type="curve" smooth="yes"/>
      <point x="262" y="17"/>
      <point x="240" y="-11"/>
    </contour>
    <contour>
      <point x="74" y="553" type="curve"/>
      <point x="35" y="563" type="line"/>
      <point x="35" y="681"/>
      <point x="153" y="755"/>
      <point x="257" y="755" type="curve"/>
      <point x="257" y="715" type="line"/>
      <point x="164" y="715"/>
      <point x="74" y="651"/>
    </contour>
  </outline>
</glyph>
<glyph name="si_Ya" format="1">
  <advance width="630"/>
  <unicode hex="0DBA"/>
  <outline>
    <contour>
      <point x="30" y="140" type="curve" smooth="yes"/>
      <point x="30" y="192" type="line"/>
      <point x="70" y="192" type="line"/>
      <point x="70" y="141" type="line" smooth="yes"/>
      <point x="70" y="74"/>
      <point x="119" y="40"/>
      <point x="182" y="40" type="curve" smooth="yes"/>
      <point x="246" y="40"/>
      <point x="295" y="74"/>
      <point x="295" y="141" type="curve" smooth="yes"/>
      <point x="295" y="192" type="line"/>
      <point x="335" y="192" type="line"/>
      <point x="335" y="141" type="line" smooth="yes"/>
      <point x="335" y="74"/>
      <point x="384" y="40"/>
      <point x="448" y="40" type="curve" smooth="yes"/>
      <point x="511" y="40"/>
      <point x="560" y="74"/>
      <point x="560" y="141" type="curve" smooth="yes"/>
      <point x="560" y="192" type="line"/>
      <point x="600" y="192" type="line"/>
      <point x="600" y="140" type="line" smooth="yes"/>
      <point x="600" y="56"/>
      <point x="532" y="0"/>
      <point x="448" y="0" type="curve" smooth="yes"/>
      <point x="391" y="0"/>
      <point x="341" y="25"/>
      <point x="315" y="67" type="curve"/>
      <point x="289" y="25"/>
      <point x="239" y="0"/>
      <point x="182" y="0" type="curve" smooth="yes"/>
      <point x="98" y="0"/>
      <point x="30" y="56"/>
    </contour>
    <contour>
      <point x="295" y="362" type="curve"/>
      <point x="295" y="415" type="line" smooth="yes"/>
      <point x="295" y="539"/>
      <point x="393" y="564"/>
      <point x="444" y="564" type="curve" smooth="yes"/>
      <point x="508" y="564"/>
      <point x="568" y="542"/>
      <point x="594" y="477" type="curve"/>
      <point x="555" y="464" type="line"/>
      <point x="542" y="500"/>
      <point x="507" y="524"/>
      <point x="444" y="524" type="curve" smooth="yes"/>
      <point x="358" y="524"/>
      <point x="335" y="480"/>
      <point x="335" y="402" type="curve"/>
      <point x="479" y="402" type="line" smooth="yes"/>
      <point x="590" y="402"/>
      <point x="600" y="347"/>
      <point x="600" y="298" type="curve" smooth="yes"/>
      <point x="600" y="242" type="line"/>
      <point x="560" y="242" type="line"/>
      <point x="560" y="298" type="line" smooth="yes"/>
      <point x="560" y="360"/>
      <point x="522" y="362"/>
      <point x="488" y="362" type="curve" smooth="yes"/>
      <point x="485" y="362"/>
      <point x="483" y="362"/>
    </contour>
    <contour>
      <point x="30" y="242" type="line"/>
      <point x="30" y="340" type="line" smooth="yes"/>
      <point x="30" y="493"/>
      <point x="132" y="563"/>
      <point x="248" y="563" type="curve" smooth="yes"/>
      <point x="265" y="563" type="line"/>
      <point x="265" y="523" type="line"/>
      <point x="246" y="523" type="line" smooth="yes"/>
      <point x="133" y="523"/>
      <point x="70" y="451"/>
      <point x="70" y="341" type="curve" smooth="yes"/>
      <point x="70" y="242" type="line"/>
    </contour>
  </outline>
</glyph>
<glyph name="si_La" format="1">
  <advance width="606"/>
  <unicode hex="0DBD"/>
  <outline>
    <contour>
      <point x="276" y="235" type="curve" smooth="yes"/>
      <point x="276" y="235"/>
      <point x="276" y="293"/>
      <point x="276" y="300" type="curve"/>
      <point x="319" y="300" type="line"/>
      <point x="319" y="235" type="line" smooth="yes"/>
      <point x="319" y="171"/>
      <point x="368" y="138"/>
      <point x="419" y="138" type="curve" smooth="yes"/>
      <point x="475" y="138"/>
      <point x="534" y="178"/>
      <point x="534" y="263" type="curve" smooth="yes"/>
      <point x="534" y="336" type="line" smooth="yes"/>
      <point x="534" y="493"/>
      <point x="443" y="530"/>
      <point x="330" y="530" type="curve"/>
      <point x="330" y="570" type="line"/>
      <point x="439" y="570"/>
      <point x="576" y="546"/>
      <point x="576" y="336" type="curve" smooth="yes"/>
      <point x="576" y="263" type="line" smooth="yes"/>
      <point x="576" y="149"/>
      <point x="497" y="95"/>
      <point x="420" y="95" type="curve" smooth="yes"/>
      <point x="347" y="95"/>
      <point x="276" y="143"/>
    </contour>
    <contour>
      <point x="270" y="-169" type="line"/>
      <point x="164" y="-169"/>
      <point x="30" y="-125"/>
      <point x="30" y="76" type="curve" smooth="yes"/>
      <point x="30" y="326" type="line" smooth="yes"/>
      <point x="30" y="526"/>
      <point x="164" y="570"/>
      <point x="270" y="570" type="curve"/>
      <point x="270" y="530" type="line"/>
      <point x="161" y="530"/>
      <point x="73" y="473"/>
      <point x="73" y="326" type="curve" smooth="yes"/>
      <point x="73" y="76" type="line" smooth="yes"/>
      <point x="73" y="-72"/>
      <point x="161" y="-129"/>
      <point x="270" y="-129" type="curve"/>
    </contour>
    <contour>
      <point x="203" y="291" type="line"/>
      <point x="203" y="331" type="line"/>
      <point x="393" y="331" type="line"/>
      <point x="393" y="291" type="line"/>
    </contour>
    <contour>
      <point x="330" y="-129" type="curve"/>
      <point x="330" y="-169" type="line"/>
      <point x="427" y="-169"/>
      <point x="519" y="-138"/>
      <point x="563" y="-11" type="curve"/>
      <point x="524" y="0" type="line"/>
      <point x="491" y="-90"/>
      <point x="429" y="-129"/>
    </contour>
  </outline>
</glyph>
<glyph name="si_Va" format="1">
  <advance width="551"/>
  <unicode hex="0DC0"/>
  <outline>
    <contour>
      <point x="240" y="0" type="line"/>
      <point x="121" y="0"/>
      <point x="33" y="86"/>
      <point x="33" y="181" type="curve" smooth="yes"/>
      <point x="33" y="231"/>
      <point x="44" y="268"/>
      <point x="70" y="296" type="curve" smooth="yes"/>
      <point x="113" y="342"/>
      <point x="179" y="349"/>
      <point x="274" y="349" type="curve"/>
      <point x="274" y="408"/>
      <point x="225" y="438"/>
      <point x="177" y="438" type="curve" smooth="yes"/>
      <point x="143" y="438"/>
      <point x="109" y="422"/>
      <point x="95" y="389" type="curve"/>
      <point x="56" y="399" type="line"/>
      <point x="70" y="452"/>
      <point x="123" y="479"/>
      <point x="178" y="479" type="curve" smooth="yes"/>
      <point x="245" y="479"/>
      <point x="314" y="438"/>
      <point x="314" y="354" type="curve" smooth="yes"/>
      <point x="314" y="309" type="line"/>
      <point x="265" y="309" type="line" smooth="yes"/>
      <point x="127" y="309"/>
      <point x="73" y="286"/>
      <point x="73" y="181" type="curve" smooth="yes"/>
      <point x="73" y="112"/>
      <point x="133" y="40"/>
      <point x="240" y="40" type="curve"/>
    </contour>
    <contour>
      <point x="296" y="0" type="curve"/>
      <point x="296" y="40" type="line"/>
      <point x="409" y="40"/>
      <point x="480" y="95"/>
      <point x="480" y="241" type="curve" smooth="yes"/>
      <point x="480" y="514" type="line" smooth="yes"/>
      <point x="480" y="662"/>
      <point x="409" y="715"/>
      <point x="296" y="715" type="curve"/>
      <point x="296" y="755" type="line"/>
      <point x="455" y="755"/>
      <point x="521" y="671"/>
      <point x="521" y="514" type="curve" smooth="yes"/>
      <point x="521" y="241" type="line" smooth="yes"/>
      <point x="521" y="84"/>
      <point x="455" y="0"/>
    </contour>
    <contour>
      <point x="30" y="563" type="line"/>
      <point x="30" y="674"/>
      <point x="144" y="755"/>
      <point x="240" y="755" type="curve"/>
      <point x="240" y="715" type="line"/>
      <point x="156" y="715"/>
      <point x="69" y="644"/>
      <point x="69" y="553" type="curve"/>
    </contour>
  </outline>
</glyph>
<glyph name="si_Ssa" format="1">
  <advance width="620"/>
  <unicode hex="0DC2"/>
  <outline>
    <contour>
      <point x="31" y="477" type="line"/>
      <point x="57" y="542"/>
      <point x="117" y="564"/>
      <point x="181" y="564" type="curve" smooth="yes"/>
      <point x="218" y="564"/>
      <point x="279" y="551"/>
      <point x="310" y="498" type="curve"/>
      <point x="341" y="551"/>
      <point x="402" y="564"/>
      <point x="439" y="564" type="curve" smooth="yes"/>
      <point x="503" y="564"/>
      <point x="563" y="542"/>
      <point x="589" y="477" type="curve"/>
      <point x="550" y="464" type="line"/>
      <point x="537" y="500"/>
      <point x="502" y="524"/>
      <point x="439" y="524" type="curve" smooth="yes"/>
      <point x="361" y="524"/>
      <point x="330" y="469"/>
      <point x="330" y="415" type="curve" smooth="yes"/>
      <point x="330" y="379" type="line"/>
      <point x="290" y="379" type="line"/>
      <point x="290" y="415" type="line" smooth="yes"/>
      <point x="290" y="469"/>
      <point x="259" y="524"/>
      <point x="181" y="524" type="curve" smooth="yes"/>
      <point x="118" y="524"/>
      <point x="83" y="500"/>
      <point x="70" y="464" type="curve"/>
    </contour>
    <contour>
      <point x="279" y="-6" type="line" smooth="yes"/>
      <point x="102" y="-6"/>
      <point x="30" y="50"/>
      <point x="30" y="193" type="curve"/>
      <point x="70" y="193" type="line"/>
      <point x="70" y="61"/>
      <point x="146" y="34"/>
      <point x="279" y="34" type="curve" smooth="yes"/>
      <point x="341" y="34" type="line" smooth="yes"/>
      <point x="474" y="34"/>
      <point x="550" y="62"/>
      <point x="550" y="193" type="curve"/>
      <point x="590" y="193" type="line"/>
      <point x="590" y="50"/>
      <point x="518" y="-6"/>
      <point x="341" y="-6" type="curve" smooth="yes"/>
    </contour>
    <contour>
      <point x="30" y="242" type="line"/>
      <point x="30" y="364"/>
      <point x="97" y="402"/>
      <point x="194" y="402" type="curve" smooth="yes"/>
      <point x="419" y="402" type="line" smooth="yes"/>
      <point x="527" y="402"/>
      <point x="590" y="368"/>
      <point x="590" y="242" type="curve"/>
      <point x="550" y="242" type="line"/>
      <point x="550" y="320"/>
      <point x="530" y="362"/>
      <point x="421" y="362" type="curve" smooth="yes"/>
      <point x="195" y="362" type="line" smooth="yes"/>
      <point x="86" y="362"/>
      <point x="70" y="308"/>
      <point x="70" y="242" type="curve"/>
    </contour>
    <contour>
      <point x="282" y="168" type="line"/>
      <point x="282" y="258"/>
      <point x="340" y="337"/>
      <point x="444" y="367" type="curve"/>
      <point x="510" y="367" type="line"/>
      <point x="402" y="318"/>
      <point x="322" y="277"/>
      <point x="322" y="168" type="curve"/>
    </contour>
  </outline>
</glyph>
<glyph name="si_Sa" format="1">
  <advance width="677"/>
  <unicode hex="0DC3"/>
  <outline>
    <contour>
      <point x="77" y="140" type="curve" smooth="yes"/>
      <point x="77" y="193" type="line"/>
      <point x="117" y="193" type="line"/>
      <point x="117" y="141" type="line" smooth="yes"/>
      <point x="117" y="74"/>
      <point x="166" y="40"/>
      <point x="229" y="40" type="curve" smooth="yes"/>
      <point x="293" y="40"/>
      <point x="342" y="74"/>
      <point x="342" y="141" type="curve" smooth="yes"/>
      <point x="342" y="193" type="line"/>
      <point x="382" y="193" type="line"/>
      <point x="382" y="141" type="line" smooth="yes"/>
      <point x="382" y="74"/>
      <point x="431" y="40"/>
      <point x="495" y="40" type="curve" smooth="yes"/>
      <point x="558" y="40"/>
      <point x="607" y="74"/>
      <point x="607" y="141" type="curve" smooth="yes"/>
      <point x="607" y="193" type="line"/>
      <point x="647" y="193" type="line"/>
      <point x="647" y="140" type="line" smooth="yes"/>
      <point x="647" y="56"/>
      <point x="579" y="0"/>
      <point x="495" y="0" type="curve" smooth="yes"/>
      <point x="438" y="0"/>
      <point x="388" y="25"/>
      <point x="362" y="67" type="curve"/>
      <point x="336" y="25"/>
      <point x="286" y="0"/>
      <point x="229" y="0" type="curve" smooth="yes"/>
      <point x="145" y="0"/>
      <point x="77" y="56"/>
    </contour>
    <contour>
      <point x="84" y="477" type="line"/>
      <point x="110" y="542"/>
      <point x="170" y="564"/>
      <point x="234" y="564" type="curve" smooth="yes"/>
      <point x="271" y="564"/>
      <point x="332" y="551"/>
      <point x="363" y="498" type="curve"/>
      <point x="394" y="551"/>
      <point x="455" y="564"/>
      <point x="492" y="564" type="curve" smooth="yes"/>
      <point x="556" y="564"/>
      <point x="616" y="542"/>
      <point x="642" y="477" type="curve"/>
      <point x="603" y="464" type="line"/>
      <point x="590" y="500"/>
      <point x="555" y="524"/>
      <point x="492" y="524" type="curve" smooth="yes"/>
      <point x="414" y="524"/>
      <point x="383" y="469"/>
      <point x="383" y="415" type="curve" smooth="yes"/>
      <point x="383" y="379" type="line"/>
      <point x="343" y="379" type="line"/>
      <point x="343" y="415" type="line" smooth="yes"/>
      <point x="343" y="469"/>
      <point x="312" y="524"/>
      <point x="234" y="524" type="curve" smooth="yes"/>
      <point x="171" y="524"/>
      <point x="136" y="500"/>
      <point x="123" y="464" type="curve"/>
    </contour>
    <contour>
      <point x="30" y="362" type="line"/>
      <point x="30" y="402" type="line"/>
      <point x="531" y="402" type="line"/>
      <point x="642" y="402"/>
      <point x="647" y="337"/>
      <point x="647" y="288" type="curve" smooth="yes"/>
      <point x="647" y="242" type="line"/>
      <point x="607" y="242" type="line"/>
      <point x="607" y="288" type="line" smooth="yes"/>
      <point x="607" y="355"/>
      <point x="568" y="362"/>
      <point x="532" y="362" type="curve"/>
      <point x="192" y="362" type="line"/>
      <point x="156" y="362"/>
      <point x="117" y="355"/>
      <point x="117" y="288" type="curve" smooth="yes"/>
      <point x="117" y="242" type="line"/>
      <point x="77" y="242" type="line"/>
      <point x="77" y="288" type="line" smooth="yes"/>
      <point x="77" y="320"/>
      <point x="84" y="351"/>
      <point x="105" y="362" type="curve"/>
    </contour>
  </outline>
</glyph>
<glyph name="si_Ha" format="1">
  <advance width="703"/>
  <unicode hex="0DC4"/>
  <outline>
    <contour>
      <point x="293" y="311" type="line"/>
      <point x="408" y="311"/>
      <point x="439" y="233"/>
      <point x="439" y="164" type="curve" smooth="yes"/>
      <point x="439" y="145" type="line" smooth="yes"/>
      <point x="439" y="43"/>
      <point x="372" y="-8"/>
      <point x="272" y="-8" type="curve"/>
      <point x="272" y="32" type="line"/>
      <point x="352" y="32"/>
      <point x="399" y="66"/>
      <point x="399" y="152" type="curve" smooth="yes"/>
      <point x="399" y="200"/>
      <point x="391" y="271"/>
      <point x="306" y="271" type="curve" smooth="yes"/>
      <point x="252" y="271" type="line"/>
      <point x="252" y="360" type="line" smooth="yes"/>
      <point x="252" y="478"/>
      <point x="309" y="564"/>
      <point x="431" y="564" type="curve"/>
      <point x="431" y="524" type="line"/>
      <point x="324" y="524"/>
      <point x="293" y="443"/>
      <point x="293" y="361" type="curve" smooth="yes"/>
    </contour>
    <contour>
      <point x="487" y="-8" type="curve"/>
      <point x="487" y="32" type="line"/>
      <point x="579" y="32"/>
      <point x="633" y="98"/>
      <point x="633" y="216" type="curve" smooth="yes"/>
      <point x="633" y="340" type="line" smooth="yes"/>
      <point x="633" y="458"/>
      <point x="582" y="524"/>
      <point x="487" y="524" type="curve"/>
      <point x="487" y="564" type="line"/>
      <point x="606" y="564"/>
      <point x="673" y="476"/>
      <point x="673" y="340" type="curve" smooth="yes"/>
      <point x="673" y="216" type="line" smooth="yes"/>
      <point x="673" y="80"/>
      <point x="606" y="-8"/>
    </contour>
    <contour>
      <point x="216" y="-8" type="line"/>
      <point x="97" y="-8"/>
      <point x="30" y="80"/>
      <point x="30" y="196" type="curve" smooth="yes"/>
      <point x="30" y="250" type="line" smooth="yes"/>
      <point x="30" y="374"/>
      <point x="85" y="434"/>
      <point x="215" y="434" type="curve"/>
      <point x="255" y="434" type="line"/>
      <point x="255" y="493"/>
      <point x="206" y="523"/>
      <point x="158" y="523" type="curve" smooth="yes"/>
      <point x="124" y="523"/>
      <point x="90" y="507"/>
      <point x="76" y="474" type="curve"/>
      <point x="37" y="484" type="line"/>
      <point x="51" y="537"/>
      <point x="104" y="564"/>
      <point x="159" y="564" type="curve" smooth="yes"/>
      <point x="226" y="564"/>
      <point x="295" y="523"/>
      <point x="295" y="439" type="curve" smooth="yes"/>
      <point x="295" y="394" type="line"/>
      <point x="216" y="394" type="line" smooth="yes"/>
      <point x="121" y="394"/>
      <point x="70" y="358"/>
      <point x="70" y="250" type="curve" smooth="yes"/>
      <point x="70" y="196" type="line" smooth="yes"/>
      <point x="70" y="98"/>
      <point x="124" y="32"/>
      <point x="216" y="32" type="curve"/>
    </contour>
  </outline>
</glyph>
<glyph name="si_Lla" format="1">
  <advance width="609"/>
  <unicode hex="0DC5"/>
  <outline>
    <contour>
      <point x="108" y="415" type="line"/>
      <point x="108" y="437" type="line"/>
      <point x="108" y="519"/>
      <point x="156" y="564"/>
      <point x="232" y="564" type="curve" smooth="yes"/>
      <point x="261" y="564"/>
      <point x="302" y="551"/>
      <point x="325" y="516" type="curve"/>
      <point x="347" y="551"/>
      <point x="388" y="564"/>
      <point x="418" y="564" type="curve" smooth="yes"/>
      <point x="496" y="564"/>
      <point x="540" y="519"/>
      <point x="540" y="437" type="curve"/>
      <point x="500" y="437" type="line"/>
      <point x="500" y="496"/>
      <point x="468" y="522"/>
      <point x="421" y="522" type="curve" smooth="yes"/>
      <point x="380" y="522"/>
      <point x="345" y="492"/>
      <point x="345" y="436" type="curve"/>
      <point x="305" y="436" type="line"/>
      <point x="305" y="492"/>
      <point x="270" y="522"/>
      <point x="228" y="522" type="curve" smooth="yes"/>
      <point x="178" y="522"/>
      <point x="148" y="496"/>
      <point x="148" y="425" type="curve"/>
    </contour>
    <contour>
      <point x="30" y="77" type="curve" smooth="yes"/>
      <point x="30" y="194" type="line" smooth="yes"/>
      <point x="30" y="322"/>
      <point x="132" y="388"/>
      <point x="215" y="388" type="curve" smooth="yes"/>
      <point x="540" y="388" type="line"/>
      <point x="540" y="348" type="line"/>
      <point x="218" y="348" type="line" smooth="yes"/>
      <point x="149" y="348"/>
      <point x="72" y="297"/>
      <point x="72" y="195" type="curve" smooth="yes"/>
      <point x="72" y="77" type="line" smooth="yes"/>
      <point x="72" y="-85"/>
      <point x="184" y="-129"/>
      <point x="283" y="-129" type="curve" smooth="yes"/>
      <point x="283" y="-170" type="line" smooth="yes"/>
      <point x="132" y="-170"/>
      <point x="30" y="-90"/>
    </contour>
    <contour>
      <point x="115" y="323" type="curve"/>
      <point x="156" y="349" type="line"/>
      <point x="156" y="302"/>
      <point x="160" y="139"/>
      <point x="315" y="139" type="curve" smooth="yes"/>
      <point x="367" y="139" type="line" smooth="yes"/>
      <point x="432" y="139"/>
      <point x="478" y="168"/>
      <point x="499" y="216" type="curve"/>
      <point x="540" y="205" type="line"/>
      <point x="515" y="146"/>
      <point x="463" y="99"/>
      <point x="367" y="99" type="curve" smooth="yes"/>
      <point x="315" y="99" type="line" smooth="yes"/>
      <point x="107" y="99"/>
      <point x="115" y="323"/>
    </contour>
    <contour>
      <point x="344" y="-130" type="curve"/>
      <point x="344" y="-170" type="line"/>
      <point x="443" y="-170"/>
      <point x="560" y="-140"/>
      <point x="589" y="-1" type="curve"/>
      <point x="549" y="10" type="line"/>
      <point x="523" y="-102"/>
      <point x="436" y="-130"/>
    </contour>
  </outline>
</glyph>
<glyph name="si_Fa" format="1">
  <advance width="630"/>
  <unicode hex="0DC6"/>
  <outline>
    <contour>
      <point x="30" y="242" type="line"/>
      <point x="30" y="424" type="line" smooth="yes"/>
      <point x="30" y="508"/>
      <point x="98" y="564"/>
      <point x="182" y="564" type="curve" smooth="yes"/>
      <point x="239" y="564"/>
      <point x="289" y="539"/>
      <point x="315" y="497" type="curve"/>
      <point x="341" y="539"/>
      <point x="391" y="564"/>
      <point x="448" y="564" type="curve" smooth="yes"/>
      <point x="532" y="564"/>
      <point x="600" y="508"/>
      <point x="600" y="424" type="curve" smooth="yes"/>
      <point x="600" y="242" type="line"/>
      <point x="560" y="242" type="line"/>
      <point x="560" y="423" type="line" smooth="yes"/>
      <point x="560" y="490"/>
      <point x="511" y="524"/>
      <point x="448" y="524" type="curve" smooth="yes"/>
      <point x="384" y="524"/>
      <point x="335" y="490"/>
      <point x="335" y="423" type="curve" smooth="yes"/>
      <point x="335" y="242" type="line"/>
      <point x="295" y="242" type="line"/>
      <point x="295" y="423" type="line" smooth="yes"/>
      <point x="295" y="490"/>
      <point x="246" y="524"/>
      <point x="182" y="524" type="curve" smooth="yes"/>
      <point x="119" y="524"/>
      <point x="70" y="490"/>
      <point x="70" y="423" type="curve" smooth="yes"/>
      <point x="70" y="242" type="line"/>
    </contour>
    <contour>
      <point x="30" y="192" type="curve" smooth="yes"/>
      <point x="70" y="192" type="line" smooth="yes"/>
      <point x="70" y="128"/>
      <point x="103" y="40"/>
      <point x="225" y="40" type="curve"/>
      <point x="225" y="0" type="line"/>
      <point x="86" y="0"/>
      <point x="30" y="92"/>
    </contour>
    <contour>
      <point x="405" y="0" type="curve"/>
      <point x="405" y="40" type="line"/>
      <point x="527" y="40"/>
      <point x="560" y="128"/>
      <point x="560" y="192" type="curve" smooth="yes"/>
      <point x="600" y="192" type="line" smooth="yes"/>
      <point x="600" y="92"/>
      <point x="544" y="0"/>
    </contour>
  </outline>
</glyph>
<glyph name="si_MatraAae" format="1">
  <advance width="277"/>
  <unicode hex="0DD1"/>
  <outline>
    <contour>
      <point x="50" y="206" type="line" smooth="yes"/>
      <point x="50" y="270"/>
      <point x="64" y="304"/>
      <point x="179" y="383" type="curve"/>
      <point x="247" y="383" type="line"/>
      <point x="92" y="275"/>
      <point x="90" y="251"/>
      <point x="90" y="206" type="curve" smooth="yes"/>
      <point x="90" y="160" type="line" smooth="yes"/>
      <point x="90" y="111"/>
      <point x="93" y="40"/>
      <point x="215" y="40" type="curve" smooth="yes"/>
      <point x="224" y="40"/>
      <point x="243" y="40"/>
      <point x="247" y="40" type="curve"/>
      <point x="247" y="0" type="line"/>
      <point x="240" y="0"/>
      <point x="223" y="0"/>
      <point x="216" y="0" type="curve" smooth="yes"/>
      <point x="119" y="0"/>
      <point x="50" y="33"/>
      <point x="50" y="160" type="curve" smooth="yes"/>
    </contour>
    <contour>
      <point x="50" y="423" type="line"/>
      <point x="184" y="534" type="line"/>
      <point x="247" y="534" type="line"/>
      <point x="112" y="423" type="line"/>
    </contour>
    <contour>
      <point x="50" y="534" type="line"/>
      <point x="50" y="574" type="line"/>
      <point x="247" y="574" type="line"/>
      <point x="247" y="534" type="line"/>
    </contour>
    <contour>
      <point x="50" y="383" type="line"/>
      <point x="50" y="423" type="line"/>
      <point x="247" y="423" type="line"/>
      <point x="247" y="383" type="line"/>
    </contour>
  </outline>
</glyph>
<glyph name="si_MatraIi" format="1">
  <advance width="0"/>
  <unicode hex="0DD3"/>
  <outline>
    <contour>
      <point x="-151" y="574" type="curve" smooth="yes"/>
      <point x="-201" y="574"/>
      <point x="-241" y="614"/>
      <point x="-241" y="664" type="curve" smooth="yes"/>
      <point x="-241" y="714"/>
      <point x="-201" y="754"/>
      <point x="-151" y="754" type="curve" smooth="yes"/>
      <point x="-101" y="754"/>
      <point x="-61" y="714"/>
      <point x="-61" y="664" type="curve" smooth="yes"/>
      <point x="-61" y="614"/>
      <point x="-101" y="574"/>
    </contour>
    <contour>
      <point x="-580" y="602" type="line"/>
      <point x="-580" y="630" type="line"/>
      <point x="-580" y="723"/>
      <point x="-504" y="789"/>
      <point x="-404" y="789" type="curve"/>
      <point x="-223" y="789" type="line"/>
      <point x="-138" y="789"/>
      <point x="-61" y="760"/>
      <point x="-61" y="664" type="curve"/>
      <point x="-106" y="663" type="line"/>
      <point x="-106" y="741"/>
      <point x="-192" y="749"/>
      <point x="-239" y="749" type="curve"/>
      <point x="-388" y="749" type="line"/>
      <point x="-531" y="749"/>
      <point x="-540" y="654"/>
      <point x="-540" y="602" type="curve"/>
    </contour>
  </outline>
</glyph>
<glyph name="si_MatraUu" format="1">
  <advance width="0"/>
  <unicode hex="0DD6"/>
  <outline>
    <contour>
      <point x="-516" y="-122" type="line"/>
      <point x="-485" y="-149"/>
      <point x="-461" y="-158"/>
      <point x="-440" y="-158" type="curve" smooth="yes"/>
      <point x="-399" y="-158"/>
      <point x="-370" y="-122"/>
      <point x="-321" y="-122" type="curve"/>
      <point x="-321" y="-164" type="line"/>
      <point x="-369" y="-164"/>
      <point x="-399" y="-199"/>
      <point x="-441" y="-199" type="curve" smooth="yes"/>
      <point x="-462" y="-199"/>
      <point x="-486" y="-191"/>
      <point x="-516" y="-164" type="curve"/>
    </contour>
    <contour>
      <point x="-100" y="-205" type="line"/>
      <point x="-100" y="123" type="line"/>
      <point x="-60" y="123" type="line"/>
      <point x="-60" y="-205" type="line"/>
    </contour>
    <contour>
      <point x="-265" y="-122" type="line"/>
      <point x="-256" y="-122"/>
      <point x="-189" y="-117"/>
      <point x="-100" y="-161" type="curve"/>
      <point x="-100" y="-205" type="line"/>
      <point x="-188" y="-160"/>
      <point x="-249" y="-164"/>
      <point x="-265" y="-164" type="curve"/>
    </contour>
  </outline>
</glyph>
<glyph name="si_MatraR" format="1">
  <advance width="314"/>
  <unicode hex="0DD8"/>
  <outline>
    <contour>
      <point x="146" y="0" type="curve" smooth="yes"/>
      <point x="71" y="0"/>
      <point x="9" y="62"/>
      <point x="9" y="137" type="curve" smooth="yes"/>
      <point x="9" y="212"/>
      <point x="71" y="274"/>
      <point x="146" y="274" type="curve" smooth="yes"/>
      <point x="187" y="274" type="line"/>
      <point x="187" y="234" type="line"/>
      <point x="146" y="234" type="line" smooth="yes"/>
      <point x="93" y="234"/>
      <point x="49" y="190"/>
      <point x="49" y="137" type="curve" smooth="yes"/>
      <point x="49" y="84"/>
      <point x="93" y="40"/>
      <point x="146" y="40" type="curve" smooth="yes"/>
      <point x="199" y="40"/>
      <point x="243" y="84"/>
      <point x="243" y="137" type="curve" smooth="yes"/>
      <point x="243" y="399" type="line"/>
      <point x="243" y="478"/>
      <point x="210" y="524"/>
      <point x="158" y="524" type="curve"/>
      <point x="68" y="524" type="line"/>
      <point x="68" y="564" type="line"/>
      <point x="156" y="564" type="line"/>
      <point x="246" y="564"/>
      <point x="283" y="498"/>
      <point x="283" y="399" type="curve"/>
      <point x="283" y="137" type="line" smooth="yes"/>
      <point x="283" y="62"/>
      <point x="221" y="0"/>
    </contour>
  </outline>
</glyph>
<glyph name="si_MatraLs" format="1">
  <advance width="380"/>
  <unicode hex="0DDF"/>
  <outline>
    <contour>
      <point x="181" y="-8" type="curve" smooth="yes"/>
      <point x="96" y="-8"/>
      <point x="10" y="45"/>
      <point x="10" y="149" type="curve" smooth="yes"/>
      <point x="10" y="202" type="line"/>
      <point x="50" y="202" type="line"/>
      <point x="50" y="148" type="line"/>
      <point x="50" y="75"/>
      <point x="116" y="37"/>
      <point x="182" y="37" type="curve" smooth="yes"/>
      <point x="246" y="37"/>
      <point x="310" y="73"/>
      <point x="310" y="148" type="curve"/>
      <point x="310" y="466" type="line"/>
      <point x="310" y="504"/>
      <point x="283" y="523"/>
      <point x="255" y="523" type="curve" smooth="yes"/>
      <point x="228" y="523"/>
      <point x="200" y="504"/>
      <point x="200" y="466" type="curve"/>
      <point x="200" y="414" type="line"/>
      <point x="200" y="347"/>
      <point x="152" y="313"/>
      <point x="105" y="313" type="curve" smooth="yes"/>
      <point x="57" y="313"/>
      <point x="10" y="346"/>
      <point x="10" y="414" type="curve"/>
      <point x="10" y="564" type="line"/>
      <point x="50" y="564" type="line"/>
      <point x="50" y="413" type="line"/>
      <point x="50" y="375"/>
      <point x="78" y="356"/>
      <point x="105" y="356" type="curve" smooth="yes"/>
      <point x="133" y="356"/>
      <point x="160" y="375"/>
      <point x="160" y="413" type="curve"/>
      <point x="160" y="465" type="line"/>
      <point x="160" y="533"/>
      <point x="207" y="566"/>
      <point x="255" y="566" type="curve" smooth="yes"/>
      <point x="302" y="566"/>
      <point x="350" y="532"/>
      <point x="350" y="465" type="curve"/>
      <point x="350" y="149" type="line"/>
      <point x="350" y="44"/>
      <point x="266" y="-8"/>
    </contour>
  </outline>
</glyph>
<glyph name="si_kundaliya" format="1">
  <advance width="1465"/>
  <unicode hex="0DF4"/>
  <outline>
    <contour>
      <point x="613" y="453" type="curve"/>
      <point x="650" y="434" type="line"/>
      <point x="469" y="80"/>
      <point x="440" y="0"/>
      <point x="270" y="0" type="curve"/>
      <point x="150" y="0" type="line"/>
      <point x="150" y="40" type="line"/>
      <point x="270" y="40" type="line"/>
      <point x="406" y="40"/>
      <point x="433" y="94"/>
    </contour>
    <contour>
      <point x="731" y="456" type="line"/>
      <point x="768" y="437" type="line"/>
      <point x="553" y="0" type="line"/>
      <point x="515" y="20" type="line"/>
    </contour>
    <contour>
      <point x="801" y="361" type="line"/>
      <point x="838" y="342" type="line"/>
      <point x="669" y="0" type="line"/>
      <point x="631" y="20" type="line"/>
    </contour>
    <contour>
      <point x="787" y="0" type="line"/>
      <point x="750" y="21" type="line"/>
      <point x="872" y="270" type="line"/>
      <point x="1005" y="167"/>
      <point x="1138" y="40"/>
      <point x="1276" y="40" type="curve" smooth="yes"/>
      <point x="1375" y="40" type="line"/>
      <point x="1375" y="0" type="line"/>
      <point x="1274" y="0" type="line" smooth="yes"/>
      <point x="1128" y="0"/>
      <point x="1009" y="105"/>
      <point x="886" y="204" type="curve"/>
    </contour>
  </outline>
</glyph>
<glyph name="zwj" format="1">
  <advance width="0"/>
  <unicode hex="200D"/>
  <outline>
    <contour>
      <point x="-20" y="9" type="line"/>
      <point x="-20" y="629" type="line"/>
      <point x="20" y="629" type="line"/>
      <point x="20" y="9" type="line"/>
    </contour>
    <contour>
      <point x="-145" y="489" type="line"/>
      <point x="-167" y="522" type="line"/>
      <point x="156" y="745" type="line"/>
      <point x="179" y="712" type="line"/>
    </contour>
    <contour>
      <point x="168" y="522" type="line"/>
      <point x="145" y="489" type="line"/>
      <point x="-178" y="712" type="line"/>
      <point x="-155" y="745" type="line"/>
    </contour>
  </outline>
</glyph>
<glyph name="fraction" format="1">
  <advance width="468"/>
  <unicode hex="2044"/>
  <outline>
    <contour>
      <point x="0" y="0" type="line"/>
      <point x="432" y="700" type="line"/>
      <point x="468" y="700" type="line"/>
      <point x="36" y="0" type="line"/>
    </contour>
  </outline>
</glyph>
<glyph name="product" format="1">
  <advance width="458"/>
  <unicode hex="220F"/>
  <outline>
    <contour>
      <point x="2" y="659" type="line"/>
      <point x="2" y="694" type="line"/>
      <point x="456" y="694" type="line"/>
      <point x="456" y="659" type="line"/>
      <point x="394" y="659" type="line"/>
      <point x="394" y="-140" type="line"/>
      <point x="357" y="-140" type="line"/>
      <point x="357" y="659" type="line"/>
      <point x="100" y="659" type="line"/>
      <point x="100" y="-140" type="line"/>
      <point x="63" y="-140" type="line"/>
      <point x="63" y="659" type="line"/>
    </contour>
  </outline>
</glyph>
<glyph name="si_B.halant" format="1">
  <advance width="586"/>
  <outline>
    <contour>
      <point x="30" y="177" type="curve" smooth="yes"/>
      <point x="30" y="284" type="line" smooth="yes"/>
      <point x="30" y="390"/>
      <point x="100" y="443"/>
      <point x="170" y="443" type="curve" smooth="yes"/>
      <point x="240" y="443"/>
      <point x="309" y="391"/>
      <point x="309" y="284" type="curve" smooth="yes"/>
      <point x="309" y="141" type="line" smooth="yes"/>
      <point x="309" y="74"/>
      <point x="361" y="41"/>
      <point x="412" y="41" type="curve" smooth="yes"/>
      <point x="463" y="41"/>
      <point x="514" y="74"/>
      <point x="514" y="141" type="curve"/>
      <point x="514" y="264" type="line"/>
      <point x="556" y="264" type="line"/>
      <point x="556" y="144" type="line"/>
      <point x="556" y="46"/>
      <point x="483" y="-4"/>
      <point x="411" y="-4" type="curve" smooth="yes"/>
      <point x="339" y="-4"/>
      <point x="268" y="44"/>
      <point x="268" y="141" type="curve" smooth="yes"/>
      <point x="268" y="284" type="line" smooth="yes"/>
      <point x="268" y="360"/>
      <point x="219" y="398"/>
      <point x="170" y="398" type="curve" smooth="yes"/>
      <point x="120" y="398"/>
      <point x="71" y="360"/>
      <point x="71" y="284" type="curve" smooth="yes"/>
      <point x="71" y="177" type="line" smooth="yes"/>
      <point x="71" y="65"/>
      <point x="123" y="40"/>
      <point x="211" y="40" type="curve"/>
      <point x="211" y="0" type="line"/>
      <point x="91" y="0"/>
      <point x="30" y="45"/>
    </contour>
    <contour>
      <point x="41" y="612" type="line"/>
      <point x="41" y="652" type="line"/>
      <point x="72" y="652" type="line"/>
      <point x="58" y="670"/>
      <point x="51" y="692"/>
      <point x="51" y="715" type="curve" smooth="yes"/>
      <point x="51" y="767"/>
      <point x="88" y="819"/>
      <point x="162" y="819" type="curve" smooth="yes"/>
      <point x="256" y="819" type="line"/>
      <point x="256" y="779" type="line"/>
      <point x="152" y="779" type="line" smooth="yes"/>
      <point x="110" y="779"/>
      <point x="89" y="747"/>
      <point x="89" y="715" type="curve" smooth="yes"/>
      <point x="89" y="684"/>
      <point x="110" y="652"/>
      <point x="152" y="652" type="curve" smooth="yes"/>
      <point x="331" y="652" type="line"/>
      <point x="331" y="612" type="line"/>
    </contour>
    <contour>
      <point x="514" y="264" type="line" smooth="yes"/>
      <point x="514" y="411" type="line" smooth="yes"/>
      <point x="514" y="559"/>
      <point x="444" y="612"/>
      <point x="331" y="612" type="curve"/>
      <point x="331" y="652" type="line"/>
      <point x="490" y="652"/>
      <point x="556" y="568"/>
      <point x="556" y="411" type="curve" smooth="yes"/>
      <point x="556" y="411"/>
      <point x="556" y="264"/>
      <point x="556" y="264" type="curve" smooth="yes"/>
    </contour>
    <contour>
      <point x="494" y="673" type="line"/>
      <point x="494" y="770"/>
      <point x="446" y="779"/>
      <point x="401" y="779" type="curve" smooth="yes"/>
      <point x="312" y="779" type="line"/>
      <point x="312" y="819" type="line"/>
      <point x="401" y="819" type="line" smooth="yes"/>
      <point x="479" y="819"/>
      <point x="534" y="776"/>
      <point x="534" y="673" type="curve"/>
    </contour>
  </outline>
</glyph>
<glyph name="si_BIi" format="1">
  <advance width="586"/>
  <outline>
    <contour>
      <point x="30" y="177" type="curve" smooth="yes"/>
      <point x="30" y="284" type="line" smooth="yes"/>
      <point x="30" y="390"/>
      <point x="100" y="443"/>
      <point x="170" y="443" type="curve" smooth="yes"/>
      <point x="240" y="443"/>
      <point x="309" y="391"/>
      <point x="309" y="284" type="curve" smooth="yes"/>
      <point x="309" y="141" type="line" smooth="yes"/>
      <point x="309" y="74"/>
      <point x="361" y="41"/>
      <point x="412" y="41" type="curve" smooth="yes"/>
      <point x="463" y="41"/>
      <point x="514" y="74"/>
      <point x="514" y="141" type="curve"/>
      <point x="514" y="264" type="line"/>
      <point x="556" y="264" type="line"/>
      <point x="556" y="144" type="line"/>
      <point x="556" y="46"/>
      <point x="483" y="-4"/>
      <point x="411" y="-4" type="curve" smooth="yes"/>
      <point x="339" y="-4"/>
      <point x="268" y="44"/>
      <point x="268" y="141" type="curve" smooth="yes"/>
      <point x="268" y="284" type="line" smooth="yes"/>
      <point x="268" y="360"/>
      <point x="219" y="398"/>
      <point x="170" y="398" type="curve" smooth="yes"/>
      <point x="120" y="398"/>
      <point x="71" y="360"/>
      <point x="71" y="284" type="curve" smooth="yes"/>
      <point x="71" y="177" type="line" smooth="yes"/>
      <point x="71" y="65"/>
      <point x="123" y="40"/>
      <point x="211" y="40" type="curve"/>
      <point x="211" y="0" type="line"/>
      <point x="91" y="0"/>
      <point x="30" y="45"/>
    </contour>
    <contour>
      <point x="163" y="612" type="line" smooth="yes"/>
      <point x="89" y="612"/>
      <point x="52" y="663"/>
      <point x="52" y="715" type="curve" smooth="yes"/>
      <point x="52" y="767"/>
      <point x="89" y="819"/>
      <point x="163" y="819" type="curve" smooth="yes"/>
      <point x="256" y="819" type="line"/>
      <point x="256" y="779" type="line"/>
      <point x="153" y="779" type="line" smooth="yes"/>
      <point x="111" y="779"/>
      <point x="90" y="747"/>
      <point x="90" y="715" type="curve" smooth="yes"/>
      <point x="90" y="684"/>
      <point x="111" y="652"/>
      <point x="153" y="652" type="curve" smooth="yes"/>
      <point x="331" y="652" type="line"/>
      <point x="331" y="612" type="line"/>
    </contour>
    <contour>
      <point x="458" y="604" type="curve" smooth="yes"/>
      <point x="408" y="604"/>
      <point x="368" y="644"/>
      <point x="368" y="694" type="curve" smooth="yes"/>
      <point x="368" y="730"/>
      <point x="389" y="761"/>
      <point x="419" y="775" type="curve"/>
      <point x="401" y="778"/>
      <point x="384" y="779"/>
      <point x="370" y="779" type="curve" smooth="yes"/>
      <point x="312" y="779" type="line"/>
      <point x="312" y="819" type="line"/>
      <point x="386" y="819" type="line" smooth="yes"/>
      <point x="471" y="819"/>
      <point x="548" y="790"/>
      <point x="548" y="694" type="curve" smooth="yes"/>
      <point x="548" y="644"/>
      <point x="508" y="604"/>
    </contour>
    <contour>
      <point x="514" y="264" type="line" smooth="yes"/>
      <point x="514" y="411" type="line" smooth="yes"/>
      <point x="514" y="559"/>
      <point x="444" y="612"/>
      <point x="331" y="612" type="curve"/>
      <point x="331" y="652" type="line"/>
      <point x="490" y="652"/>
      <point x="556" y="568"/>
      <point x="556" y="411" type="curve" smooth="yes"/>
      <point x="556" y="411"/>
      <point x="556" y="264"/>
      <point x="556" y="264" type="curve" smooth="yes"/>
    </contour>
  </outline>
</glyph>
<glyph name="si_BR.halant" format="1">
  <advance width="586"/>
  <outline>
    <contour>
      <point x="315" y="-225" type="curve"/>
      <point x="315" y="-185" type="line"/>
      <point x="440" y="-185"/>
      <point x="510" y="-120"/>
      <point x="510" y="-47" type="curve" smooth="yes"/>
      <point x="510" y="-15"/>
      <point x="499" y="12"/>
      <point x="476" y="32" type="curve"/>
      <point x="506" y="61" type="line"/>
      <point x="537" y="33"/>
      <point x="551" y="-4"/>
      <point x="551" y="-47" type="curve" smooth="yes"/>
      <point x="551" y="-161"/>
      <point x="451" y="-225"/>
    </contour>
    <contour>
      <point x="259" y="-225" type="line"/>
      <point x="117" y="-225"/>
      <point x="27" y="-162"/>
      <point x="27" y="-48" type="curve"/>
      <point x="67" y="-48" type="line"/>
      <point x="67" y="-160"/>
      <point x="188" y="-185"/>
      <point x="259" y="-185" type="curve"/>
    </contour>
    <component base="si_B.halant"/>
  </outline>
</glyph>
<glyph name="si_BRa" format="1">
  <advance width="586"/>
  <outline>
    <contour>
      <point x="320" y="-225" type="curve"/>
      <point x="320" y="-185" type="line"/>
      <point x="445" y="-185"/>
      <point x="515" y="-120"/>
      <point x="515" y="-47" type="curve" smooth="yes"/>
      <point x="515" y="-15"/>
      <point x="504" y="12"/>
      <point x="481" y="32" type="curve"/>
      <point x="511" y="61" type="line"/>
      <point x="542" y="33"/>
      <point x="556" y="-4"/>
      <point x="556" y="-47" type="curve" smooth="yes"/>
      <point x="556" y="-161"/>
      <point x="456" y="-225"/>
    </contour>
    <contour>
      <point x="264" y="-225" type="line"/>
      <point x="122" y="-225"/>
      <point x="32" y="-162"/>
      <point x="32" y="-48" type="curve"/>
      <point x="72" y="-48" type="line"/>
      <point x="72" y="-160"/>
      <point x="193" y="-185"/>
      <point x="264" y="-185" type="curve"/>
    </contour>
    <component base="si_Ba"/>
  </outline>
</glyph>
<glyph name="si_BUu" format="1">
  <advance width="586"/>
  <outline>
    <contour>
      <point x="51" y="-142" type="line"/>
      <point x="77" y="-156"/>
      <point x="98" y="-161"/>
      <point x="117" y="-161" type="curve" smooth="yes"/>
      <point x="166" y="-161"/>
      <point x="199" y="-128"/>
      <point x="264" y="-128" type="curve"/>
      <point x="264" y="-170" type="line"/>
      <point x="199" y="-170"/>
      <point x="165" y="-201"/>
      <point x="116" y="-201" type="curve" smooth="yes"/>
      <point x="97" y="-201"/>
      <point x="77" y="-196"/>
      <point x="51" y="-184" type="curve"/>
    </contour>
    <contour>
      <point x="320" y="-128" type="line"/>
      <point x="349" y="-128"/>
      <point x="419" y="-131"/>
      <point x="498" y="-161" type="curve"/>
      <point x="498" y="-205" type="line"/>
      <point x="414" y="-171"/>
      <point x="348" y="-170"/>
      <point x="320" y="-170" type="curve"/>
    </contour>
    <contour>
      <point x="498" y="83" type="line"/>
      <point x="538" y="83" type="line"/>
      <point x="538" y="-205" type="line"/>
      <point x="498" y="-205" type="line"/>
    </contour>
    <component base="si_Ba"/>
  </outline>
</glyph>
<glyph name="si_BhRIi" format="1">
  <advance width="743"/>
  <outline>
    <contour>
      <point x="429" y="-194" type="line"/>
      <point x="440" y="-194" type="line" smooth="yes"/>
      <point x="588" y="-194"/>
      <point x="713" y="-60"/>
      <point x="652" y="66" type="curve"/>
      <point x="686" y="89" type="line"/>
      <point x="758" y="-38"/>
      <point x="651" y="-234"/>
      <point x="441" y="-234" type="curve" smooth="yes"/>
      <point x="429" y="-234" type="line"/>
    </contour>
    <contour>
      <point x="374" y="-234" type="line"/>
      <point x="356" y="-234" type="line" smooth="yes"/>
      <point x="231" y="-234"/>
      <point x="87" y="-165"/>
      <point x="87" y="-37" type="curve"/>
      <point x="127" y="-37" type="line"/>
      <point x="127" y="-156"/>
      <point x="291" y="-194"/>
      <point x="355" y="-194" type="curve" smooth="yes"/>
      <point x="374" y="-194" type="line"/>
    </contour>
    <component base="si_BhIi"/>
  </outline>
</glyph>
<glyph name="si_BhUu" format="1">
  <advance width="743"/>
  <outline>
    <contour>
      <point x="685" y="-205" type="line" smooth="yes"/>
      <point x="629" y="-205"/>
      <point x="587" y="-163"/>
      <point x="587" y="-105" type="curve" smooth="yes"/>
      <point x="587" y="-64" type="line" smooth="yes"/>
      <point x="587" y="-28"/>
      <point x="608" y="-6"/>
      <point x="620" y="0" type="curve"/>
      <point x="569" y="0" type="line"/>
      <point x="569" y="35" type="line"/>
      <point x="698" y="115" type="line"/>
      <point x="569" y="115" type="line"/>
      <point x="569" y="150" type="line"/>
      <point x="766" y="150" type="line"/>
      <point x="766" y="115" type="line"/>
      <point x="637" y="35" type="line"/>
      <point x="766" y="35" type="line"/>
      <point x="766" y="0" type="line"/>
      <point x="712" y="0" type="line" smooth="yes"/>
      <point x="655" y="0"/>
      <point x="627" y="-29"/>
      <point x="627" y="-64" type="curve" smooth="yes"/>
      <point x="627" y="-105" type="line" smooth="yes"/>
      <point x="627" y="-135"/>
      <point x="643" y="-165"/>
      <point x="685" y="-165" type="curve" smooth="yes"/>
      <point x="766" y="-165" type="line"/>
      <point x="766" y="-205" type="line"/>
    </contour>
    <contour>
      <point x="614" y="150" type="line"/>
      <point x="655" y="150"/>
      <point x="673" y="165"/>
      <point x="673" y="197" type="curve" smooth="yes"/>
      <point x="673" y="340" type="line" smooth="yes"/>
      <point x="673" y="458"/>
      <point x="622" y="524"/>
      <point x="527" y="524" type="curve"/>
      <point x="527" y="564" type="line"/>
      <point x="646" y="564"/>
      <point x="713" y="476"/>
      <point x="713" y="340" type="curve" smooth="yes"/>
      <point x="713" y="198" type="line" smooth="yes"/>
      <point x="713" y="185"/>
      <point x="710" y="162"/>
      <point x="700" y="150" type="curve"/>
    </contour>
    <contour>
      <point x="333" y="311" type="line"/>
      <point x="448" y="311"/>
      <point x="479" y="233"/>
      <point x="479" y="164" type="curve" smooth="yes"/>
      <point x="479" y="145" type="line" smooth="yes"/>
      <point x="479" y="43"/>
      <point x="412" y="-8"/>
      <point x="312" y="-8" type="curve"/>
      <point x="312" y="32" type="line"/>
      <point x="392" y="32"/>
      <point x="439" y="66"/>
      <point x="439" y="152" type="curve" smooth="yes"/>
      <point x="439" y="200"/>
      <point x="431" y="271"/>
      <point x="346" y="271" type="curve" smooth="yes"/>
      <point x="292" y="271" type="line"/>
      <point x="292" y="360" type="line" smooth="yes"/>
      <point x="292" y="478"/>
      <point x="349" y="564"/>
      <point x="471" y="564" type="curve"/>
      <point x="471" y="524" type="line"/>
      <point x="364" y="524"/>
      <point x="333" y="443"/>
      <point x="333" y="361" type="curve" smooth="yes"/>
    </contour>
    <contour>
      <point x="256" y="-8" type="line"/>
      <point x="137" y="-8"/>
      <point x="70" y="80"/>
      <point x="70" y="196" type="curve" smooth="yes"/>
      <point x="70" y="250" type="line" smooth="yes"/>
      <point x="70" y="316"/>
      <point x="89" y="364"/>
      <point x="124" y="394" type="curve"/>
      <point x="30" y="394" type="line"/>
      <point x="30" y="434" type="line"/>
      <point x="295" y="434" type="line"/>
      <point x="295" y="493"/>
      <point x="246" y="523"/>
      <point x="198" y="523" type="curve" smooth="yes"/>
      <point x="164" y="523"/>
      <point x="130" y="507"/>
      <point x="116" y="474" type="curve"/>
      <point x="77" y="484" type="line"/>
      <point x="91" y="537"/>
      <point x="144" y="564"/>
      <point x="199" y="564" type="curve" smooth="yes"/>
      <point x="266" y="564"/>
      <point x="335" y="523"/>
      <point x="335" y="439" type="curve" smooth="yes"/>
      <point x="325" y="394" type="line"/>
      <point x="256" y="394" type="line" smooth="yes"/>
      <point x="161" y="394"/>
      <point x="110" y="358"/>
      <point x="110" y="250" type="curve" smooth="yes"/>
      <point x="110" y="196" type="line" smooth="yes"/>
      <point x="110" y="98"/>
      <point x="164" y="32"/>
      <point x="256" y="32" type="curve"/>
    </contour>
  </outline>
</glyph>
<glyph name="si_C.halant" format="1">
  <advance width="590"/>
  <outline>
    <contour>
      <point x="30" y="309" type="line"/>
      <point x="30" y="349" type="line"/>
      <point x="209" y="349" type="line"/>
      <point x="295" y="349" type="line"/>
      <point x="295" y="408"/>
      <point x="246" y="438"/>
      <point x="198" y="438" type="curve" smooth="yes"/>
      <point x="164" y="438"/>
      <point x="130" y="422"/>
      <point x="116" y="389" type="curve"/>
      <point x="77" y="399" type="line"/>
      <point x="91" y="452"/>
      <point x="144" y="479"/>
      <point x="199" y="479" type="curve" smooth="yes"/>
      <point x="232" y="479"/>
      <point x="266" y="469"/>
      <point x="292" y="448" type="curve" smooth="yes"/>
      <point x="318" y="427"/>
      <point x="335" y="396"/>
      <point x="335" y="354" type="curve" smooth="yes"/>
      <point x="335" y="309" type="line"/>
      <point x="209" y="309" type="line" smooth="yes"/>
      <point x="150" y="309"/>
      <point x="115" y="252"/>
      <point x="115" y="191" type="curve" smooth="yes"/>
      <point x="115" y="119"/>
      <point x="164" y="40"/>
      <point x="279" y="40" type="curve"/>
      <point x="279" y="0" type="line"/>
      <point x="136" y="0"/>
      <point x="73" y="99"/>
      <point x="73" y="191" type="curve" smooth="yes"/>
      <point x="73" y="236"/>
      <point x="88" y="279"/>
      <point x="115" y="309" type="curve"/>
    </contour>
    <contour>
      <point x="85" y="612" type="line"/>
      <point x="85" y="652" type="line"/>
      <point x="116" y="652" type="line"/>
      <point x="102" y="670"/>
      <point x="95" y="692"/>
      <point x="95" y="715" type="curve" smooth="yes"/>
      <point x="95" y="767"/>
      <point x="132" y="819"/>
      <point x="206" y="819" type="curve" smooth="yes"/>
      <point x="279" y="819" type="line"/>
      <point x="279" y="779" type="line"/>
      <point x="196" y="779" type="line" smooth="yes"/>
      <point x="154" y="779"/>
      <point x="133" y="747"/>
      <point x="133" y="715" type="curve" smooth="yes"/>
      <point x="133" y="684"/>
      <point x="154" y="652"/>
      <point x="196" y="652" type="curve" smooth="yes"/>
      <point x="335" y="652" type="line"/>
      <point x="335" y="612" type="line"/>
    </contour>
    <contour>
      <point x="335" y="0" type="curve"/>
      <point x="335" y="40" type="line"/>
      <point x="448" y="40"/>
      <point x="519" y="95"/>
      <point x="519" y="241" type="curve" smooth="yes"/>
      <point x="519" y="411" type="line" smooth="yes"/>
      <point x="519" y="559"/>
      <point x="448" y="612"/>
      <point x="335" y="612" type="curve"/>
      <point x="335" y="652" type="line"/>
      <point x="494" y="652"/>
      <point x="560" y="568"/>
      <point x="560" y="411" type="curve" smooth="yes"/>
      <point x="560" y="241" type="line" smooth="yes"/>
      <point x="560" y="84"/>
      <point x="494" y="0"/>
    </contour>
    <contour>
      <point x="335" y="779" type="line"/>
      <point x="335" y="819" type="line"/>
      <point x="410" y="819" type="line" smooth="yes"/>
      <point x="488" y="819"/>
      <point x="543" y="776"/>
      <point x="543" y="673" type="curve"/>
      <point x="503" y="673" type="line"/>
      <point x="503" y="770"/>
      <point x="455" y="779"/>
      <point x="410" y="779" type="curve" smooth="yes"/>
    </contour>
  </outline>
</glyph>
<glyph name="si_CIi" format="1">
  <advance width="590"/>
  <outline>
    <contour>
      <point x="279" y="0" type="line"/>
      <point x="136" y="0"/>
      <point x="73" y="99"/>
      <point x="73" y="191" type="curve" smooth="yes"/>
      <point x="73" y="236"/>
      <point x="88" y="279"/>
      <point x="115" y="309" type="curve"/>
      <point x="30" y="309" type="line"/>
      <point x="30" y="349" type="line"/>
      <point x="295" y="349" type="line"/>
      <point x="295" y="408"/>
      <point x="246" y="438"/>
      <point x="198" y="438" type="curve" smooth="yes"/>
      <point x="164" y="438"/>
      <point x="130" y="422"/>
      <point x="116" y="389" type="curve"/>
      <point x="77" y="399" type="line"/>
      <point x="91" y="452"/>
      <point x="144" y="479"/>
      <point x="199" y="479" type="curve" smooth="yes"/>
      <point x="232" y="479"/>
      <point x="266" y="469"/>
      <point x="292" y="448" type="curve" smooth="yes"/>
      <point x="318" y="427"/>
      <point x="335" y="396"/>
      <point x="335" y="354" type="curve" smooth="yes"/>
      <point x="335" y="309" type="line"/>
      <point x="209" y="309" type="line" smooth="yes"/>
      <point x="150" y="309"/>
      <point x="115" y="252"/>
      <point x="115" y="191" type="curve" smooth="yes"/>
      <point x="115" y="119"/>
      <point x="164" y="40"/>
      <point x="279" y="40" type="curve"/>
    </contour>
    <contour>
      <point x="187" y="612" type="line" smooth="yes"/>
      <point x="112" y="612"/>
      <point x="75" y="663"/>
      <point x="75" y="715" type="curve" smooth="yes"/>
      <point x="75" y="767"/>
      <point x="113" y="819"/>
      <point x="187" y="819" type="curve" smooth="yes"/>
      <point x="280" y="819" type="line"/>
      <point x="280" y="779" type="line"/>
      <point x="177" y="779" type="line" smooth="yes"/>
      <point x="135" y="779"/>
      <point x="113" y="747"/>
      <point x="113" y="715" type="curve" smooth="yes"/>
      <point x="113" y="684"/>
      <point x="134" y="652"/>
      <point x="177" y="652" type="curve" smooth="yes"/>
      <point x="335" y="652" type="line"/>
      <point x="335" y="612" type="line"/>
    </contour>
    <contour>
      <point x="335" y="0" type="curve"/>
      <point x="335" y="40" type="line"/>
      <point x="448" y="40"/>
      <point x="519" y="95"/>
      <point x="519" y="241" type="curve" smooth="yes"/>
      <point x="519" y="411" type="line" smooth="yes"/>
      <point x="519" y="559"/>
      <point x="448" y="612"/>
      <point x="335" y="612" type="curve"/>
      <point x="335" y="652" type="line"/>
      <point x="342" y="652"/>
      <point x="350" y="652"/>
      <point x="357" y="651" type="curve" smooth="yes"/>
      <point x="500" y="644"/>
      <point x="560" y="561"/>
      <point x="560" y="411" type="curve" smooth="yes"/>
      <point x="560" y="241" type="line" smooth="yes"/>
      <point x="560" y="84"/>
      <point x="494" y="0"/>
    </contour>
    <contour>
      <point x="481" y="604" type="curve" smooth="yes"/>
      <point x="431" y="604"/>
      <point x="391" y="644"/>
      <point x="391" y="694" type="curve" smooth="yes"/>
      <point x="391" y="730"/>
      <point x="412" y="761"/>
      <point x="442" y="775" type="curve"/>
      <point x="424" y="780"/>
      <point x="407" y="779"/>
      <point x="393" y="779" type="curve" smooth="yes"/>
      <point x="335" y="779" type="line"/>
      <point x="335" y="819" type="line"/>
      <point x="409" y="819" type="line" smooth="yes"/>
      <point x="494" y="819"/>
      <point x="571" y="790"/>
      <point x="571" y="694" type="curve" smooth="yes"/>
      <point x="571" y="644"/>
      <point x="531" y="604"/>
    </contour>
  </outline>
</glyph>
<glyph name="si_Ch.halant" format="1">
  <advance width="622"/>
  <outline>
    <contour>
      <point x="312" y="489" type="line"/>
      <point x="312" y="819" type="line"/>
      <point x="352" y="819" type="line"/>
      <point x="352" y="526" type="line"/>
      <point x="320" y="489" type="line"/>
    </contour>
    <component base="si_Cha"/>
  </outline>
</glyph>
<glyph name="si_ChIi" format="1">
  <advance width="622"/>
  <outline>
    <contour>
      <point x="298" y="579" type="line"/>
      <point x="281" y="592" type="line" smooth="yes"/>
      <point x="225" y="635"/>
      <point x="225" y="686"/>
      <point x="270" y="745" type="curve" smooth="yes"/>
      <point x="310" y="798" type="line" smooth="yes"/>
      <point x="353" y="856"/>
      <point x="417" y="918"/>
      <point x="489" y="859" type="curve" smooth="yes"/>
      <point x="525" y="832"/>
      <point x="533" y="781"/>
      <point x="506" y="745" type="curve" smooth="yes"/>
      <point x="479" y="709"/>
      <point x="428" y="702"/>
      <point x="392" y="729" type="curve" smooth="yes"/>
      <point x="369" y="746"/>
      <point x="358" y="771"/>
      <point x="360" y="798" type="curve"/>
      <point x="296" y="714" type="line" smooth="yes"/>
      <point x="257" y="662"/>
      <point x="292" y="634"/>
      <point x="322" y="611" type="curve"/>
    </contour>
    <component base="si_Cha"/>
  </outline>
</glyph>
<glyph name="si_DDhIi" format="1">
  <advance width="727"/>
  <outline>
    <contour>
      <point x="30" y="208" type="curve" smooth="yes"/>
      <point x="30" y="296" type="line" smooth="yes"/>
      <point x="30" y="471"/>
      <point x="153" y="479"/>
      <point x="237" y="479" type="curve" smooth="yes"/>
      <point x="288" y="479"/>
      <point x="340" y="479"/>
      <point x="391" y="479" type="curve"/>
      <point x="391" y="439" type="line"/>
      <point x="238" y="439" type="line" smooth="yes"/>
      <point x="118" y="439"/>
      <point x="70" y="395"/>
      <point x="70" y="296" type="curve" smooth="yes"/>
      <point x="70" y="208" type="line" smooth="yes"/>
      <point x="70" y="127"/>
      <point x="71" y="84"/>
      <point x="126" y="7" type="curve"/>
      <point x="84" y="-9" type="line"/>
      <point x="33" y="68"/>
      <point x="30" y="117"/>
    </contour>
    <component base="si_DhIi" xOffset="141"/>
  </outline>
</glyph>
<glyph name="si_DIi" format="1">
  <advance width="542"/>
  <outline>
    <contour>
      <point x="409" y="574" type="curve" smooth="yes"/>
      <point x="359" y="574"/>
      <point x="319" y="614"/>
      <point x="319" y="664" type="curve" smooth="yes"/>
      <point x="319" y="714"/>
      <point x="359" y="754"/>
      <point x="409" y="754" type="curve" smooth="yes"/>
      <point x="459" y="754"/>
      <point x="499" y="714"/>
      <point x="499" y="664" type="curve" smooth="yes"/>
      <point x="499" y="614"/>
      <point x="459" y="574"/>
    </contour>
    <contour>
      <point x="30" y="602" type="line"/>
      <point x="30" y="630" type="line"/>
      <point x="30" y="723"/>
      <point x="106" y="789"/>
      <point x="206" y="789" type="curve"/>
      <point x="337" y="789" type="line"/>
      <point x="422" y="789"/>
      <point x="499" y="760"/>
      <point x="499" y="664" type="curve"/>
      <point x="454" y="663" type="line"/>
      <point x="454" y="741"/>
      <point x="368" y="749"/>
      <point x="321" y="749" type="curve"/>
      <point x="222" y="749" type="line"/>
      <point x="79" y="749"/>
      <point x="70" y="654"/>
      <point x="70" y="602" type="curve"/>
    </contour>
    <component base="si_Da" xOffset="10"/>
  </outline>
</glyph>
<glyph name="si_DRI" format="1">
  <advance width="532"/>
  <outline>
    <contour>
      <point x="30" y="602" type="line"/>
      <point x="30" y="630" type="line"/>
      <point x="30" y="723"/>
      <point x="106" y="789"/>
      <point x="206" y="789" type="curve"/>
      <point x="292" y="789" type="line"/>
      <point x="392" y="789"/>
      <point x="468" y="723"/>
      <point x="468" y="630" type="curve"/>
      <point x="468" y="602" type="line"/>
      <point x="428" y="602" type="line"/>
      <point x="428" y="654"/>
      <point x="419" y="749"/>
      <point x="276" y="749" type="curve"/>
      <point x="222" y="749" type="line"/>
      <point x="79" y="749"/>
      <point x="70" y="654"/>
      <point x="70" y="602" type="curve"/>
    </contour>
    <component base="si_DRa"/>
  </outline>
</glyph>
<glyph name="si_DRa" format="1">
  <advance width="532"/>
  <outline>
    <contour>
      <point x="30" y="199" type="curve" smooth="yes"/>
      <point x="30" y="335"/>
      <point x="125" y="402"/>
      <point x="256" y="402" type="curve" smooth="yes"/>
      <point x="392" y="402" type="line"/>
      <point x="392" y="493"/>
      <point x="320" y="538"/>
      <point x="243" y="538" type="curve" smooth="yes"/>
      <point x="182" y="538"/>
      <point x="124" y="505"/>
      <point x="107" y="443" type="curve"/>
      <point x="68" y="456" type="line"/>
      <point x="89" y="536"/>
      <point x="163" y="579"/>
      <point x="241" y="579" type="curve" smooth="yes"/>
      <point x="339" y="579"/>
      <point x="432" y="519"/>
      <point x="432" y="389" type="curve" smooth="yes"/>
      <point x="432" y="362" type="line"/>
      <point x="246" y="362" type="line" smooth="yes"/>
      <point x="130" y="362"/>
      <point x="72" y="293"/>
      <point x="72" y="199" type="curve" smooth="yes"/>
      <point x="72" y="108"/>
      <point x="133" y="40"/>
      <point x="257" y="40" type="curve"/>
      <point x="296" y="40" type="line"/>
      <point x="367" y="40"/>
      <point x="425" y="72"/>
      <point x="458" y="138" type="curve"/>
      <point x="498" y="138" type="line"/>
      <point x="456" y="22"/>
      <point x="353" y="0"/>
      <point x="296" y="0" type="curve"/>
      <point x="257" y="0" type="line" smooth="yes"/>
      <point x="137" y="0"/>
      <point x="30" y="60"/>
    </contour>
    <contour>
      <point x="299" y="-194" type="line"/>
      <point x="413" y="-194"/>
      <point x="458" y="-107"/>
      <point x="458" y="-19" type="curve" smooth="yes"/>
      <point x="458" y="138" type="line"/>
      <point x="498" y="138" type="line"/>
      <point x="498" y="2" type="line" smooth="yes"/>
      <point x="498" y="-140"/>
      <point x="444" y="-234"/>
      <point x="299" y="-234" type="curve"/>
    </contour>
    <contour>
      <point x="243" y="-234" type="line"/>
      <point x="140" y="-234"/>
      <point x="33" y="-173"/>
      <point x="33" y="-57" type="curve" smooth="yes"/>
      <point x="33" y="-47" type="line"/>
      <point x="73" y="-47" type="line"/>
      <point x="73" y="-172"/>
      <point x="196" y="-194"/>
      <point x="243" y="-194" type="curve"/>
    </contour>
  </outline>
</glyph>
